<svg id="email" xmlns="http://www.w3.org/2000/svg" width="17.5" height="14" viewBox="0 0 17.5 14">
  <path id="Path_13048" data-name="Path 13048" d="M16.875,4H4.625A2.625,2.625,0,0,0,2,6.625v8.75A2.625,2.625,0,0,0,4.625,18h12.25A2.625,2.625,0,0,0,19.5,15.375V6.625A2.625,2.625,0,0,0,16.875,4Zm-.586,1.75L10.75,9.906,8.716,8.38l-3.5-2.63Zm.586,10.5H4.625a.875.875,0,0,1-.875-.875V6.844L10.225,11.7a.875.875,0,0,0,1.05,0L17.75,6.844v8.531A.875.875,0,0,1,16.875,16.25Z" transform="translate(-2 -4)" fill="#9a9a9a"/>
</svg>
