<svg width="27" height="23" viewBox="0 0 27 23" fill="none" xmlns="http://www.w3.org/2000/svg">
<path d="M21.5966 23.0002H5.38831C4.67217 22.9995 3.98555 22.7047 3.47905 22.1805C2.97254 21.6563 2.68752 20.9454 2.68649 20.2038V9.01434C2.67204 8.88293 2.68454 8.74984 2.72321 8.62379C2.76189 8.49774 2.82586 8.3816 2.91091 8.28292C2.99596 8.18425 3.10018 8.10528 3.21675 8.05122C3.33331 7.99716 3.45959 7.96924 3.58731 7.96924C3.71503 7.96924 3.84132 7.99716 3.95789 8.05122C4.07446 8.10528 4.17868 8.18425 4.26373 8.28292C4.34878 8.3816 4.41273 8.49774 4.4514 8.62379C4.49008 8.74984 4.5026 8.88293 4.48814 9.01434V20.2038C4.48814 20.4528 4.58365 20.6917 4.75368 20.8677C4.92371 21.0438 5.15433 21.1427 5.39479 21.1427H21.5966C21.8371 21.1427 22.0677 21.0438 22.2377 20.8677C22.4077 20.6917 22.5033 20.4528 22.5033 20.2038V9.01434C22.4888 8.88293 22.5013 8.74984 22.54 8.62379C22.5786 8.49774 22.6426 8.3816 22.7276 8.28292C22.8127 8.18425 22.9169 8.10528 23.0335 8.05122C23.1501 7.99716 23.2763 7.96924 23.4041 7.96924C23.5318 7.96924 23.6581 7.99716 23.7746 8.05122C23.8912 8.10528 23.9954 8.18425 24.0805 8.28292C24.1655 8.3816 24.2295 8.49774 24.2682 8.62379C24.3068 8.74984 24.3193 8.88293 24.3049 9.01434V20.2038C24.3042 20.9456 24.0193 21.6568 23.5128 22.1814C23.0062 22.7059 22.3194 23.0008 21.6031 23.0015L21.5966 23.0002Z" fill="white"/>
<path d="M26.0996 11.612C25.898 11.612 25.7022 11.5416 25.544 11.4122L14.049 2.06006C13.8898 1.93173 13.6938 1.86205 13.492 1.86205C13.2903 1.86205 13.0943 1.93173 12.9351 2.06006L1.44008 11.4122C1.25063 11.5317 1.02541 11.5752 0.807068 11.5344C0.588727 11.4936 0.392431 11.3713 0.255334 11.1906C0.118236 11.01 0.0498556 10.7836 0.0631545 10.5542C0.0764533 10.3249 0.170502 10.1086 0.32749 9.94624L11.8225 0.594147C12.2982 0.205812 12.8863 -0.00537109 13.492 -0.00537109C14.0978 -0.00537109 14.6859 0.205812 15.1616 0.594147L26.6566 9.94624C26.7998 10.0679 26.9036 10.2321 26.954 10.4167C27.0043 10.6013 26.9989 10.7975 26.9384 10.9788C26.8779 11.1601 26.7651 11.3178 26.6154 11.4308C26.4657 11.5438 26.2861 11.6065 26.1009 11.6107L26.0996 11.612Z" fill="white"/>
<path d="M17.0952 22.996C16.8548 22.996 16.6242 22.8971 16.4541 22.7211C16.2841 22.545 16.1886 22.3062 16.1886 22.0572V14.5975C16.1886 14.3485 16.0931 14.1097 15.923 13.9336C15.753 13.7576 15.5224 13.6587 15.2819 13.6587H11.6799C11.4395 13.6587 11.2089 13.7576 11.0389 13.9336C10.8688 14.1097 10.7733 14.3485 10.7733 14.5975V22.0572C10.7878 22.1886 10.7752 22.3217 10.7366 22.4477C10.6979 22.5738 10.6339 22.69 10.5489 22.7886C10.4638 22.8873 10.3596 22.9662 10.2431 23.0203C10.1265 23.0743 10.0002 23.1023 9.87247 23.1023C9.74474 23.1023 9.61847 23.0743 9.5019 23.0203C9.38533 22.9662 9.28113 22.8873 9.19608 22.7886C9.11103 22.69 9.04704 22.5738 9.00837 22.4477C8.9697 22.3217 8.95719 22.1886 8.97165 22.0572V14.5975C8.97234 13.8557 9.25723 13.1445 9.76377 12.62C10.2703 12.0955 10.9571 11.8005 11.6735 11.7998H15.2755C15.9918 11.8005 16.6787 12.0955 17.1852 12.62C17.6917 13.1445 17.9766 13.8557 17.9773 14.5975V22.0572C17.9773 22.3062 17.8818 22.545 17.7117 22.7211C17.5417 22.8971 17.3111 22.996 17.0706 22.996H17.0952Z" fill="white"/>
</svg>
