<svg id="Group_5916" data-name="Group 5916" xmlns="http://www.w3.org/2000/svg" width="205.522" height="43.429" viewBox="0 0 205.522 43.429">
  <g id="LogoArabicRGB" transform="translate(0 0)">
    <path id="Path_47650" data-name="Path 47650" d="M441.027,143.811a2.257,2.257,0,0,1-.827-.311c.165,1.088,5.57,1.5,6.7,1.632.91.078,1.847.155,2.73.207,0,0-.028-.337-.028-.492s-.028-.518-.028-.518A58.667,58.667,0,0,1,441.027,143.811Z" transform="translate(-341.906 -128.005)" fill="#EFECE2"/>
    <path id="Path_47651" data-name="Path 47651" d="M491.312,143.9a.383.383,0,0,1-.221.13,9.729,9.729,0,0,1-1.737.311c-1.709.155-3.474.207-5.211.233-1.351,0-2.647.207-3.97.285-1.985.13-3.86.207-5.873.285,2.9.259,5.763.415,8.685.466a36.115,36.115,0,0,0,3.722-.337C487.673,145.118,490.954,144.781,491.312,143.9Z" transform="translate(-366.603 -128.301)" fill="#EFECE2"/>
    <path id="Path_47652" data-name="Path 47652" d="M440.131,130.333a16.625,16.625,0,0,0,2.04.518,3.5,3.5,0,0,1,.028-.466c0-.155.028-.466.028-.466-.579-.052-1.186-.078-1.737-.155-.358-.052-.744-.1-1.075-.181a.6.6,0,0,1-.331-.181C439,129.892,439.745,130.2,440.131,130.333Z" transform="translate(-341.092 -117.558)" fill="#EFECE2"/>
    <path id="Path_47653" data-name="Path 47653" d="M468.332,131.584c1.1-.181,5.68-.6,5.928-1.632v-.026h0V129.9c-.138.181-.441.207-.662.259a52.075,52.075,0,0,1-5.873.389c-1.544.1-4.66.311-6.2.363a108,108,0,0,1-11.222-.181A96.293,96.293,0,0,0,468.332,131.584Z" transform="translate(-349.221 -117.929)" fill="#EFECE2"/>
    <path id="Path_47654" data-name="Path 47654" d="M449.272,105.185c.5.13,1.02.207,1.544.311.055-.13.138-.259.193-.389a64.126,64.126,0,0,0,8.134.881v-1.036c-3.695.078-6.507.207-8.134.13l.193-.363a15.6,15.6,0,0,1-3.309-.415.273.273,0,0,1-.138-.1.267.267,0,0,0-.055.207C447.81,104.848,448.858,105.081,449.272,105.185Z" transform="translate(-347.338 -98.888)" fill="#EFECE2"/>
    <path id="Path_47655" data-name="Path 47655" d="M497.068,105.9a6.161,6.161,0,0,0,2.178-.466c.276-.1.717-.311.744-.648a.477.477,0,0,0-.028-.181c0,.026-.028.026-.055.052a3.174,3.174,0,0,1-.993.155c-.386.026-.772.052-1.158.052-.827.052-1.654.233-2.482.337-1.268.155-2.537.311-3.8.415-.8.052-1.572.13-2.371.155.414.026.827.052,1.241.052C492.6,105.922,494.835,105.973,497.068,105.9Z" transform="translate(-377.323 -99.184)" fill="#EFECE2"/>
    <path id="Path_47656" data-name="Path 47656" d="M444.676,110.7a7.779,7.779,0,0,0,1.1.363c.193.052.414.1.579.155.055-.13.11-.285.165-.415s.11-.285.165-.389c-.579-.052-1.186-.1-1.765-.181a1.913,1.913,0,0,1-.744-.233.347.347,0,0,0-.028.285A1.345,1.345,0,0,0,444.676,110.7Z" transform="translate(-344.755 -103.185)" fill="#EFECE2"/>
    <path id="Path_47657" data-name="Path 47657" d="M465.252,113a117.556,117.556,0,0,1-12.352,0,69.628,69.628,0,0,0,12.407,1.036C465.307,114.062,465.252,113,465.252,113Z" transform="translate(-351.104 -105.408)" fill="#EFECE2"/>
    <path id="Path_47658" data-name="Path 47658" d="M443.675,117.27c.083-.259.165-.6.248-.855a8.783,8.783,0,0,1-2.288-.337c-.028-.026-.055-.052-.055-.078a.477.477,0,0,0-.028.337C441.718,116.648,442.3,116.907,443.675,117.27Z" transform="translate(-342.872 -107.63)" fill="#EFECE2"/>
    <path id="Path_47659" data-name="Path 47659" d="M440.633,123.281a9.285,9.285,0,0,0,1.516.466c.028-.285.083-.622.138-.907-.579-.052-1.351-.13-1.765-.207-.193-.052-.5-.052-.607-.233a.473.473,0,0,0,0,.337A1.228,1.228,0,0,0,440.633,123.281Z" transform="translate(-341.677 -112.372)" fill="#EFECE2"/>
    <path id="Path_47660" data-name="Path 47660" d="M473.352,88.429c2.785,0,5.6-.233,5.652-.674a.213.213,0,0,0-.11-.155c-.937.466-5.211.415-5.542.441-.331-.026-4.6.026-5.542-.441-.028.052-.11.1-.11.155C467.755,88.2,470.568,88.429,473.352,88.429Z" transform="translate(-361.823 -86.589)" fill="#EFECE2"/>
    <path id="Path_47661" data-name="Path 47661" d="M469.151,91.814c3.557-.026,7.169-.259,7.251-.959,0-.052-.055-.1-.11-.155,0,.026-.028.026-.055.052-2.04.7-12.159.7-14.172,0-.028-.026-.055-.026-.055-.052a.239.239,0,0,0-.11.155C461.983,91.555,465.595,91.788,469.151,91.814Z" transform="translate(-357.622 -88.886)" fill="#EFECE2"/>
    <path id="Path_47662" data-name="Path 47662" d="M462.2,90.7Z" transform="translate(-357.84 -88.886)" fill="#EFECE2"/>
    <path id="Path_47663" data-name="Path 47663" d="M465.334,96.025V95.17c-4.356.1-8.079-.1-8.52-.492-.028-.026-.028-.052-.055-.078C456.318,95.377,465.334,96.025,465.334,96.025Z" transform="translate(-353.887 -91.776)" fill="#EFECE2"/>
    <path id="Path_47664" data-name="Path 47664" d="M493.4,96.114c3.033-.311,3.364-.8,3.364-1.011,0-.052-.028-.078-.028-.1-.055.1-.221.1-.331.13a23.393,23.393,0,0,1-3.309.259c-1.627.078-4.136.466-5.1.518A33.619,33.619,0,0,0,493.4,96.114Z" transform="translate(-376.526 -92.072)" fill="#EFECE2"/>
    <path id="Path_47665" data-name="Path 47665" d="M463.249,100.829v-.441h0a52.389,52.389,0,0,0,6.783.052c.634,0,2.04-.466,1.985-.933,0-.052-.028-.1-.028-.155,0,.026-.055.026-.083.052a9.956,9.956,0,0,1-1.654.181c-2.178.337-4.577.674-7,.829v-.441c-5.156.078-10.588-.078-11.167-.6-.028-.026-.055-.052-.055-.078a.311.311,0,0,0-.028.155C452.165,100.181,457.707,100.855,463.249,100.829Z" transform="translate(-350.452 -95.258)" fill="#EFECE2"/>
    <path id="Path_47666" data-name="Path 47666" d="M497.8,111.518c2.151.1,3.833.181,6.011.155a4.791,4.791,0,0,0,1.048-.1c1.82-.363,2.316-.8,2.371-1.062a.52.52,0,0,0,0-.207c0,.026-.028.026-.055.052-.276.207-2.537.181-3.612.363A53.325,53.325,0,0,1,497.8,111.518Z" transform="translate(-383.624 -103.407)" fill="#EFECE2"/>
    <path id="Path_47667" data-name="Path 47667" d="M500.9,117.7c1.048.1,2.4.207,4.439.259,1.9.052,4.77-.7,4.853-1.322a.677.677,0,0,0,.028-.233c0,.026-.028.052-.055.078-.248.181-3.281.285-4.66.466C504.071,117.177,502.968,117.436,500.9,117.7Z" transform="translate(-385.869 -107.927)" fill="#EFECE2"/>
    <path id="Path_47668" data-name="Path 47668" d="M449.8,119.126a89.255,89.255,0,0,0,14.144,1.166s-.055-.415-.055-.6c-.028-.181-.055-.6-.055-.6A104.211,104.211,0,0,1,449.8,119.126Z" transform="translate(-348.859 -109.927)" fill="#EFECE2"/>
    <path id="Path_47669" data-name="Path 47669" d="M464.457,123.726a111.572,111.572,0,0,1-16.157,0,90.362,90.362,0,0,0,16.791,1.088c4.687-.492,7.224-.855,7.5-1.814-.441.311-1.654.6-7.665.674A2.883,2.883,0,0,1,464.457,123.726Z" transform="translate(-347.772 -112.817)" fill="#EFECE2"/>
    <path id="Path_47670" data-name="Path 47670" d="M482.67,138.71a34.1,34.1,0,0,0,4.026-.544,9.176,9.176,0,0,0,2.04-.6,1.245,1.245,0,0,0,.607-.492v-.052a2.42,2.42,0,0,1-1.048.285c-1.82.233-3.2.233-5.156.311-3.832.363-7.693.6-11.5.622-.165,0-.3.026-.441.026C475,138.581,478.893,138.736,482.67,138.71Z" transform="translate(-364.358 -123.189)" fill="#EFECE2"/>
    <path id="Path_47671" data-name="Path 47671" d="M441,137.066a13.771,13.771,0,0,1-1.434-.233c-.165-.052-.386-.1-.469-.233,0,.544.965.777,1.434.933a47.019,47.019,0,0,0,7.472,1.011s-.028-.389-.028-.57v-.6C445.772,137.351,442.988,137.3,441,137.066Z" transform="translate(-341.109 -122.892)" fill="#EFECE2"/>
    <path id="Path_47672" data-name="Path 47672" d="M460.17,151.684c2.785-.233,6.066-.622,6.976-1.347.083-.078.165-.13.193-.233a.3.3,0,0,1-.138.078c-1.186.441-4.274.466-7.444.57-3.088.285-5.57.415-8.216.492-.028-.181-.028-.363-.055-.466h-.827c-1.709-.026-1.847,0-3.336-.078h-.138a31.251,31.251,0,0,1-4.963-.57A.607.607,0,0,1,442,150c.11.389.634.518,1.02.674a40.628,40.628,0,0,0,7.72,1.036c.221.026.441.026.827.052,0,0-.028-.207-.055-.466C455.483,151.581,457.744,151.684,460.17,151.684Z" transform="translate(-343.209 -132.82)" fill="#EFECE2"/>
    <path id="Path_47673" data-name="Path 47673" d="M452.8,156.826c-1.516,0-4.715-.155-5.184-.207a15.2,15.2,0,0,1-2.261-.337A.768.768,0,0,1,445,156.1h0c.331.881,4.687,1.244,5.735,1.373.827.078,1.737.155,2.592.207l-.083-.415c-.028-.13-.083-.441-.083-.441Z" transform="translate(-345.382 -137.34)" fill="#EFECE2"/>
    <path id="Path_47674" data-name="Path 47674" d="M483.64,157.17c-.193,0-.414.026-.607.026-3.695.337-6.783.389-8.134.441,4.081.337,6.4.415,8.575.389,2.619-.207,5.68-.57,6.672-1.192a.692.692,0,0,0,.248-.233.46.46,0,0,1-.165.078C489.789,156.833,488.383,157.092,483.64,157.17Z" transform="translate(-367.038 -137.71)" fill="#EFECE2"/>
    <path id="Path_47675" data-name="Path 47675" d="M491.624,162.155a12.238,12.238,0,0,1-1.958.259c-2.371.207-4.908.1-7.279.363-1.186.1-3.088.181-3.888.207,0,0,.276.026.5.052.579.052,1.13.1,1.654.13,1.02.078,2.068.13,3.06.181a30.352,30.352,0,0,0,3.75-.233,15.02,15.02,0,0,0,4.163-.855.8.8,0,0,0,.331-.259l-.028.026A.461.461,0,0,1,491.624,162.155Z" transform="translate(-369.645 -141.711)" fill="#EFECE2"/>
    <path id="Path_47676" data-name="Path 47676" d="M456.034,162.374a38.333,38.333,0,0,1-6.921-.492,1.974,1.974,0,0,1-.221-.078,1.22,1.22,0,0,1-.193-.1,1.642,1.642,0,0,0,.8.492,31.356,31.356,0,0,0,6.231.881c.414.026.91.052,1.323.078l-.083-.389s-.055-.285-.083-.389Z" transform="translate(-348.062 -141.489)" fill="#EFECE2"/>
    <path id="Path_47677" data-name="Path 47677" d="M481.131,168.029l-.331.026.331.026c1.958.155,2.564.285,4.053.285,3.667-.233,6.314-.441,7.2-1.166-.744.363-3.667.466-7.5.544C483.281,167.874,482.647,167.926,481.131,168.029Z" transform="translate(-371.311 -145.563)" fill="#EFECE2"/>
    <path id="Path_47678" data-name="Path 47678" d="M453.121,166.9a.425.425,0,0,1-.221-.1l.138.13c1.268,1.088,4.715.933,7.665,1.14,0,0-.055-.233-.083-.311-.028-.1-.083-.337-.083-.337C455.464,167.37,453.727,167.085,453.121,166.9Z" transform="translate(-351.104 -145.267)" fill="#EFECE2"/>
    <path id="Path_47679" data-name="Path 47679" d="M485.881,171.915a19.024,19.024,0,0,0-2.481.311c.662.1,1.1.181,1.6.259a7.74,7.74,0,0,0,.8.052,29.585,29.585,0,0,0,6.645-.751A1.811,1.811,0,0,0,493,171.5a.1.1,0,0,1-.055.026C491.782,171.837,490.017,171.941,485.881,171.915Z" transform="translate(-373.194 -148.749)" fill="#EFECE2"/>
    <path id="Path_47680" data-name="Path 47680" d="M461.457,171.741a14.169,14.169,0,0,1-3.557-.441,4.667,4.667,0,0,0,2.04.622,45.539,45.539,0,0,0,5.046.441l-.055-.259a2.181,2.181,0,0,1-.055-.285C463.773,171.792,462.56,171.792,461.457,171.741Z" transform="translate(-354.725 -148.601)" fill="#EFECE2"/>
    <path id="Path_47681" data-name="Path 47681" d="M475.57,178.811a39.478,39.478,0,0,1-4.412-.259,3.59,3.59,0,0,1-.358-.052.215.215,0,0,0,.11.052,15.386,15.386,0,0,0,4.632.674,16.108,16.108,0,0,0,4.632-.674c.028-.026.083-.026.11-.052a2.632,2.632,0,0,1-.358.052A37.7,37.7,0,0,1,475.57,178.811Z" transform="translate(-364.068 -153.935)" fill="#EFECE2"/>
    <path id="Path_47682" data-name="Path 47682" d="M470.5,175.933c1.654,0,5.294-.207,6.535-.8a.434.434,0,0,0,.165-.13,2.446,2.446,0,0,1-.248.078,53.272,53.272,0,0,1-6.452.363,52.608,52.608,0,0,1-6.452-.363A2.446,2.446,0,0,1,463.8,175a.434.434,0,0,0,.165.13C465.206,175.726,468.873,175.933,470.5,175.933Z" transform="translate(-358.999 -151.342)" fill="#EFECE2"/>
    <path id="Path_47683" data-name="Path 47683" d="M477.983,85.874c.965,0,3.584-.155,3.833-.441.083-.078-.028-.233-.028-.233a.189.189,0,0,1-.11.078c-.221.078-2.785.233-3.695.233a36.472,36.472,0,0,1-3.695-.233.189.189,0,0,1-.11-.078.264.264,0,0,0-.028.233A14.43,14.43,0,0,0,477.983,85.874Z" transform="translate(-366.481 -84.811)" fill="#EFECE2"/>
    <path id="Path_47684" data-name="Path 47684" d="M480.552,83.881a10.145,10.145,0,0,0,4.081,0c.083-.052.083-.155-.055-.181,0,0,0,.026-.165.078a21.337,21.337,0,0,1-3.64,0c-.165-.026-.165-.078-.165-.078C480.469,83.726,480.469,83.855,480.552,83.881Z" transform="translate(-371.09 -83.7)" fill="#EFECE2"/>
    <path id="Path_47685" data-name="Path 47685" d="M126.216,108.706v-.8l1.709,1.866h6.231a1,1,0,0,0,1.13-1.062V93.133h-5.377v7.851h-3.695V93.133H120.84v7.851h-3.695V93.133h-5.377v7.851h-3.695V94.2a1,1,0,0,0-1.13-1.062H97.789a4.946,4.946,0,0,0-3.8,1.71l-2.04,2.41V85.8h-5.4v15.185H83.7v8.784h23.243a1,1,0,0,0,1.13-1.062v-.8l1.709,1.866h6.231a1,1,0,0,0,1.13-1.062v-.8l1.709,1.866h6.231A1,1,0,0,0,126.216,108.706ZM102.7,100.985H93.764l2.371-2.773a1.553,1.553,0,0,1,1.213-.544H102.7v3.317Z" transform="translate(-83.7 -85.256)" fill="#EFECE2"/>
    <path id="Path_47686" data-name="Path 47686" d="M353.76,100.985h-4.384V93.133H344v4.25a3.741,3.741,0,0,0,3.088,3.628H344v8.784h14.034a1,1,0,0,0,1.13-1.062V85.8h-5.377v15.185Z" transform="translate(-272.23 -85.256)" fill="#EFECE2"/>
    <rect id="Rectangle_1023" data-name="Rectangle 1023" width="5.377" height="23.969" transform="translate(89.747 0.544)" fill="#EFECE2"/>
    <path id="Path_47687" data-name="Path 47687" d="M282.23,130.736H290.2v5.053a5.212,5.212,0,0,0,5.377-5.053V114.1H281.1v15.573A1,1,0,0,0,282.23,130.736Zm4.246-12.127H290.2v3.317h-3.116a.594.594,0,0,1-.607-.57Z" transform="translate(-226.673 -106.223)" fill="#EFECE2"/>
    <path id="Path_47688" data-name="Path 47688" d="M346.63,88.676a.326.326,0,0,1,.331-.311h2.316V85.8h-4.163a1.189,1.189,0,0,0-1.213,1.14v3.913h2.73Z" transform="translate(-272.157 -85.256)" fill="#EFECE2"/>
    <path id="Path_47689" data-name="Path 47689" d="M678.546,100.985h-4.825V93.133h-5.377v7.851h-3.695V93.133h-5.377v7.851h-3.695V93.133H650.2v7.851h-4.825V93.133H640v21.714a5.212,5.212,0,0,0,5.377-5.053h9.071a1,1,0,0,0,1.13-1.062v-.8l1.709,1.866h6.231a1,1,0,0,0,1.13-1.062v-.8l1.71,1.866h6.231a1,1,0,0,0,1.13-1.062v-1.114l1.985,2.177h7.086a1,1,0,0,0,1.13-1.062V85.8h-5.377Z" transform="translate(-486.616 -85.256)" fill="#EFECE2"/>
    <rect id="Rectangle_1024" data-name="Rectangle 1024" width="5.377" height="23.969" transform="translate(200.146 0.544)" fill="#EFECE2"/>
    <path id="Path_47690" data-name="Path 47690" d="M548.53,130.736h20.431a1,1,0,0,0,1.13-1.062V114.1H555.616v4.535h0c0,1.866,1.268,2.8,3.116,3.317h-5.956V114.1H547.4v15.573A1,1,0,0,0,548.53,130.736Zm12.463-12.127h3.722v3.317h-2.592a1.07,1.07,0,0,1-1.13-1.062Z" transform="translate(-419.548 -106.223)" fill="#EFECE2"/>
    <ellipse id="Ellipse_191" data-name="Ellipse 191" cx="2.84" cy="2.591" rx="2.84" ry="2.591" transform="translate(181.562 0.026)" fill="#EFECE2"/>
    <ellipse id="Ellipse_192" data-name="Ellipse 192" cx="2.84" cy="2.591" rx="2.84" ry="2.591" transform="translate(172.519 0.026)" fill="#EFECE2"/>
    <ellipse id="Ellipse_193" data-name="Ellipse 193" cx="2.84" cy="2.591" rx="2.84" ry="2.591" transform="translate(163.447 0.026)" fill="#EFECE2"/>
    <path id="Path_47691" data-name="Path 47691" d="M612.44,88.982a2.6,2.6,0,1,0-2.84-2.591A2.675,2.675,0,0,0,612.44,88.982Z" transform="translate(-464.598 -83.774)" fill="#EFECE2"/>
    <ellipse id="Ellipse_194" data-name="Ellipse 194" cx="2.84" cy="2.591" rx="2.84" ry="2.591" transform="translate(135.93 0.026)" fill="#EFECE2"/>
    <path id="Path_47692" data-name="Path 47692" d="M256.813,215.548h-11.47c-.055,0-.11-.026-.165-.026h-.386a2.559,2.559,0,0,1-.441-.052c-.193-.026-.414-.078-.634-.13s-.469-.13-.744-.207-.524-.155-.772-.233a6.152,6.152,0,0,1-.744-.233c-.221-.078-.469-.13-.662-.207v1.477c.414.13.772.233,1.1.311.3.1.579.207.827.285a1.883,1.883,0,0,1,.524.233c.11.078.165.13.165.207a.406.406,0,0,1-.138.285,1.333,1.333,0,0,1-.469.311,2.961,2.961,0,0,1-.937.259,7.6,7.6,0,0,1-1.544.1,8.02,8.02,0,0,1-1.379-.1,2.831,2.831,0,0,1-.937-.311,1.469,1.469,0,0,1-.551-.518,1.542,1.542,0,0,1-.165-.7v-1.632H235.5v1.684a3.11,3.11,0,0,0,.248,1.218,2.222,2.222,0,0,0,.8.933,3.931,3.931,0,0,0,1.489.622,11.231,11.231,0,0,0,2.288.233,13.081,13.081,0,0,0,2.261-.181,5,5,0,0,0,1.489-.492,1.85,1.85,0,0,0,.8-.7,1.536,1.536,0,0,0,.248-.829v-.13a.222.222,0,0,0-.028-.13h13.593v-8.4H256.9v7.048Z" transform="translate(-193.646 -176.162)" fill="#EFECE2"/>
    <path id="Path_47693" data-name="Path 47693" d="M330.259,224.028h0a4.034,4.034,0,0,0-.138-1.14,2.445,2.445,0,0,0-.441-.933,1.909,1.909,0,0,0-.827-.622,3.54,3.54,0,0,0-1.268-.233,3.251,3.251,0,0,0-1.213.233,2.169,2.169,0,0,0-.855.6,2.909,2.909,0,0,0-.524.881,3.3,3.3,0,0,0-.193,1.036,2.93,2.93,0,0,0,.193,1.088,2.172,2.172,0,0,0,.551.751,2.583,2.583,0,0,0,.827.466,3.482,3.482,0,0,0,1.02.155,4.155,4.155,0,0,0,.993-.1,1.188,1.188,0,0,1-.138.441.852.852,0,0,1-.3.389,1.587,1.587,0,0,1-.551.285,2.816,2.816,0,0,1-.937.1h-1.02v1.5h1.13a6.319,6.319,0,0,0,1.709-.233,2.531,2.531,0,0,0,1.792-1.684,4.236,4.236,0,0,0,.193-1.425h-.028v-1.555Zm-1.765.7h0a2.191,2.191,0,0,1-.91.181.873.873,0,0,1-.772-.311,1.217,1.217,0,0,1-.248-.8h0a1.5,1.5,0,0,1,.055-.492,1.18,1.18,0,0,1,.165-.389.9.9,0,0,1,.744-.363.85.85,0,0,1,.441.1.629.629,0,0,1,.3.285,1.227,1.227,0,0,1,.165.44,3.992,3.992,0,0,1,.055.57v.777Z" transform="translate(-258.324 -185.497)" fill="#EFECE2"/>
    <path id="Path_47694" data-name="Path 47694" d="M354.294,215.67h-1.213l-.993-5.1H350.3l.937,5.1H349V217.1h7.058v-8.4h-1.765Z" transform="translate(-275.851 -176.31)" fill="#EFECE2"/>
    <path id="Path_47695" data-name="Path 47695" d="M352.3,207.028h2.426l.028-.726h-.662a.753.753,0,0,1-.414-.1.376.376,0,0,1,0-.518.553.553,0,0,1,.331-.1h.165c.083.026.165.026.276.052V204.9c-.083-.026-.193-.052-.276-.078a1.672,1.672,0,0,0-.358-.026,1.168,1.168,0,0,0-.414.078,1.517,1.517,0,0,0-.358.181,1.227,1.227,0,0,0-.248.311.794.794,0,0,0-.083.441.676.676,0,0,0,.028.233l.083.233h-.5v.751Z" transform="translate(-278.241 -173.42)" fill="#EFECE2"/>
    <rect id="Rectangle_1025" data-name="Rectangle 1025" width="1.792" height="8.396" transform="translate(81.862 32.39)" fill="#EFECE2"/>
    <path id="Path_47696" data-name="Path 47696" d="M423.389,245.189a.746.746,0,0,0-.276-.155,1.048,1.048,0,0,0-.689,0,.931.931,0,0,0-.276.155.779.779,0,0,0,0,1.14.58.58,0,0,0,.276.155.914.914,0,0,0,1.158-.441.81.81,0,0,0,0-.622A1.442,1.442,0,0,0,423.389,245.189Z" transform="translate(-328.651 -203.185)" fill="#EFECE2"/>
    <path id="Path_47697" data-name="Path 47697" d="M413.537,222.1h0v3.524h-5.9a7.682,7.682,0,0,1-.772-.026.974.974,0,0,1-.469-.13.526.526,0,0,1-.248-.233.642.642,0,0,1-.055-.389v-1.814H404.3v2.047a3.289,3.289,0,0,0,.138.907,1.317,1.317,0,0,0,.469.622,2.139,2.139,0,0,0,.882.337,5.941,5.941,0,0,0,1.351.1h8.216l-.028-4.949Z" transform="translate(-315.904 -186.238)" fill="#EFECE2"/>
    <path id="Path_47698" data-name="Path 47698" d="M461.372,215.77h-1.351c-.055,0-.11-.026-.165-.026H457.9a4.835,4.835,0,0,0,.551-.492,6.611,6.611,0,0,0,.386-.544,2.384,2.384,0,0,0,.248-.544,1.426,1.426,0,0,0,.083-.492,1.173,1.173,0,0,0-.165-.622,1.8,1.8,0,0,0-.469-.544,2.144,2.144,0,0,0-.772-.389,3.218,3.218,0,0,0-1.1-.13,3.884,3.884,0,0,0-1.351.233,2.508,2.508,0,0,0-1.048.648c-.055.078-.138.155-.193.233a1.908,1.908,0,0,0-.193.311c-.055.1-.11.233-.165.337-.028.1-.083.233-.11.337l1.379,1.607a4.79,4.79,0,0,1-.607.052c-.221,0-.414.026-.607.026l-1.158-.026h-.165a1.479,1.479,0,0,1-.358-.052,1.052,1.052,0,0,1-.3-.13,1.028,1.028,0,0,1-.221-.259,1.017,1.017,0,0,1-.083-.415v-2.643h-1.792V216.7a3.936,3.936,0,0,1-.055.8.892.892,0,0,1-.221.492,1.167,1.167,0,0,1-.386.233,1.47,1.47,0,0,1-.579.052H448v1.5h.414a6.006,6.006,0,0,0,1.351-.155,2.054,2.054,0,0,0,.937-.518,2.1,2.1,0,0,0,.551-.907,6.064,6.064,0,0,0,.165-1.4,1.751,1.751,0,0,0,.248.207,1.322,1.322,0,0,0,.276.13c.083.026.165.026.276.052h1.627a6.2,6.2,0,0,0,1.213-.13c.414-.1.8-.207,1.186-.337a2.808,2.808,0,0,0,.386.207,2.539,2.539,0,0,0,.414.13l.414.078c.138,0,.248.026.386.026h1.765a.37.37,0,0,0,.165.026h3.391v-8.4h-1.792Zm-4.081-1.529c-.055.13-.11.233-.165.363a3.8,3.8,0,0,1-.248.337,2.885,2.885,0,0,1-.331.259l-.331-.311c-.11-.13-.221-.259-.331-.415a4.348,4.348,0,0,1-.331-.415,4.483,4.483,0,0,0-.3-.363,1.883,1.883,0,0,1,.524-.233,2.7,2.7,0,0,1,.8-.1h0a.927.927,0,0,1,.386.052,1.141,1.141,0,0,1,.248.13.412.412,0,0,1,.11.181.417.417,0,0,1,.028.181A1.241,1.241,0,0,1,457.292,214.242Z" transform="translate(-347.555 -176.384)" fill="#EFECE2"/>
    <rect id="Rectangle_1026" data-name="Rectangle 1026" width="1.792" height="8.396" transform="translate(117.237 32.39)" fill="#EFECE2"/>
    <path id="Path_47699" data-name="Path 47699" d="M535.8,209.329h0a.587.587,0,0,0,.083.311.477.477,0,0,0,.193.259.914.914,0,0,0,.607.207.885.885,0,0,0,.607-.233.934.934,0,0,0,.193-.259.81.81,0,0,0,0-.622.934.934,0,0,0-.193-.259.885.885,0,0,0-.607-.233,1.465,1.465,0,0,0-.331.052A.85.85,0,0,0,535.8,209.329Z" transform="translate(-411.147 -176.162)" fill="#EFECE2"/>
    <path id="Path_47700" data-name="Path 47700" d="M544.424,210.036a.914.914,0,0,0,1.158-.441.81.81,0,0,0,0-.622.932.932,0,0,0-.193-.259,1.676,1.676,0,0,0-.276-.181,1.048,1.048,0,0,0-.689,0,.631.631,0,0,0-.276.181.932.932,0,0,0-.193.259.622.622,0,0,0-.055.311h0a.779.779,0,0,0,.248.57A.506.506,0,0,0,544.424,210.036Z" transform="translate(-417.013 -176.143)" fill="#EFECE2"/>
    <path id="Path_47701" data-name="Path 47701" d="M566.582,211a1.464,1.464,0,0,0-.331.052.791.791,0,0,0-.551.751h0a.656.656,0,0,0,.083.311.594.594,0,0,0,.193.259,1.15,1.15,0,0,0,.3.181,1.082,1.082,0,0,0,.662,0,.766.766,0,0,0,.469-.441.81.81,0,0,0,0-.622.933.933,0,0,0-.193-.259A1.007,1.007,0,0,0,566.582,211Z" transform="translate(-432.803 -178.014)" fill="#EFECE2"/>
    <path id="Path_47702" data-name="Path 47702" d="M601.289,245.189a.745.745,0,0,0-.276-.155,1.048,1.048,0,0,0-.689,0,.772.772,0,0,0-.469.415.622.622,0,0,0-.055.311h0a.779.779,0,0,0,.248.57.992.992,0,0,0,.276.181.914.914,0,0,0,1.158-.44.81.81,0,0,0,0-.622A1.567,1.567,0,0,0,601.289,245.189Z" transform="translate(-457.5 -203.185)" fill="#EFECE2"/>
    <path id="Path_47703" data-name="Path 47703" d="M593.289,245.233a.885.885,0,0,0-.607-.233,1.465,1.465,0,0,0-.331.052.784.784,0,0,0-.551.726h0a.811.811,0,0,0,.276.57.915.915,0,0,0,.607.207.885.885,0,0,0,.607-.233.931.931,0,0,0,.193-.259.81.81,0,0,0,0-.622A1.155,1.155,0,0,0,593.289,245.233Z" transform="translate(-451.706 -203.204)" fill="#EFECE2"/>
    <path id="Path_47704" data-name="Path 47704" d="M571.373,220.57a2.472,2.472,0,0,0-.937-.6,3.035,3.035,0,0,0-1.268-.207,4.037,4.037,0,0,0-1.572.311,4.861,4.861,0,0,0-1.323.829,5.449,5.449,0,0,0-1.048,1.192,9.268,9.268,0,0,0-.772,1.451h0a.81.81,0,0,0-.248.026.8.8,0,0,1-.744-.881v-2.1h-1.737v2.358a.461.461,0,0,1-.248.492,1.533,1.533,0,0,1-.331.078H559.3a6.409,6.409,0,0,0-.248-1.451,3.213,3.213,0,0,0-.662-1.192,3.011,3.011,0,0,0-1.158-.829,5.063,5.063,0,0,0-2.316-.285c-.193.026-.358.052-.551.078s-.331.078-.5.1a2.133,2.133,0,0,0-.386.1V221.5a3.383,3.383,0,0,1,.5-.1c.165-.026.331-.052.469-.078s.276-.026.386-.052h.276a4.048,4.048,0,0,1,1.1.155,1.872,1.872,0,0,1,.717.466,1.936,1.936,0,0,1,.414.726,5.72,5.72,0,0,1,.165.907h-4.853a4.372,4.372,0,0,1-.579-.052.88.88,0,0,1-.358-.155.477.477,0,0,1-.193-.259.642.642,0,0,1-.055-.389v-2.643h-1.792v2.8a.778.778,0,0,1-.055.363,1.033,1.033,0,0,1-.138.233.507.507,0,0,1-.276.1c-.138,0-.276.026-.386.026h-2.95c-.055,0-.11-.026-.165-.026h-.882v-1.114a4.733,4.733,0,0,0-.055-.622,2.137,2.137,0,0,0-.165-.6,2.4,2.4,0,0,0-.331-.57,2.062,2.062,0,0,0-.5-.466,3.265,3.265,0,0,0-.689-.311,3.672,3.672,0,0,0-.91-.13,2.678,2.678,0,0,0-2.592,1.658,2.837,2.837,0,0,0-.193.959v.285c0,.13.028.233.028.337a1.229,1.229,0,0,0,.055.311c.028.1.055.181.083.259l-1.213-.026h-.689a.531.531,0,0,1-.358-.1.508.508,0,0,1-.083-.389V219.3h-2.344a4.156,4.156,0,0,0-.993.13,2.449,2.449,0,0,0-.91.441,2.289,2.289,0,0,0-.965,1.918,2.6,2.6,0,0,0,.138.8,2.56,2.56,0,0,0,.331.6,1.87,1.87,0,0,0,.5.415,2.649,2.649,0,0,0,.552.259,4.645,4.645,0,0,0,.579.13,3.364,3.364,0,0,0,.524.026,3.183,3.183,0,0,0,.5-.026,1.652,1.652,0,0,0,.5-.078,1.341,1.341,0,0,0,.3.492,1.445,1.445,0,0,0,.469.311,2.1,2.1,0,0,0,.579.155,5.72,5.72,0,0,0,.634.052h7.941c.055,0,.11.026.165.026h3.364c.193,0,.358-.026.551-.026a2.024,2.024,0,0,0,.551-.078,3.825,3.825,0,0,0,.5-.181.952.952,0,0,0,.386-.337,1.3,1.3,0,0,0,.331.337,1.045,1.045,0,0,0,.386.181,2.415,2.415,0,0,0,.414.1c.11,0,.193.026.3.026h8.079a8.245,8.245,0,0,0,.827-.026,2.884,2.884,0,0,0,.662-.078,2.29,2.29,0,0,0,.551-.181,1.735,1.735,0,0,0,.414-.337,1.162,1.162,0,0,0,.276.233,3.083,3.083,0,0,0,.414.207,3.864,3.864,0,0,0,.524.13,2.738,2.738,0,0,0,.634.052h7.224v-2.228a3.113,3.113,0,0,0-.193-1.244A1.7,1.7,0,0,0,571.373,220.57Zm-36.257,2.073h-.358a1.362,1.362,0,0,1-.469-.078,1.225,1.225,0,0,1-.3-.207.931.931,0,0,1-.138-.285c-.028-.1-.028-.207-.055-.311h0a.778.778,0,0,1,.055-.363.749.749,0,0,1,.193-.311.707.707,0,0,1,.331-.207,1.32,1.32,0,0,1,.441-.078h.689v1.814h0A1.935,1.935,0,0,0,535.116,222.643Zm7.941.907h-.8a1.32,1.32,0,0,1-.441-.078,1.054,1.054,0,0,1-.358-.233,1.184,1.184,0,0,1-.248-.389,1.906,1.906,0,0,1-.083-.57h0a1.886,1.886,0,0,1,.055-.389.783.783,0,0,1,.165-.337.854.854,0,0,1,.3-.233.953.953,0,0,1,.469-.1.737.737,0,0,1,.469.1.566.566,0,0,1,.276.285,1.851,1.851,0,0,1,.138.415c0,.155.028.311.028.466v1.062Zm27.3,0h-4.136a6.2,6.2,0,0,1,.551-.907,5.649,5.649,0,0,1,.634-.726,2.806,2.806,0,0,1,.744-.492,1.83,1.83,0,0,1,.827-.181,1.457,1.457,0,0,1,.662.155.884.884,0,0,1,.414.415,2.061,2.061,0,0,1,.221.57,4.733,4.733,0,0,1,.055.622v.544Z" transform="translate(-408.394 -184.163)" fill="#EFECE2"/>
  </g>
</svg>
