<svg xmlns="http://www.w3.org/2000/svg" width="207.965" height="229.165" viewBox="0 0 207.965 229.165">
  <g id="Group_5647" data-name="Group 5647" transform="translate(0)">
    <g id="Group_5509" data-name="Group 5509" transform="translate(21.961 73.851)">
      <g id="Group_5508" data-name="Group 5508" transform="translate(0 0)">
        <path id="Path_14974" data-name="Path 14974" d="M807.424,208.264c.036-1.661.051-3.315-.029-4.991a29.93,29.93,0,0,0-.714-5.129,20.267,20.267,0,0,0-.736-2.514,8.984,8.984,0,0,0-5.7-5.551,9.427,9.427,0,0,0-2.7-.459c-.925,0-1.726.044-2.594.073-1.7.073-3.4.095-5.1.124s-3.4.022-5.1-.036a25.238,25.238,0,0,1-5.071-.5,12.2,12.2,0,0,0,2.477.714c.845.16,1.69.306,2.543.415,1.7.211,3.424.35,5.136.423s3.424.087,5.143.087c.838.007,1.749-.044,2.528-.022a8.261,8.261,0,0,1,6.164,3.082,7.842,7.842,0,0,1,1.2,2.055c.306.772.583,1.559.823,2.361a61.172,61.172,0,0,1,1.705,9.865c-5.042-.6-14.965-1.362-30.294-.736-.4-6.062-.677-10.44-.823-11.949-.634-6.484,4.91-7.1,4.91-7.1l27.86-2.419c-1.4,2.076-1.231,3.424-.729,4.546a3.719,3.719,0,0,1-.058,2.528c-1.625,2.186-.729,3.927-.328,4.211s.386,1.734.386,1.734c-1.122,2.812.452,3.708,1.625,4.546a1.222,1.222,0,0,0,.911.211l.51,5.02S810.083,208.585,807.424,208.264Z" transform="translate(-776.235 -186.058)" fill="#efece2"/>
      </g>
    </g>
    <g id="Group_5511" data-name="Group 5511" transform="translate(108.915)">
      <g id="Group_5510" data-name="Group 5510">
        <path id="Path_14975" data-name="Path 14975" d="M895.906,97s.449-4.34,4.041-3.143,8.529-.118,10.625-.208c0,0,1.346,5,2.394,5s.9,12.121-4.49,13.169a6.849,6.849,0,0,1-3.562-1.444,2.874,2.874,0,0,0-2.809-.78,4.494,4.494,0,0,0-3.281,3.421s2.618,12.495,12.121.673c0,0,2.1-2.544,3.517-8.081,0,0-.524-7.034,2.918-7.931,0,0,1.347-.075,1.272,1.5,0,0,.757-.81.276-7.872a5.146,5.146,0,0,0-3.224-4.435c-1.759-.7-3.756-1.518-4.31-1.835-1.047-.6-10.625-.674-13.767,2.02S895.906,97,895.906,97Z" transform="translate(-895.585 -84.692)" fill="#efece2"/>
      </g>
    </g>
    <g id="Group_5513" data-name="Group 5513" transform="translate(112.154 28.325)">
      <g id="Group_5512" data-name="Group 5512">
        <path id="Path_14976" data-name="Path 14976" d="M900.031,123.57" transform="translate(-900.031 -123.57)" fill="#efece2"/>
      </g>
    </g>
    <g id="Group_5515" data-name="Group 5515" transform="translate(108.822 12.313)">
      <g id="Group_5514" data-name="Group 5514">
        <path id="Path_14977" data-name="Path 14977" d="M895.871,101.592l.1,4.127c.025.685.038,1.369.092,2.046a7.146,7.146,0,0,0,.3,1.915,24.6,24.6,0,0,1,1.429,3.9c.393,1.323.732,2.662,1,4.02-.5-1.289-.989-2.575-1.457-3.866a38.639,38.639,0,0,0-1.533-3.794,7.076,7.076,0,0,1-.327-2.146c-.022-.7-.022-1.389.011-2.081A37.185,37.185,0,0,1,895.871,101.592Z" transform="translate(-895.457 -101.592)" fill="#efece2"/>
      </g>
    </g>
    <g id="Group_5517" data-name="Group 5517" transform="translate(109.891 17.201)">
      <g id="Group_5516" data-name="Group 5516" transform="translate(0 0)">
        <path id="Path_14978" data-name="Path 14978" d="M896.924,109.118a3.34,3.34,0,0,1,1.174-.624,4.2,4.2,0,0,1,1.335-.193,3.407,3.407,0,0,1,1.331.306,2.589,2.589,0,0,1,1.042.848,8.446,8.446,0,0,0-1.2-.388,6.068,6.068,0,0,0-1.189-.143A15.942,15.942,0,0,0,896.924,109.118Z" transform="translate(-896.924 -108.301)" fill="#efece2"/>
      </g>
    </g>
    <g id="Group_5519" data-name="Group 5519" transform="translate(117.522 16.901)">
      <g id="Group_5518" data-name="Group 5518">
        <path id="Path_14979" data-name="Path 14979" d="M907.4,108.92a3.62,3.62,0,0,1,1.355-.778,4.764,4.764,0,0,1,1.562-.253,4.571,4.571,0,0,1,2.92,1.031c-.516-.1-.991-.227-1.478-.293a8.938,8.938,0,0,0-1.443-.115A10.826,10.826,0,0,0,907.4,108.92Z" transform="translate(-907.399 -107.889)" fill="#efece2"/>
      </g>
    </g>
    <g id="Group_5522" data-name="Group 5522" transform="translate(111.681 18.991)">
      <g id="Group_5521" data-name="Group 5521" transform="translate(0)">
        <g id="Group_5520" data-name="Group 5520">
          <path id="Path_14980" data-name="Path 14980" d="M900.284,112.628a.936.936,0,0,0,0-1.87.936.936,0,0,0,0,1.87Z" transform="translate(-899.381 -110.758)" fill="#efece2"/>
        </g>
      </g>
    </g>
    <g id="Group_5525" data-name="Group 5525" transform="translate(118.19 18.879)">
      <g id="Group_5524" data-name="Group 5524" transform="translate(0 0)">
        <g id="Group_5523" data-name="Group 5523">
          <path id="Path_14981" data-name="Path 14981" d="M909.219,112.474a.936.936,0,0,0,0-1.87.936.936,0,0,0,0,1.87Z" transform="translate(-908.316 -110.604)" fill="#efece2"/>
        </g>
      </g>
    </g>
    <g id="Group_5527" data-name="Group 5527" transform="translate(113.594 23.125)">
      <g id="Group_5526" data-name="Group 5526" transform="translate(0 0)">
        <path id="Path_14982" data-name="Path 14982" d="M902.007,116.432a4.085,4.085,0,0,0,1.865,1.115,1.953,1.953,0,0,0,1-.089c.176-.041.338-.141.522-.2.174-.085.344-.184.543-.262a3.758,3.758,0,0,1-.361.509,2.617,2.617,0,0,1-.5.4,1.862,1.862,0,0,1-1.307.262,2.1,2.1,0,0,1-1.155-.639A2.343,2.343,0,0,1,902.007,116.432Z" transform="translate(-902.007 -116.432)" fill="#efece2"/>
      </g>
    </g>
    <g id="Group_5529" data-name="Group 5529" transform="translate(72.217 92.426)">
      <g id="Group_5528" data-name="Group 5528" transform="translate(0)">
        <path id="Path_14983" data-name="Path 14983" d="M881.926,214.077a.067.067,0,0,1-.058.08l-5.143.969h-.059c-2.739-.342-5.493-.634-8.247-.933s-5.508-.561-8.262-.794-5.515-.408-8.262-.539a58.452,58.452,0,0,0-6.491.014,2.656,2.656,0,0,0-.19-1.268,62.844,62.844,0,0,1,6.739.1c2.776.168,5.537.437,8.3.75,5.5.626,10.98,1.377,16.444,2.295l5.15-.736A.065.065,0,0,1,881.926,214.077Z" transform="translate(-845.214 -211.553)" fill="#efece2"/>
      </g>
    </g>
    <g id="Group_5531" data-name="Group 5531" transform="translate(51.26 28.466)">
      <g id="Group_5530" data-name="Group 5530">
        <path id="Path_14984" data-name="Path 14984" d="M906.481,154.782c.138.6.277,1.2.408,1.8-.342.029-.707.044-1.078.051-.269-1.085-.539-2.164-.8-3.249l-3.417-14.418c-1.086-4.6-2.069-9.231-3.082-13.85l-21.39,5.748L866.14,133.9l-10.95,3.14a.213.213,0,0,1-.072.015c-3.162,0-6.332.058-9.5.087l-9.5.124c-6.025.087-12.035.124-18.061.175,3.038,8.327,6.134,16.633,9.129,24.975l.066.19c-.481.124-.984.248-1.494.371l-.014-.036c-3.133-8.626-6.164-17.289-9.253-25.922v-.007a.659.659,0,0,1,.393-.845.812.812,0,0,1,.226-.036c6.339.058,12.67.087,19.008.189l9.5.117c3.155.029,6.317.087,9.464.095l10.943-3.06,10.943-3.169,21.835-6.513a.6.6,0,0,1,.743.4l.008.036v.015l6.55,28.88C906.233,153.674,906.357,154.228,906.481,154.782Z" transform="translate(-816.449 -123.764)" fill="#efece2"/>
      </g>
    </g>
    <g id="Group_5533" data-name="Group 5533" transform="translate(145.619 80.008)">
      <g id="Group_5532" data-name="Group 5532">
        <path id="Path_14985" data-name="Path 14985" d="M948.252,201.087a.064.064,0,0,1-.015.08.07.07,0,0,1-.1,0c-.007-.007-.015-.022-.022-.029-.816-2.171-1.508-4.386-2.149-6.615.168,0,.328-.007.488-.015.547,2.2,1.137,4.393,1.793,6.557C948.245,201.072,948.252,201.08,948.252,201.087Z" transform="translate(-945.964 -194.508)" fill="#efece2"/>
      </g>
    </g>
    <g id="Group_5535" data-name="Group 5535" transform="translate(0 81.858)">
      <g id="Group_5534" data-name="Group 5534" transform="translate(0 0)">
        <path id="Path_14986" data-name="Path 14986" d="M809.82,212.893c-4.013-.554-8.032-1.057-12.068-1.376-4.033-.355-8.076-.562-12.121-.665s-8.091-.1-12.133,0-8.09.315-12.09.713l.065-.01a21.437,21.437,0,0,0-6.784,2.8,16.171,16.171,0,0,0-2.785,2.34,15.59,15.59,0,0,0-2.133,2.93,18.453,18.453,0,0,0-2.112,6.948,23.913,23.913,0,0,0,.331,7.3v0l.012.068a40.776,40.776,0,0,0,3.517,10.18c1.538,3.3,3.265,6.532,5.068,9.717,3.614,6.37,7.552,12.562,11.569,18.7s8.164,12.2,12.4,18.2l6.4,8.961,1.615,2.23.808,1.105a4.841,4.841,0,0,0,.83.865,4.78,4.78,0,0,0,2.165,1,7.828,7.828,0,0,0,1.27.1l1.374.038c3.664.087,7.331.11,10.984-.03q1.369-.051,2.733-.149c.458-.032.917-.067,1.3-.133a4.4,4.4,0,0,0,1.145-.409A4.337,4.337,0,0,0,813.5,300.3a4.671,4.671,0,0,0-.222-1.214l-.436-1.307-.873-2.614-1.748-5.228-3.508-10.452c-4.736-13.916-9.416-27.853-14.239-41.738a.313.313,0,0,1,.318-.415h.006c5.25.406,10.524.638,15.792.75,5.271.091,10.544.035,15.8-.224a129.774,129.774,0,0,0,15.679-1.63,57.009,57.009,0,0,0,7.627-1.8,25.209,25.209,0,0,0,6.965-3.262.617.617,0,0,1,.974.477l1.012,21.848.252,5.433.3,5.455c.208,3.638.384,7.273.65,10.9l.733,10.9c.131,1.815.224,3.636.387,5.446l.553,5.416.276,2.707.069.677c.028.217.064.392.1.589a5.444,5.444,0,0,0,3.856,4,6.135,6.135,0,0,0,1.173.191l1.363.106,2.724.211,5.449.422,5.449.422,2.724.211.34.026.277,0a3.785,3.785,0,0,0,.545-.03,3.842,3.842,0,0,0,1.045-.3,3.943,3.943,0,0,0,2.35-3.407c.011-.326-.019-.82-.041-1.269l-.068-1.365-.137-2.729-1.1-21.836c-.722-14.558-1.49-29.114-2.145-43.675a.879.879,0,0,1,.839-.918c.03,0,.06,0,.09,0h.02a21.3,21.3,0,0,0,6.582-.7,16.747,16.747,0,0,0,5.923-2.857,14.35,14.35,0,0,0,4.082-5.09,20.111,20.111,0,0,0,1.748-6.422l.021.267a27.4,27.4,0,0,0-11.2-15.092c-.7-.375-1.39-.8-2.106-1.137a15.34,15.34,0,0,0-2.224-.836,25.81,25.81,0,0,0-4.729-.909,42.547,42.547,0,0,0-9.72.192,43.5,43.5,0,0,0-9.476,2.259,24.063,24.063,0,0,0-4.373,2.085,11.948,11.948,0,0,0-1.9,1.453,6.031,6.031,0,0,0-1.4,1.861,4.361,4.361,0,0,0-.35,1.1l-.184,1.211c-.1.81-.208,1.623-.278,2.439-.155,1.631-.256,3.269-.315,4.909q-.181,4.92,0,9.852a.093.093,0,0,1-.186.009q-.282-4.93-.209-9.873c.024-1.647.09-3.294.21-4.94.053-.823.141-1.645.228-2.467l.16-1.231a5,5,0,0,1,.37-1.255,6.674,6.674,0,0,1,1.5-2.085,12.636,12.636,0,0,1,1.976-1.58,24.745,24.745,0,0,1,4.468-2.251,46.315,46.315,0,0,1,19.6-2.8,27.013,27.013,0,0,1,4.957.879,16.7,16.7,0,0,1,2.4.863c.779.35,1.5.782,2.25,1.172a26.351,26.351,0,0,1,7.415,6.8,30.36,30.36,0,0,1,4.582,8.99.6.6,0,0,1,.024.234l0,.034a21.624,21.624,0,0,1-1.83,6.94,15.972,15.972,0,0,1-4.488,5.7,18.4,18.4,0,0,1-6.481,3.206,22.863,22.863,0,0,1-7.176.815l.948-.916c.835,14.552,1.556,29.11,2.325,43.666L889,297.411l.143,2.729.071,1.365c.021.46.059.876.045,1.462a5.861,5.861,0,0,1-3.545,5.124,5.653,5.653,0,0,1-2.4.478l-.407-.012-.341-.028-2.724-.225-5.449-.45-5.449-.45-2.724-.224-1.362-.112a8.084,8.084,0,0,1-1.517-.259,7.28,7.28,0,0,1-5.142-5.4c-.05-.25-.1-.524-.128-.758l-.067-.683-.264-2.731-.53-5.462c-.155-1.819-.238-3.64-.361-5.46l-.679-10.92c-.253-3.638-.371-7.286-.546-10.925l-.244-5.464-.194-5.49-.772-21.844.973.477a26.308,26.308,0,0,1-7.345,3.356,58.107,58.107,0,0,1-7.789,1.754,130.063,130.063,0,0,1-15.817,1.461c-5.287.2-10.575.184-15.857.049s-10.558-.389-15.831-.82l.324-.414c4.7,13.929,9.529,27.812,14.334,41.7l3.631,10.41,1.824,5.2.911,2.6.456,1.3a5.718,5.718,0,0,1,.294,1.483,5.4,5.4,0,0,1-2.825,5.05,5.535,5.535,0,0,1-1.435.533c-.522.1-.979.132-1.437.173q-1.384.118-2.768.19c-3.691.193-7.376.221-11.062.185l-1.381-.018a9.111,9.111,0,0,1-1.476-.1,6.179,6.179,0,0,1-2.806-1.247,6.3,6.3,0,0,1-1.089-1.1l-.834-1.108-1.649-2.212c-2.2-2.948-4.349-5.935-6.486-8.929q-6.4-8.99-12.51-18.191c-4.047-6.15-7.931-12.414-11.548-18.844-1.8-3.22-3.526-6.487-5.071-9.856a42.011,42.011,0,0,1-3.582-10.62l.013.071a25.231,25.231,0,0,1-.319-7.8,19.3,19.3,0,0,1,2.354-7.448,16.922,16.922,0,0,1,2.364-3.157,17.461,17.461,0,0,1,3.045-2.49,22.611,22.611,0,0,1,7.207-2.873l.012,0,.054-.008c4.072-.35,8.124-.5,12.189-.555s8.124.007,12.179.211,8.106.484,12.14.925c4.04.394,8.052,1.02,12.051,1.685a.094.094,0,0,1,.078.108A.1.1,0,0,1,809.82,212.893Z" transform="translate(-746.091 -197.048)" fill="#efece2"/>
      </g>
    </g>
    <g id="Group_5537" data-name="Group 5537" transform="translate(28.127 109.583)">
      <g id="Group_5536" data-name="Group 5536" transform="translate(0 0)">
        <path id="Path_14987" data-name="Path 14987" d="M784.7,235.1l4.428,3.6c1.483,1.185,2.954,2.38,4.46,3.529s3.026,2.271,4.6,3.32a24.946,24.946,0,0,0,2.432,1.438,9.129,9.129,0,0,0,2.641.986,12.516,12.516,0,0,1-5.367-1.947,44.147,44.147,0,0,1-4.745-3.221c-1.508-1.172-2.976-2.39-4.38-3.682S785.981,236.515,784.7,235.1Z" transform="translate(-784.698 -235.102)" fill="#efece2"/>
      </g>
    </g>
    <g id="Group_5539" data-name="Group 5539" transform="translate(73.321 97.911)">
      <g id="Group_5538" data-name="Group 5538" transform="translate(0 0)">
        <path id="Path_14988" data-name="Path 14988" d="M846.729,219.081a58.878,58.878,0,0,1,10.1,2.017,67.134,67.134,0,0,1,9.664,3.63,51.233,51.233,0,0,1,8.793,5.423,35.852,35.852,0,0,1,7.062,7.486,42.758,42.758,0,0,0-3.507-3.74l-.927-.88a8.632,8.632,0,0,0-.962-.84l-2.007-1.581a55.388,55.388,0,0,0-8.767-5.212,75.079,75.079,0,0,0-9.511-3.751q-2.436-.794-4.925-1.42C850.087,219.763,848.413,219.4,846.729,219.081Z" transform="translate(-846.729 -219.081)" fill="#efece2"/>
      </g>
    </g>
    <g id="Group_5541" data-name="Group 5541" transform="translate(126.595 103.298)">
      <g id="Group_5540" data-name="Group 5540" transform="translate(0 0)">
        <path id="Path_14989" data-name="Path 14989" d="M919.852,226.475a6.121,6.121,0,0,1,2.263.618,12.726,12.726,0,0,1,2.007,1.254,17.716,17.716,0,0,1,3.309,3.356c.492.614.906,1.282,1.356,1.923.388.681.815,1.338,1.165,2.036s.7,1.4,1.019,2.106c.284.728.59,1.443.852,2.175-.8-1.34-1.544-2.692-2.358-4L928.211,234c-.458-.615-.868-1.266-1.355-1.856a23.614,23.614,0,0,0-3.086-3.37,12.728,12.728,0,0,0-1.823-1.374A6.97,6.97,0,0,0,919.852,226.475Z" transform="translate(-919.852 -226.475)" fill="#efece2"/>
      </g>
    </g>
    <g id="Group_5543" data-name="Group 5543" transform="translate(89.932 41.494)">
      <g id="Group_5542" data-name="Group 5542" transform="translate(0)">
        <path id="Path_14990" data-name="Path 14990" d="M869.529,141.645q2.13,6.686,3.99,13.441c1.261,4.5,2.438,9.017,3.6,13.54,1.135,4.53,2.252,9.065,3.287,13.62q1.583,6.826,2.89,13.72-2.132-6.686-3.992-13.441c-1.26-4.5-2.437-9.017-3.6-13.541-1.133-4.531-2.25-9.065-3.285-13.62Q870.84,148.539,869.529,141.645Z" transform="translate(-869.529 -141.645)" fill="#efece2"/>
      </g>
    </g>
    <g id="Group_5545" data-name="Group 5545" transform="translate(52.789 67.649)">
      <g id="Group_5544" data-name="Group 5544">
        <path id="Path_14991" data-name="Path 14991" d="M838.2,203.646a2.923,2.923,0,0,1-2,2.416,4.44,4.44,0,0,1-1.1.149,13.418,13.418,0,0,1-4.254-.777,18.187,18.187,0,0,1-3.924-1.8A10.594,10.594,0,0,1,825.2,202.3a4.386,4.386,0,0,1-.7-.859,1.945,1.945,0,0,1-.333-1.087l.228.093a4.194,4.194,0,0,1-1.888,1.15,1.4,1.4,0,0,1-1.115-.2c-.3-.207-.6-.407-.886-.639a3.021,3.021,0,0,1-1.189-1.858,4.569,4.569,0,0,1,.317-2.207l-.014.068a3.814,3.814,0,0,0-.262-1.453.292.292,0,0,0-.065-.079,1.281,1.281,0,0,1-.181-.173,2,2,0,0,1-.253-.383,2.915,2.915,0,0,1-.266-.832,3.548,3.548,0,0,1,.141-1.705,5.489,5.489,0,0,1,.776-1.5l-.038.068a3.829,3.829,0,0,0,.207-1.675,2.345,2.345,0,0,0-.087-.4c-.041-.121-.094-.242-.165-.4a4.155,4.155,0,0,1-.266-.968,4.108,4.108,0,0,1,.223-1.981,7.608,7.608,0,0,1,.9-1.714.306.306,0,0,1,.052-.058l.005-.005a2.4,2.4,0,0,0,.32-.37,2.018,2.018,0,0,0,.234-.438,1.56,1.56,0,0,0,.058-.954l.012.033a4.659,4.659,0,0,1-.367-2.121,1.191,1.191,0,0,1,.234-.576,1.029,1.029,0,0,1,.519-.342c.337-.117.663-.2.994-.291,1.318-.35,2.647-.623,3.977-.9a.031.031,0,0,1,.015.061l-3.888,1.2c-.319.106-.643.212-.942.337a.579.579,0,0,0-.308.219.776.776,0,0,0-.123.364,4.228,4.228,0,0,0,.4,1.837l.012.033a2.153,2.153,0,0,1-.03,1.306,2.615,2.615,0,0,1-.286.584,2.565,2.565,0,0,1-.426.5l.056-.063a4.729,4.729,0,0,0-.99,3.248,3.7,3.7,0,0,0,.231.817c.05.122.119.286.174.459a3,3,0,0,1,.1.512,4.419,4.419,0,0,1-.283,1.974A.243.243,0,0,1,820,191l0,.006a3.859,3.859,0,0,0-.884,2.763,2.408,2.408,0,0,0,.192.694,1.553,1.553,0,0,0,.176.29.646.646,0,0,0,.1.107.766.766,0,0,1,.184.229,4.05,4.05,0,0,1,.235,1.682.164.164,0,0,1-.014.069,4.18,4.18,0,0,0-.4,2.028,2.621,2.621,0,0,0,1.05,1.732c.566.407,1.122,1.038,1.823.8a3.856,3.856,0,0,0,1.74-1.13.134.134,0,0,1,.188,0,.137.137,0,0,1,.04.089v.008a2.6,2.6,0,0,0,1.033,1.657,10.106,10.106,0,0,0,1.715,1.184,23.4,23.4,0,0,0,3.834,1.73,14.992,14.992,0,0,0,4.084.889,2.812,2.812,0,0,0,1.919-.509,2.455,2.455,0,0,0,1.116-1.671.032.032,0,0,1,.035-.027A.033.033,0,0,1,838.2,203.646Z" transform="translate(-818.548 -177.545)" fill="#efece2"/>
      </g>
    </g>
    <g id="Group_5547" data-name="Group 5547" transform="translate(62.031 66.135)">
      <g id="Group_5546" data-name="Group 5546" transform="translate(0 0)">
        <path id="Path_14992" data-name="Path 14992" d="M841.39,201.823l-.169-.312a.053.053,0,0,1,.021-.073l.018-.007h.007c.288-.04.576-.052.857-.1a3.641,3.641,0,0,0,.8-.261,2.18,2.18,0,0,0,1.165-1.091,3.483,3.483,0,0,0,.292-1.6,5.946,5.946,0,0,0-.273-1.643.259.259,0,0,1,.227-.339,4.821,4.821,0,0,0,1.978-.554,2.505,2.505,0,0,0,1.243-1.477,2.1,2.1,0,0,0,.085-.97,1.608,1.608,0,0,0-.473-.833,7.835,7.835,0,0,0-1.693-1.3l-.008,0a.122.122,0,0,1,.058-.227,2.63,2.63,0,0,0,2.11-1.115,3.7,3.7,0,0,0,.526-2.4,2.075,2.075,0,0,0-.15-.58c-.044-.085-.09-.144-.12-.138a1.828,1.828,0,0,1-.336-.135c-.393-.208-.755-.44-1.118-.675-.725-.472-1.429-.966-2.123-1.479a.253.253,0,0,1,.124-.455l.014,0a1.258,1.258,0,0,0,.765-.3A1.2,1.2,0,0,0,845.5,183a4.011,4.011,0,0,0-.076-.949,3.414,3.414,0,0,0-.224-.877c-.122-.216-.338-.3-.684-.457-.311-.146-.623-.289-.931-.446a17.584,17.584,0,0,1-1.805-1.044c-1.131-.782-2.239-1.539-3.413-2.207a12.173,12.173,0,0,0-1.81-.86,5.374,5.374,0,0,0-.941-.267,2.371,2.371,0,0,0-.466-.033.9.9,0,0,0-.363.085l-.065.043a.077.077,0,0,1-.027.012c-1.135.24-2.28.447-3.421.667a.03.03,0,0,1-.037-.024.031.031,0,0,1,.022-.036c1.117-.319,2.232-.652,3.355-.95l-.092.055a1.011,1.011,0,0,1,.593-.235,2.762,2.762,0,0,1,.554,0,5.026,5.026,0,0,1,1.04.23,12.658,12.658,0,0,1,1.92.82,30.516,30.516,0,0,1,3.507,2.163,16.992,16.992,0,0,0,1.747.99l.908.454a1.9,1.9,0,0,1,.943.723,1.7,1.7,0,0,1,.19.581l.09.515a4.588,4.588,0,0,1,.059,1.09,1.706,1.706,0,0,1-.47,1.1,1.776,1.776,0,0,1-1.112.415l.138-.456c.67.528,1.344,1.059,2.029,1.569.344.251.692.5,1.049.714a1.742,1.742,0,0,0,.254.122.483.483,0,0,1,.308.31,2.313,2.313,0,0,1,.142.67,3.994,3.994,0,0,1-.614,2.527,2.889,2.889,0,0,1-2.251,1.255l.049-.232a8.324,8.324,0,0,1,1.85,1.252,2.017,2.017,0,0,1,.64,1.013,2.57,2.57,0,0,1-.031,1.2,3.038,3.038,0,0,1-1.463,1.82,5.047,5.047,0,0,1-2.215.584l.227-.339a6.43,6.43,0,0,1,.258,1.8,3.7,3.7,0,0,1-.426,1.783,2.45,2.45,0,0,1-1.4,1.164,3.915,3.915,0,0,1-.878.2c-.3.022-.593.015-.887.016l.047-.079.136.343a.031.031,0,0,1-.056.026Z" transform="translate(-831.233 -175.467)" fill="#efece2"/>
      </g>
    </g>
    <g id="Group_5549" data-name="Group 5549" transform="translate(60.171 70.936)">
      <g id="Group_5548" data-name="Group 5548" transform="translate(0)">
        <path id="Path_14993" data-name="Path 14993" d="M828.68,182.057l8.151.057a8.072,8.072,0,0,1,3.962,1.159,11.185,11.185,0,0,1,1.646,1.264l1.544,1.327a.312.312,0,1,1-.407.473l-.009-.008-1.492-1.386a10.779,10.779,0,0,0-1.532-1.275,7.68,7.68,0,0,0-3.726-1.243Z" transform="translate(-828.68 -182.057)" fill="#efece2"/>
      </g>
    </g>
    <g id="Group_5551" data-name="Group 5551" transform="translate(58.263 76.44)">
      <g id="Group_5550" data-name="Group 5550">
        <path id="Path_14994" data-name="Path 14994" d="M826.061,190.5l4.9-.524,2.451-.262a9.5,9.5,0,0,1,2.491-.044,8.05,8.05,0,0,1,2.408.707,10.554,10.554,0,0,1,2.094,1.372l3.916,3a.312.312,0,0,1-.379.495l-.007-.006-3.82-3.118a10.1,10.1,0,0,0-1.975-1.389,7.735,7.735,0,0,0-2.281-.748,9.209,9.209,0,0,0-2.425-.031l-2.458.184Z" transform="translate(-826.061 -189.611)" fill="#efece2"/>
      </g>
    </g>
    <g id="Group_5553" data-name="Group 5553" transform="translate(57.87 83.232)">
      <g id="Group_5552" data-name="Group 5552" transform="translate(0 0)">
        <path id="Path_14995" data-name="Path 14995" d="M825.522,200.274,834.655,199a4.924,4.924,0,0,1,3.439.7l.976.613,3.905,2.452a.312.312,0,1,1-.331.528l-.008-.006-3.821-2.583a9.589,9.589,0,0,0-1.933-1.151,4.569,4.569,0,0,0-2.189-.243Z" transform="translate(-825.522 -198.934)" fill="#efece2"/>
      </g>
    </g>
    <g id="Group_5555" data-name="Group 5555" transform="translate(58.543 89.653)">
      <g id="Group_5554" data-name="Group 5554" transform="translate(0 0)">
        <path id="Path_14996" data-name="Path 14996" d="M826.446,208.559l3.491-.414c1.169-.128,2.314-.3,3.5-.392a8.087,8.087,0,0,1,3.513.646c1.087.509,2.105,1.046,3.162,1.568a.312.312,0,1,1-.276.559l-.011-.006,0,0c-1.02-.562-2.052-1.162-3.064-1.692a7.675,7.675,0,0,0-3.313-.761c-1.148.039-2.332.16-3.5.235Z" transform="translate(-826.446 -207.746)" fill="#efece2"/>
      </g>
    </g>
    <g id="Group_5557" data-name="Group 5557" transform="translate(126.581 55.594)">
      <g id="Group_5556" data-name="Group 5556" transform="translate(0)">
        <path id="Path_14997" data-name="Path 14997" d="M934.069,165.333a16.538,16.538,0,0,1,4.072-3.367,6.548,6.548,0,0,1,5.222-.686,4.057,4.057,0,0,1,.636.278,5.283,5.283,0,0,1,.569.391,6.856,6.856,0,0,1,2.4,3.242,7.589,7.589,0,0,1,.421,2.682c0,.227-.019.454-.041.68a3.658,3.658,0,0,0-.01.609,1.753,1.753,0,0,0,.378,1.02l.031.031a3.934,3.934,0,0,1,.855,3.149,6.266,6.266,0,0,1-.445,1.573c-.2.511-.54.949-.459,1.327a2.53,2.53,0,0,0,.238.662,7.614,7.614,0,0,1,.339.732,3.957,3.957,0,0,1,.2,1.645,2.723,2.723,0,0,1-.566,1.588,1.654,1.654,0,0,1-.183.155,1.171,1.171,0,0,0-.129.1.912.912,0,0,0-.2.254,1.113,1.113,0,0,0-.123.634l-.034-.079a2.614,2.614,0,0,1,.543,1.53,2.068,2.068,0,0,1-.687,1.464,2.46,2.46,0,0,1-1.458.662,3.386,3.386,0,0,1-.784-.111c-.245-.034-.5-.047-.753-.057-2.038-.035-4.088.044-6.136.114s-4.1.117-6.151.055a14.676,14.676,0,0,1-3.083-.34,3.322,3.322,0,0,1-1.444-.714,1.135,1.135,0,0,1-.37-.8,1.384,1.384,0,0,1,.267-.842l.115.311a19.857,19.857,0,0,1-2.122-.527,6.222,6.222,0,0,1-2.008-.989,1.725,1.725,0,0,1-.647-1.043,1.686,1.686,0,0,1,.33-1.194A5.341,5.341,0,0,1,924.577,178l.044.515a16.905,16.905,0,0,1-1.641-.634,8.976,8.976,0,0,1-1.544-.89,4.5,4.5,0,0,1-1.243-1.352,2.4,2.4,0,0,1-.264-1.921l-.023.116a.919.919,0,0,1,.459-.726,3.008,3.008,0,0,1,.588-.31,8.455,8.455,0,0,1,1.179-.364A23.645,23.645,0,0,1,924.5,172c1.583-.212,3.165-.347,4.759-.435l.016.644a11.905,11.905,0,0,1-3.575-.544,6.278,6.278,0,0,1-1.661-.815,3.54,3.54,0,0,1-.707-.637,1.839,1.839,0,0,1-.47-.937,1.377,1.377,0,0,1,.356-1.026,2.608,2.608,0,0,1,.764-.607,6.786,6.786,0,0,1,1.712-.651,18.183,18.183,0,0,1,3.54-.481c2.38-.141,4.724.238,7.034-.138a13.311,13.311,0,0,0,6.45-2.516l0,0a.03.03,0,0,1,.043.005.031.031,0,0,1,0,.043,13.11,13.11,0,0,1-6.446,2.777,19.721,19.721,0,0,1-3.547.235c-1.178-.012-2.343-.044-3.507.05a17.79,17.79,0,0,0-3.43.536,6.313,6.313,0,0,0-1.563.627c-.469.268-.859.68-.81,1.077a2.253,2.253,0,0,0,.943,1.134,5.656,5.656,0,0,0,1.5.724,11.278,11.278,0,0,0,3.376.5.322.322,0,0,1,.016.643c-1.569.093-3.145.232-4.7.446-.777.11-1.553.229-2.307.406a7.89,7.89,0,0,0-1.092.326,2.447,2.447,0,0,0-.465.235c-.141.087-.205.2-.2.211a.042.042,0,0,1,0,.035l-.026.081a1.855,1.855,0,0,0,.217,1.4,3.913,3.913,0,0,0,1.067,1.172,8.385,8.385,0,0,0,1.431.842,16.744,16.744,0,0,0,1.57.623.282.282,0,0,1,.175.359.293.293,0,0,1-.131.155,4.86,4.86,0,0,0-1.568,1.271,1.187,1.187,0,0,0-.264.829,1.24,1.24,0,0,0,.465.752,5.821,5.821,0,0,0,1.835.94,19.6,19.6,0,0,0,2.063.555.2.2,0,0,1,.15.236.225.225,0,0,1-.035.076.844.844,0,0,0,.055,1.15,2.942,2.942,0,0,0,1.271.643,14.374,14.374,0,0,0,3.008.372c2.041.09,4.089.071,6.135.029,2.048-.026,4.09-.173,6.149-.145.257.008.516.017.779.052a2.938,2.938,0,0,0,.731.1,2.184,2.184,0,0,0,1.27-.621,1.745,1.745,0,0,0,.556-1.251,2.266,2.266,0,0,0-.507-1.3l0-.006a.162.162,0,0,1-.03-.074,1.47,1.47,0,0,1,.141-.887,1.3,1.3,0,0,1,.274-.366,1.537,1.537,0,0,1,.174-.145,1.472,1.472,0,0,0,.113-.1,2.342,2.342,0,0,0,.413-1.333,3.494,3.494,0,0,0-.2-1.44,7.139,7.139,0,0,1-.627-1.49,1.56,1.56,0,0,1,.157-.9c.118-.261.232-.469.326-.707a5.762,5.762,0,0,0,.4-1.438,3.483,3.483,0,0,0-.736-2.725l.031.031c-.783-.852-.521-1.958-.489-2.738a7.1,7.1,0,0,0-.368-2.506,6.177,6.177,0,0,0-1.27-2.181,6.936,6.936,0,0,0-.931-.873,3.358,3.358,0,0,0-1.073-.631,6.251,6.251,0,0,0-4.953.545,16.374,16.374,0,0,0-4.155,3.163.031.031,0,0,1-.044,0A.031.031,0,0,1,934.069,165.333Z" transform="translate(-919.832 -160.998)" fill="#efece2"/>
      </g>
    </g>
    <g id="Group_5559" data-name="Group 5559" transform="translate(135.699 64.315)">
      <g id="Group_5558" data-name="Group 5558" transform="translate(0 0)">
        <path id="Path_14998" data-name="Path 14998" d="M932.7,174.828a38.169,38.169,0,0,0,6.847.169,18.129,18.129,0,0,0,3.386-.528,7,7,0,0,0,3.054-1.5,7.09,7.09,0,0,1-3.01,1.651,18.459,18.459,0,0,1-3.4.689,38.612,38.612,0,0,1-6.942.141.312.312,0,1,1,.04-.622h.024Z" transform="translate(-932.347 -172.968)" fill="#efece2"/>
      </g>
    </g>
    <g id="Group_5561" data-name="Group 5561" transform="translate(131.138 71.423)">
      <g id="Group_5560" data-name="Group 5560">
        <path id="Path_14999" data-name="Path 14999" d="M926.441,183.837a77.111,77.111,0,0,0,9.291.512,38.186,38.186,0,0,0,4.644-.306,11.83,11.83,0,0,0,4.438-1.318A11.9,11.9,0,0,1,940.4,184.2a38.422,38.422,0,0,1-4.659.464,77.462,77.462,0,0,1-9.366-.2.312.312,0,0,1,.049-.622l.009,0Z" transform="translate(-926.088 -182.725)" fill="#efece2"/>
      </g>
    </g>
    <g id="Group_5563" data-name="Group 5563" transform="translate(133.757 76.511)">
      <g id="Group_5562" data-name="Group 5562" transform="translate(0 0)">
        <path id="Path_15000" data-name="Path 15000" d="M930.015,190.519c2.353.13,4.721.186,7.082.149,1.18-.028,2.362-.067,3.538-.183a10.419,10.419,0,0,0,3.434-.777,10.507,10.507,0,0,1-3.416.932c-1.176.168-2.36.259-3.544.339-2.37.141-4.74.189-7.119.163a.312.312,0,0,1,.007-.624h.018Z" transform="translate(-929.682 -189.709)" fill="#efece2"/>
      </g>
    </g>
    <g id="Group_5565" data-name="Group 5565" transform="translate(129.108 14.413)">
      <g id="Group_5564" data-name="Group 5564" transform="translate(0 0)">
        <path id="Path_15001" data-name="Path 15001" d="M926.248,104.536a16.6,16.6,0,0,1,.241,2.038,11.24,11.24,0,0,1-.077,2.083,5.572,5.572,0,0,1-.7,2.047,2.859,2.859,0,0,1-1.885,1.427l.429-.557a14.554,14.554,0,0,0,.623,2.144,6.239,6.239,0,0,0,.455.952,1.26,1.26,0,0,0,.516.533l-.07-.02c2.777.568,5.555,1.141,8.313,1.794s5.5,1.394,8.25,2.087a166.9,166.9,0,0,0,16.673,3.306l1.043.141.529.071a1.849,1.849,0,0,1,.7.271,4.679,4.679,0,0,1,1.49,1.887,21.445,21.445,0,0,1,1.465,4.123,69.76,69.76,0,0,1,1.576,8.442,98.741,98.741,0,0,1,.65,17.077l0,.033a.47.47,0,0,1-.484.445c-2.881-.1-5.761-.222-8.642-.414a.072.072,0,0,1-.068-.077.073.073,0,0,1,.068-.068c2.881-.192,5.761-.31,8.642-.413l-.487.477c-.129-5.642-.554-11.278-1.217-16.869a78.124,78.124,0,0,0-1.35-8.307,23.678,23.678,0,0,0-1.223-3.932,3.731,3.731,0,0,0-1.013-1.488.881.881,0,0,0-.271-.144c-.153-.038-.348-.071-.519-.107l-1.053-.219-8.3-1.909c-2.769-.613-5.548-1.178-8.343-1.669s-5.593-.968-8.376-1.517-5.543-1.2-8.3-1.856l-.033-.008-.036-.012a2.3,2.3,0,0,1-1.107-1.076,7.256,7.256,0,0,1-.5-1.166,14.377,14.377,0,0,1-.538-2.359.488.488,0,0,1,.411-.554l.018,0a1.62,1.62,0,0,0,.684-.3,2.613,2.613,0,0,0,.613-.619,5.346,5.346,0,0,0,.757-1.721,10.841,10.841,0,0,0,.289-1.96c.041-.668.031-1.341.025-2.02a.072.072,0,0,1,.068-.077A.076.076,0,0,1,926.248,104.536Z" transform="translate(-923.301 -104.475)" fill="#efece2"/>
      </g>
    </g>
    <g id="Group_5567" data-name="Group 5567" transform="translate(76.013 24.58)">
      <g id="Group_5566" data-name="Group 5566" transform="translate(0)">
        <path id="Path_15002" data-name="Path 15002" d="M850.744,135.343a4.287,4.287,0,0,1-.213-2.555,3.394,3.394,0,0,1,.588-1.221,3.845,3.845,0,0,1,1.026-.909c1.526-.863,3.055-1.525,4.606-2.22,3.09-1.374,6.221-2.632,9.326-3.928,1.558-.632,3.113-1.278,4.624-1.966a27.333,27.333,0,0,1,4.842-1.762c3.264-.863,6.543-1.678,9.863-2.353-3.146,1.257-6.334,2.374-9.537,3.443a31.484,31.484,0,0,0-4.576,1.918c-1.542.747-3.1,1.406-4.661,2.065-3.134,1.278-6.289,2.478-9.456,3.633-1.565.594-3.2,1.136-4.684,1.791a2.969,2.969,0,0,0-1.578,1.63A4.436,4.436,0,0,0,850.744,135.343Z" transform="translate(-850.425 -118.43)" fill="#efece2"/>
      </g>
    </g>
    <g id="Group_5569" data-name="Group 5569" transform="translate(153.067 58.848)">
      <g id="Group_5568" data-name="Group 5568" transform="translate(0)">
        <path id="Path_15003" data-name="Path 15003" d="M956.186,165.465a12.374,12.374,0,0,1,4.946,1.372,29.725,29.725,0,0,1,4.444,2.625,42.87,42.87,0,0,1,4,3.247c1.261,1.161,2.466,2.371,3.651,3.61-.68-.522-1.333-1.073-2-1.608s-1.292-1.12-1.966-1.64c-1.321-1.07-2.661-2.117-4.044-3.1a43.863,43.863,0,0,0-4.3-2.707,20.106,20.106,0,0,0-2.294-1.086A9.955,9.955,0,0,0,956.186,165.465Z" transform="translate(-956.186 -165.465)" fill="#efece2"/>
      </g>
    </g>
    <g id="Group_5571" data-name="Group 5571" transform="translate(153.036 64.285)">
      <g id="Group_5570" data-name="Group 5570" transform="translate(0 0)">
        <path id="Path_15004" data-name="Path 15004" d="M956.2,188.508a46.052,46.052,0,0,0,8.1,6.353,11.7,11.7,0,0,0,2.311,1.057,4.561,4.561,0,0,0,2.49.148,6.752,6.752,0,0,0,4.094-2.855,11.015,11.015,0,0,0,1.587-4.773,22.518,22.518,0,0,0-.095-5.1c-.208-1.713-.266-3.453-.383-5.18q-.147-2.6-.218-5.2a.03.03,0,0,1,.029-.032.031.031,0,0,1,.032.027c.493,3.432.821,6.866,1.178,10.31a19.086,19.086,0,0,1,.038,5.248,10.43,10.43,0,0,1-1.891,4.9,8.839,8.839,0,0,1-1.923,1.8,9.64,9.64,0,0,1-2.394,1.067,5.46,5.46,0,0,1-2.636-.021,11.372,11.372,0,0,1-2.467-.938,22.52,22.52,0,0,1-4.269-3.026,32.183,32.183,0,0,1-3.626-3.739.032.032,0,0,1,0-.044A.033.033,0,0,1,956.2,188.508Z" transform="translate(-956.144 -172.928)" fill="#efece2"/>
      </g>
    </g>
    <g id="Group_5573" data-name="Group 5573" transform="translate(154.678 37.154)">
      <g id="Group_5572" data-name="Group 5572" transform="translate(0)">
        <path id="Path_15005" data-name="Path 15005" d="M958.839,153.2a36.154,36.154,0,0,1-.421-4.721,36.644,36.644,0,0,1,.151-4.75,19.563,19.563,0,0,1,.986-4.68,8.141,8.141,0,0,1,1.13-2.14,3.045,3.045,0,0,1,2.028-1.218,3.07,3.07,0,0,0-1.737,1.426,7.841,7.841,0,0,0-.889,2.107,27.123,27.123,0,0,0-.794,4.578c-.166,1.55-.24,3.114-.317,4.68-.038.783-.06,1.568-.074,2.354Z" transform="translate(-958.397 -135.688)" fill="#efece2"/>
      </g>
    </g>
    <g id="Group_5575" data-name="Group 5575" transform="translate(128.418 25.394)">
      <g id="Group_5574" data-name="Group 5574" transform="translate(0)">
        <path id="Path_15006" data-name="Path 15006" d="M922.667,124.967a.312.312,0,0,1-.085-.612c1.465-.415,2.306-3.426,2.506-4.551a.312.312,0,0,1,.614.109c-.033.181-.813,4.437-2.951,5.042A.309.309,0,0,1,922.667,124.967Z" transform="translate(-922.355 -119.547)" fill="#efece2"/>
      </g>
    </g>
    <g id="Group_5577" data-name="Group 5577" transform="translate(157.721 85.783)">
      <g id="Group_5576" data-name="Group 5576" transform="translate(0 0)">
        <path id="Path_15007" data-name="Path 15007" d="M974.092,202.435c.11,1.772.175,3.544.218,5.316s.081,3.544.087,5.315a.3.3,0,0,1-.1.229,36.059,36.059,0,0,1-5.574,4.023,13.818,13.818,0,0,1-3.184,1.354,3.566,3.566,0,0,1-1.75.049,1.7,1.7,0,0,1-1.209-1.166,1.682,1.682,0,0,0,1.25.987,3.519,3.519,0,0,0,1.622-.189,13.41,13.41,0,0,0,3.006-1.486,47.979,47.979,0,0,0,5.439-4.031l-.1.229c.006-1.772.031-3.544.086-5.315S973.983,204.207,974.092,202.435Z" transform="translate(-962.575 -202.435)" fill="#efece2"/>
      </g>
    </g>
    <g id="Group_5579" data-name="Group 5579" transform="translate(47.119 190.482)">
      <g id="Group_5578" data-name="Group 5578">
        <path id="Path_15008" data-name="Path 15008" d="M810.784,346.142a8.9,8.9,0,0,1,1.042,4.549,7.865,7.865,0,0,1-.824-2.206A7.958,7.958,0,0,1,810.784,346.142Z" transform="translate(-810.766 -346.142)" fill="#efece2"/>
      </g>
    </g>
    <g id="Group_5581" data-name="Group 5581" transform="translate(65.804 189.9)">
      <g id="Group_5580" data-name="Group 5580" transform="translate(0)">
        <path id="Path_15009" data-name="Path 15009" d="M836.416,345.343a5.463,5.463,0,0,1,.909,1.718,5.4,5.4,0,0,1,.318,1.917,6.067,6.067,0,0,1-1.227-3.635Z" transform="translate(-836.412 -345.343)" fill="#efece2"/>
      </g>
    </g>
    <g id="Group_5583" data-name="Group 5583" transform="translate(7.605 192.018)">
      <g id="Group_5582" data-name="Group 5582">
        <path id="Path_15010" data-name="Path 15010" d="M820.748,363.985s-11.22,1.792-13.617,3.14-26.636,4.044-32.625,4.342a124.457,124.457,0,0,1-15.431-.648,3.574,3.574,0,0,1-1.945-.889c-1.166-1.086-1.56-3.14,7.8-5.2a75.994,75.994,0,0,0,13.019-4.335c1.079.758,2.142,1.268,3.133,1.865a13.664,13.664,0,0,1,1.428.918,7.334,7.334,0,0,1,1.274,1.253,2.761,2.761,0,0,0-.568-1.916,4.618,4.618,0,0,0-1.508-1.333,5.928,5.928,0,0,0-1.814-.7,4.91,4.91,0,0,0-1.931-.088c2.506-1.064,4.954-2.2,7.227-3.322.386.393.692.743,1.005,1.093l.867,1.049.859,1.086a10.928,10.928,0,0,0,1.02,1.144,3.555,3.555,0,0,0-.153-1.6,4.279,4.279,0,0,0-.758-1.413,3.9,3.9,0,0,0-1.246-1.042,2.527,2.527,0,0,0-1.6-.321c6.4-3.162,11.511-6.237,13.26-7.307,3.439-2.091,5.238-1.945,6.877,0a5.135,5.135,0,0,0,6.885.6c4.043-2.7,6.885-.153,7.038.9S822.693,358.449,820.748,363.985Z" transform="translate(-756.53 -348.25)" fill="#efece2"/>
      </g>
    </g>
    <g id="Group_5585" data-name="Group 5585" transform="translate(119.424 191.055)">
      <g id="Group_5584" data-name="Group 5584">
        <path id="Path_15011" data-name="Path 15011" d="M910.085,346.928a14.524,14.524,0,0,1,1.069,3.753,19.12,19.12,0,0,1,.2,1.929,10.453,10.453,0,0,1-.057,1.971,10.488,10.488,0,0,1-.664-1.856,18.794,18.794,0,0,1-.4-1.9A14.53,14.53,0,0,1,910.085,346.928Z" transform="translate(-910.009 -346.928)" fill="#efece2"/>
      </g>
    </g>
    <g id="Group_5587" data-name="Group 5587" transform="translate(137.123 192.495)">
      <g id="Group_5586" data-name="Group 5586" transform="translate(0)">
        <path id="Path_15012" data-name="Path 15012" d="M934.77,348.9a8.8,8.8,0,0,1,.467,2.988,11.146,11.146,0,0,1-.1,1.494,6.472,6.472,0,0,1-.364,1.494,6.434,6.434,0,0,1-.366-1.494,11.329,11.329,0,0,1-.1-1.494A8.793,8.793,0,0,1,934.77,348.9Z" transform="translate(-934.302 -348.905)" fill="#efece2"/>
      </g>
    </g>
    <g id="Group_5589" data-name="Group 5589" transform="translate(95.453 197.473)">
      <g id="Group_5588" data-name="Group 5588" transform="translate(0)">
        <path id="Path_15013" data-name="Path 15013" d="M922.545,376.735s-10.7,2.608-16.057,5.625S890.015,389.7,877.258,386c0,0-2.681-.211,14.615-15.65,0,0,.452-.634,1.188-1.647,2.12-.022,4.189-.146,6.236-.058a15.236,15.236,0,0,1,3.009.386,4.282,4.282,0,0,1,2.535,1.523,2.876,2.876,0,0,0-.881-1.37,4.974,4.974,0,0,0-1.428-.845,9.9,9.9,0,0,0-3.191-.626,16.7,16.7,0,0,0-3.2.2,14.528,14.528,0,0,0-3.082.794c1.078-1.479,2.783-3.759,4.59-6a41.823,41.823,0,0,1,6.841-.393,20.558,20.558,0,0,1,3.33.452,16.6,16.6,0,0,1,3.2,1.2,8.323,8.323,0,0,0-2.987-1.894,12.734,12.734,0,0,0-3.5-.692,16.376,16.376,0,0,0-3.533.262,13.349,13.349,0,0,0-3.344,1.056c2.863-3.541,6-6.965,7.388-6.965,2.579,0,5.486,1.814,8.866,4.4a13.756,13.756,0,0,1,1.6,1.523c.568.612.153,1.239,2.71-4.692C918.218,356.969,921.518,351.418,922.545,376.735Z" transform="translate(-877.108 -355.738)" fill="#efece2"/>
      </g>
    </g>
    <g id="Group_5591" data-name="Group 5591" transform="translate(64.685 174.99)">
      <g id="Group_5590" data-name="Group 5590" transform="translate(0)">
        <path id="Path_15014" data-name="Path 15014" d="M882.17,326.157q-5.472.131-10.943.137c-5.27.025-10.532-.019-15.794-.081-5.263-.087-10.526-.187-15.788-.362-1.5-.044-3-.093-4.5-.156l-.268-.779c1.6-.019,3.186-.031,4.782-.031,5.263-.025,10.532.019,15.794.081,5.263.081,10.526.181,15.788.356q5.443.16,10.893.442Z" transform="translate(-834.876 -324.878)" fill="#efece2"/>
      </g>
    </g>
    <g id="Group_5593" data-name="Group 5593" transform="translate(46.681 116.465)">
      <g id="Group_5592" data-name="Group 5592" transform="translate(0 0)">
        <path id="Path_15015" data-name="Path 15015" d="M875.428,303.962l-47.262-.852-5.982-17.471c1.69.044,3.388.073,5.085.1,5.894.1,11.781.124,17.682.138,5.894-.014,11.788-.036,17.675-.138q5.8-.088,11.6-.27c-.007-.146-.014-.284-.029-.437q-5.781-.186-11.57-.269c-5.887-.095-11.781-.124-17.675-.131s-11.788.036-17.682.131c-1.785.029-3.57.058-5.348.1l-4.794-13.981c2.149.1,4.291.19,6.441.255,5.114.189,10.236.3,15.351.4,5.121.073,10.243.138,15.358.124,4.2,0,13.274-.051,19.241-.146-.007-.08-.007-.16-.007-.248-5.953-.255-15.023-.437-19.219-.576-5.115-.189-10.229-.3-15.351-.4-5.122-.073-10.236-.131-15.358-.117-2.222,0-4.452.007-6.674.044l.138.422-6.885-20.108s48.07,4.1,62.255-5.989Z" transform="translate(-810.164 -244.548)" fill="#efece2"/>
      </g>
    </g>
    <g id="Group_5595" data-name="Group 5595" transform="translate(150.675 144.071)">
      <g id="Group_5594" data-name="Group 5594" transform="translate(0)">
        <path id="Path_15016" data-name="Path 15016" d="M952.9,296.473c2.277.028,4.534.034,6.761-.112a26.128,26.128,0,0,0,3.285-.409,8.259,8.259,0,0,0,2.935-1.051,2.724,2.724,0,0,0,.95-.963,2.381,2.381,0,0,0,.222-.618l.152-.818c.207-1.094.342-2.2.492-3.317.271-2.229.469-4.478.682-6.746a37.679,37.679,0,0,1,.335,6.828c-.031,1.144-.144,2.285-.287,3.429l-.134.855a3.68,3.68,0,0,1-.331.98A3.981,3.981,0,0,1,966.6,296a6.82,6.82,0,0,1-1.7.767,11.119,11.119,0,0,1-1.739.4,20.356,20.356,0,0,1-3.473.21A29.686,29.686,0,0,1,952.9,296.473Z" transform="translate(-952.904 -282.439)" fill="#efece2"/>
      </g>
    </g>
    <g id="Group_5597" data-name="Group 5597" transform="translate(138.567 48.774)">
      <g id="Group_5596" data-name="Group 5596">
        <path id="Path_15017" data-name="Path 15017" d="M1004.251,205.588c.466,2.667-17.573,48.318-19.46,55.786s-14.272,17.194-14.272,17.194c-7.22,5.676-31.066,2.936-31.066,2.936l-3.14-61.257c3.351.058,6.709.08,10.061.109,1.69-.007,3.329.029,5.056-.022a14.452,14.452,0,0,0,5.085-1.137,14.834,14.834,0,0,0,7.5-7.118,22.563,22.563,0,0,0,.984-2.4l.882-2.346c.59-1.566,1.18-3.126,1.8-4.677,1.239-3.1,2.513-6.186,4-9.122.379-.729.772-1.443,1.195-2.12a8.907,8.907,0,0,1,1.362-1.778,1.62,1.62,0,0,1,.306-.233c.036-.007.072-.044.08-.029s.014-.007.029-.015l.175-.015,1.239-.095,2.492-.16c3.329-.168,6.666-.248,9.974-.095a38.835,38.835,0,0,1,4.9.488,13.406,13.406,0,0,1,2.294.6,2.924,2.924,0,0,1,1.581,1.122l.015.022a.751.751,0,0,0,.2.255,7.865,7.865,0,0,1,1.763,2.157,9.389,9.389,0,0,1,1.028,2.71,13.564,13.564,0,0,1-.066,5.9c-.124.488-.218.984-.364,1.472s-.291.969-.459,1.45c-.328.969-.67,1.931-1.035,2.892-.714,1.916-1.472,3.825-2.244,5.726-1.544,3.8-3.176,7.562-4.852,11.307l-5.122,11.2q-2.6,5.584-5.071,11.22c-1.646,3.752-3.286,7.533-4.794,11.358-1.537,3.81-2.929,7.7-4.305,11.548a46.458,46.458,0,0,1-2.47,5.574,17.632,17.632,0,0,1-1.661,2.535,7.2,7.2,0,0,1-2.251,1.967.08.08,0,0,0-.044.109.087.087,0,0,0,.11.051A7.1,7.1,0,0,0,968.2,278.8a18.273,18.273,0,0,0,1.873-2.492,36.762,36.762,0,0,0,2.827-5.537c1.544-3.825,3.111-7.592,4.706-11.366s3.256-7.519,4.925-11.271,3.257-7.533,4.8-11.344l4.619-11.417,4.692-11.387,2.331-5.7a48.712,48.712,0,0,0,2.084-5.85,14.805,14.805,0,0,0,.313-6.3,10.8,10.8,0,0,0-1.027-3.067,8.792,8.792,0,0,0-1.894-2.521,3.02,3.02,0,0,0-.955-1.078,5.818,5.818,0,0,0-1.246-.678,14.536,14.536,0,0,0-2.317-.7,74.484,74.484,0,0,0,.59-8.648c.065-1.508-.036-3.016-.095-4.524-.044-1.515-.255-3.016-.422-4.524-.073-.758-.226-1.5-.371-2.251-.16-.743-.263-1.494-.466-2.229l-.627-2.208c-.24-.721-.539-1.435-.817-2.142-.3-.707-.677-1.384-1.019-2.069l-.641-.962-.321-.481-.379-.437a8.457,8.457,0,0,0-1.69-1.574,4.515,4.515,0,0,0-2.1-.867,3.533,3.533,0,0,1,1.005.474l.459.313.416.364a8.607,8.607,0,0,1,1.4,1.676l.313.444.263.488.525.962c.262.692.59,1.348.83,2.04a43.3,43.3,0,0,1,1.924,8.633c.189,1.479.408,2.943.481,4.437.131,1.479.255,2.965.313,4.459.182,2.863.2,5.734.372,8.619a1.388,1.388,0,0,0-.168-.036,37.926,37.926,0,0,0-5.086-.641c-3.387-.2-6.768-.182-10.142-.058l-2.528.117-1.267.08-.138.007c-.088.015-.19.029-.284.044a2,2,0,0,0-.51.175,3.3,3.3,0,0,0-.714.488,9.72,9.72,0,0,0-1.734,2.171c-.467.743-.875,1.493-1.268,2.251A91.816,91.816,0,0,0,966,202c-.6,1.581-1.181,3.155-1.734,4.743l-.823,2.382a20.318,20.318,0,0,1-.852,2.273,13.461,13.461,0,0,1-2.7,3.9,13.791,13.791,0,0,1-3.905,2.725,13.315,13.315,0,0,1-4.626,1.26c-1.625.124-3.337.16-5,.248-3.352.168-6.7.335-10.054.546l-.022-.444s18.426.284,19.154-15.861c0,0-.459,5.085,11.518-4.488v-10.63s4.167-2.164,2.565-11.817l-.8-9.653h.787s.015-14.083-.743-15.54c23.409,1.77,25.6,5.013,25.6,5.013,9.1,10.506,7.687,34.3,7.687,34.3C1008.637,191.84,1004.251,205.588,1004.251,205.588Z" transform="translate(-936.284 -151.638)" fill="#efece2"/>
      </g>
    </g>
    <g id="Group_5599" data-name="Group 5599" transform="translate(138.509 117.208)">
      <g id="Group_5598" data-name="Group 5598">
        <path id="Path_15018" data-name="Path 15018" d="M936.291,245.743a.1.1,0,0,1-.087-.095.081.081,0,0,1,.08-.08Z" transform="translate(-936.204 -245.568)" fill="#efece2"/>
      </g>
    </g>
    <g id="Group_5601" data-name="Group 5601" transform="translate(160.155 178.419)">
      <g id="Group_5600" data-name="Group 5600" transform="translate(0)">
        <path id="Path_15019" data-name="Path 15019" d="M967.987,329.8c.481,3.236.868,6.473,1.262,9.711l.545,4.857.471,4.86c.151,1.62.393,3.237.606,4.856a25.819,25.819,0,0,1,.163,4.868,41.188,41.188,0,0,1-.587,4.889,25.58,25.58,0,0,1-1.361,4.911.27.27,0,0,1-.351.149.267.267,0,0,1-.143-.136,25.6,25.6,0,0,1-1.636-4.827,41.15,41.15,0,0,1-.861-4.848,25.758,25.758,0,0,1-.112-4.87c.122-1.628.273-3.256.332-4.882l.2-4.878.27-4.881c.211-3.254.414-6.508.713-9.765a.249.249,0,0,1,.494-.015Z" transform="translate(-965.915 -329.584)" fill="#efece2"/>
      </g>
    </g>
    <g id="Group_5603" data-name="Group 5603" transform="translate(180.847 164.233)">
      <g id="Group_5602" data-name="Group 5602">
        <path id="Path_15020" data-name="Path 15020" d="M997.38,310.333c.36,3.026.626,6.048.9,9.071l.363,4.533.29,4.531c.091,1.51.273,3.021.427,4.531a22.414,22.414,0,0,1-.019,4.529,35.829,35.829,0,0,1-.769,4.526,22.875,22.875,0,0,1-1.542,4.529l0,0a.271.271,0,0,1-.492,0,22.43,22.43,0,0,1-1.455-4.534,35.59,35.59,0,0,1-.681-4.536,22.37,22.37,0,0,1,.069-4.535c.181-1.511.393-3.021.513-4.532l.377-4.533.451-4.53c.332-3.02.656-6.039,1.076-9.056a.249.249,0,0,1,.495.006Z" transform="translate(-994.316 -310.113)" fill="#efece2"/>
      </g>
    </g>
    <g id="Group_5605" data-name="Group 5605" transform="translate(53.128 96.058)">
      <g id="Group_5604" data-name="Group 5604">
        <path id="Path_15021" data-name="Path 15021" d="M819.036,216.538v.16c-.007-.051-.014-.109-.021-.16Z" transform="translate(-819.014 -216.538)" fill="#efece2"/>
      </g>
    </g>
    <g id="Group_5607" data-name="Group 5607" transform="translate(115.526 39.113)">
      <g id="Group_5606" data-name="Group 5606" transform="translate(0)">
        <path id="Path_15022" data-name="Path 15022" d="M904.659,142.911c1.037-.389,2.092-.786,3.172-1.172s2.153-.79,3.265-1.161l3.319-1.136c1.12-.356,2.237-.72,3.362-1.049l.016-.005a.276.276,0,0,1,.342.187l.007.029.58,3.249c.183,1.086.411,2.161.621,3.241.441,2.155.946,4.3,1.469,6.434a.216.216,0,0,1-.143.257l-.015.005c-2.041.646-4.094,1.255-6.148,1.853s-4.107,1.206-6.173,1.765h0a.383.383,0,0,1-.468-.264c-.594-2.065-1.132-4.14-1.677-6.191Zm.065.033,2.014,6.067c.633,1.987,1.273,3.948,1.858,5.92l-.472-.262c2.055-.6,4.123-1.148,6.191-1.7s4.136-1.1,6.216-1.609l-.158.261c-.385-2.167-.791-4.329-1.259-6.478-.245-1.072-.472-2.148-.743-3.215l-.785-3.206.365.21c-1.071.382-2.149.728-3.224,1.083l-3.266,1c-1.085.339-2.208.643-3.323.971Z" transform="translate(-904.659 -138.377)" fill="#efece2"/>
      </g>
    </g>
    <g id="Group_5609" data-name="Group 5609" transform="translate(81.729 75.99)">
      <g id="Group_5608" data-name="Group 5608" transform="translate(0 0)">
        <path id="Path_15023" data-name="Path 15023" d="M858.27,189.514l11.836-.521,2.128,10.656h-12.57Z" transform="translate(-858.27 -188.993)" fill="#efece2"/>
      </g>
    </g>
    <g id="Group_5611" data-name="Group 5611" transform="translate(60.142 47.197)">
      <g id="Group_5610" data-name="Group 5610">
        <path id="Path_15024" data-name="Path 15024" d="M828.7,149.885l1.278,4.127c.391,1.33.766,2.631,1.081,3.959l-.31-.241c1.636.032,3.273.149,4.91.194s3.274-.007,4.911-.071l-.193.244c-.39-1.349-.765-2.7-1.116-4.062s-.714-2.715-1.034-4.081l.378.3c-1.6.006-3.2-.053-4.836-.123Zm-.057-.044c1.557-.082,3.188-.176,4.866-.244s3.387-.128,5.1-.123a.393.393,0,0,1,.378.3c.334,1.363.619,2.738.931,4.106s.584,2.746.848,4.126l0,.017a.191.191,0,0,1-.152.224.206.206,0,0,1-.043,0c-1.637-.065-3.273-.111-4.911-.071s-3.273.162-4.91.194a.313.313,0,0,1-.308-.231l0-.01c-.377-1.4-.694-2.83-1-4.229C829.157,152.5,828.881,151.131,828.64,149.84Z" transform="translate(-828.64 -149.473)" fill="#efece2"/>
      </g>
    </g>
    <g id="Group_5624" data-name="Group 5624" transform="translate(63.743 48.412)">
      <g id="Group_5613" data-name="Group 5613" transform="translate(11.411)">
        <g id="Group_5612" data-name="Group 5612">
          <path id="Path_15025" data-name="Path 15025" d="M849.245,151.505a30.572,30.572,0,0,1,4.995-.364,30.174,30.174,0,0,1,4.995.364,30.245,30.245,0,0,1-4.995.364A30.581,30.581,0,0,1,849.245,151.505Z" transform="translate(-849.245 -151.141)" fill="#efece2"/>
        </g>
      </g>
      <g id="Group_5615" data-name="Group 5615" transform="translate(12.394 5.886)">
        <g id="Group_5614" data-name="Group 5614">
          <path id="Path_15026" data-name="Path 15026" d="M850.594,159.584a28.015,28.015,0,0,1,9.006,0,28.01,28.01,0,0,1-9.006,0Z" transform="translate(-850.594 -159.22)" fill="#efece2"/>
        </g>
      </g>
      <g id="Group_5617" data-name="Group 5617" transform="translate(0 11.573)">
        <g id="Group_5616" data-name="Group 5616">
          <path id="Path_15027" data-name="Path 15027" d="M833.583,167.39c1.908-.15,3.816-.221,5.725-.279s3.816-.076,5.724-.084c1.908.008,3.816.017,5.724.084l2.862.1c.954.06,1.908.1,2.862.178-.954.083-1.908.118-2.862.178l-2.862.1c-1.908.066-3.816.076-5.724.084-1.908-.01-3.816-.018-5.724-.085S835.491,167.54,833.583,167.39Z" transform="translate(-833.583 -167.026)" fill="#efece2"/>
        </g>
      </g>
      <g id="Group_5619" data-name="Group 5619" transform="translate(1.562 15.539)">
        <g id="Group_5618" data-name="Group 5618">
          <path id="Path_15028" data-name="Path 15028" d="M835.727,172.833c1.779-.15,3.556-.22,5.334-.278s3.555-.077,5.334-.085c1.778.008,3.555.017,5.333.084l2.666.1c.889.06,1.778.1,2.667.178-.889.083-1.778.118-2.667.178l-2.666.1c-1.778.066-3.556.076-5.333.084-1.779-.009-3.556-.018-5.334-.085S837.505,172.983,835.727,172.833Z" transform="translate(-835.727 -172.469)" fill="#efece2"/>
        </g>
      </g>
      <g id="Group_5621" data-name="Group 5621" transform="translate(11.411 19.878)">
        <g id="Group_5620" data-name="Group 5620">
          <path id="Path_15029" data-name="Path 15029" d="M849.245,178.789a72.062,72.062,0,0,1,7.689-.364,71.056,71.056,0,0,1,7.688.364,71.071,71.071,0,0,1-7.688.364A72.074,72.074,0,0,1,849.245,178.789Z" transform="translate(-849.245 -178.425)" fill="#efece2"/>
        </g>
      </g>
      <g id="Group_5623" data-name="Group 5623" transform="translate(16.405 24.181)">
        <g id="Group_5622" data-name="Group 5622">
          <path id="Path_15030" data-name="Path 15030" d="M856.1,184.694a54.941,54.941,0,0,1,6.709-.364,54.347,54.347,0,0,1,6.708.364,54.176,54.176,0,0,1-6.708.364A54.915,54.915,0,0,1,856.1,184.694Z" transform="translate(-856.1 -184.331)" fill="#efece2"/>
        </g>
      </g>
    </g>
    <g id="Group_5641" data-name="Group 5641" transform="translate(95.692 44.936)">
      <g id="Group_5626" data-name="Group 5626" transform="translate(0)">
        <g id="Group_5625" data-name="Group 5625">
          <path id="Path_15031" data-name="Path 15031" d="M877.436,149.02a79.1,79.1,0,0,1,14.928-2.651,68.971,68.971,0,0,1-7.4,1.683A70.079,70.079,0,0,1,877.436,149.02Z" transform="translate(-877.436 -146.369)" fill="#efece2"/>
        </g>
      </g>
      <g id="Group_5628" data-name="Group 5628" transform="translate(1.123 5.088)">
        <g id="Group_5627" data-name="Group 5627">
          <path id="Path_15032" data-name="Path 15032" d="M878.977,156.346a74.409,74.409,0,0,1,7.6-1.854,73.417,73.417,0,0,1,7.74-1.139,73.406,73.406,0,0,1-7.6,1.853A74.332,74.332,0,0,1,878.977,156.346Z" transform="translate(-878.977 -153.353)" fill="#efece2"/>
        </g>
      </g>
      <g id="Group_5630" data-name="Group 5630" transform="translate(4.191 10.839)">
        <g id="Group_5629" data-name="Group 5629">
          <path id="Path_15033" data-name="Path 15033" d="M883.188,164.32a63.725,63.725,0,0,1,6.994-1.893,62.878,62.878,0,0,1,7.148-1.181,63.219,63.219,0,0,1-6.994,1.893A63.881,63.881,0,0,1,883.188,164.32Z" transform="translate(-883.188 -161.246)" fill="#efece2"/>
        </g>
      </g>
      <g id="Group_5632" data-name="Group 5632" transform="translate(5.761 12.375)">
        <g id="Group_5631" data-name="Group 5631">
          <path id="Path_15034" data-name="Path 15034" d="M885.344,170.319c2.637-.727,5.291-1.376,7.947-2.014s5.322-1.235,7.988-1.824c2.671-.572,5.341-1.143,8.025-1.659l4.025-.771c1.347-.232,2.689-.487,4.04-.7-1.316.371-2.643.7-3.965,1.045l-3.981.97c-2.655.645-5.322,1.234-7.988,1.823-2.671.571-5.342,1.142-8.024,1.657S888.045,169.886,885.344,170.319Z" transform="translate(-885.344 -163.355)" fill="#efece2"/>
        </g>
      </g>
      <g id="Group_5634" data-name="Group 5634" transform="translate(7.465 19.379)">
        <g id="Group_5633" data-name="Group 5633">
          <path id="Path_15035" data-name="Path 15035" d="M887.682,178.356c2.1-.6,4.216-1.114,6.335-1.62s4.247-.973,6.376-1.43c2.133-.441,4.266-.881,6.411-1.265l3.218-.574c1.077-.165,2.151-.355,3.233-.5-1.048.305-2.107.565-3.16.849l-3.176.772c-2.118.514-4.247.972-6.376,1.429-2.133.439-4.266.879-6.411,1.263S889.844,178.053,887.682,178.356Z" transform="translate(-887.682 -172.968)" fill="#efece2"/>
        </g>
      </g>
      <g id="Group_5636" data-name="Group 5636" transform="translate(8.792 26.001)">
        <g id="Group_5635" data-name="Group 5635">
          <path id="Path_15036" data-name="Path 15036" d="M889.5,186.1c1.815-.485,3.645-.89,5.477-1.284s3.672-.748,5.512-1.094c1.844-.329,3.688-.656,5.543-.928l2.782-.405c.933-.109,1.86-.242,2.8-.329-.906.25-1.822.453-2.732.681l-2.746.6c-1.831.4-3.671.748-5.512,1.093-1.845.328-3.689.655-5.543.926S891.373,185.909,889.5,186.1Z" transform="translate(-889.504 -182.057)" fill="#efece2"/>
        </g>
      </g>
      <g id="Group_5638" data-name="Group 5638" transform="translate(9.802 30.574)">
        <g id="Group_5637" data-name="Group 5637">
          <path id="Path_15037" data-name="Path 15037" d="M890.89,192.024c1.985-.456,3.982-.833,5.981-1.2s4-.69,6.01-1.006c2.01-.3,4.019-.6,6.036-.84l3.027-.361c1.013-.094,2.023-.213,3.039-.285-.992.236-1.991.425-2.985.638l-3,.562c-2,.372-4,.69-6.011,1.005-2.009.3-4.019.6-6.036.838S892.921,191.865,890.89,192.024Z" transform="translate(-890.89 -188.334)" fill="#efece2"/>
        </g>
      </g>
      <g id="Group_5640" data-name="Group 5640" transform="translate(11.261 35.171)">
        <g id="Group_5639" data-name="Group 5639">
          <path id="Path_15038" data-name="Path 15038" d="M892.893,199.126c2.185-.522,4.384-.964,6.585-1.4s4.408-.822,6.617-1.2c2.212-.365,4.424-.729,6.645-1.037l3.332-.461c1.116-.127,2.226-.278,3.346-.384-1.091.268-2.191.49-3.286.737l-3.3.66c-2.2.439-4.408.822-6.617,1.2-2.212.364-4.424.729-6.646,1.036S895.128,198.9,892.893,199.126Z" transform="translate(-892.893 -194.644)" fill="#efece2"/>
        </g>
      </g>
    </g>
  </g>
</svg>
