<svg id="AAAFinalLogo" xmlns="http://www.w3.org/2000/svg" width="199.56" height="34.967" viewBox="0 0 199.56 34.967">
  <path id="Path_14132" data-name="Path 14132" d="M832.175,9.292H815.8v5.355c0,2.205,1.417,3.307,3.465,3.938h-6.615V9.292H806.66V27.72a1.242,1.242,0,0,0,1.26,1.26h23a1.242,1.242,0,0,0,1.26-1.26V9.292Zm-16.38-6.3a3.154,3.154,0,0,1,6.3,0,3.15,3.15,0,1,1-6.3,0m5.985,14.333V14.648h4.41v3.938h-3.15a1.242,1.242,0,0,1-1.26-1.26m4.1-14.333a3.154,3.154,0,0,1,6.3,0,3.15,3.15,0,1,1-6.3,0m20.633,0a3.154,3.154,0,0,1,6.3,0,3.15,3.15,0,1,1-6.3,0m10.08,0a3.154,3.154,0,0,1,6.3,0,3.15,3.15,0,0,1-6.3,0m10.08,0a3.154,3.154,0,0,1,6.3,0,3.15,3.15,0,0,1-6.3,0M887.3,28.982h5.985V.63H887.3V28.98Zm-45.992,0a5.981,5.981,0,0,1-5.985,5.985V9.292h5.985v9.293h5.355V9.292h5.985v9.293h4.1V9.292h5.985v9.293h4.095V9.292h5.985v9.293h5.355V.63h5.985V27.72a1.158,1.158,0,0,1-1.26,1.26h-7.875L872.81,26.3V27.72a1.159,1.159,0,0,1-1.26,1.26h-6.93l-1.89-2.205v.945a1.286,1.286,0,0,1-1.417,1.26h-6.93l-1.733-2.205v.945a1.286,1.286,0,0,1-1.417,1.26H841.31Z" transform="translate(-693.727)" fill="#efece2"/>
  <path id="Path_14133" data-name="Path 14133" d="M0,32.85v-10.4H3.15V4.5H9.135V18.045L11.5,15.052c.945-1.26,2.363-1.89,5.04-1.89H25.83a1.242,1.242,0,0,1,1.26,1.26v8.033h4.1V13.162H37.17v9.293h4.1V13.162H47.25v9.293h4.1V13.162h5.986V31.59a1.159,1.159,0,0,1-1.26,1.26h-6.93l-1.89-2.205v.945a1.159,1.159,0,0,1-1.26,1.26h-6.93l-1.89-2.205v.945a1.159,1.159,0,0,1-1.26,1.26h-6.93l-1.89-2.363v1.1a1.242,1.242,0,0,1-1.26,1.26Zm11.183-10.4h9.923V18.517H15.593a2.119,2.119,0,0,0-1.89.787l-2.521,3.15Zm55.285-.63a.678.678,0,0,0,.63.63h3.78V18.517h-4.41v3.307ZM80.013,32.85v-10.4h3.465A4.4,4.4,0,0,1,80.013,18.2v-5.04H86v9.293h4.882V4.5h5.985V31.59a1.242,1.242,0,0,1-1.26,1.26Zm20,0H106V4.5h-5.985Zm-23.153,0a5.981,5.981,0,0,1-5.985,5.985V32.85H61.743a1.159,1.159,0,0,1-1.26-1.26V13.162h16.38Z" transform="translate(0 -3.87)" fill="#efece2"/>
  <path id="Path_14134" data-name="Path 14134" d="M577.806,7.926h-2.59a.34.34,0,0,0-.315.315v2.646H571.88V6.205a1.387,1.387,0,0,1,1.259-1.415H577.8V7.926Z" transform="translate(-491.816 -4.119)" fill="#efece2"/>
</svg>
