<svg width="300" height="70" viewBox="0 0 300 70" fill="none" xmlns="http://www.w3.org/2000/svg">
<path d="M144.688 25.4028C144.287 25.2816 143.806 25.2008 143.485 24.918C143.726 26.615 151.583 27.2615 153.227 27.4636C154.55 27.5848 155.913 27.706 157.196 27.7868C157.196 27.7868 157.156 27.2615 157.156 27.0191C157.156 26.7767 157.116 26.211 157.116 26.211C152.987 26.0898 148.737 26.1706 144.688 25.4028Z" fill="white"/>
<path d="M181.891 25.0796C181.811 25.2008 181.691 25.2412 181.571 25.2816C180.769 25.5645 179.887 25.6453 179.045 25.7665C176.559 26.0089 173.994 26.0898 171.468 26.1302C169.504 26.1302 167.619 26.4534 165.695 26.5746C162.809 26.7767 160.083 26.8979 157.156 27.0191C161.365 27.4232 165.535 27.6656 169.784 27.7464C171.588 27.706 173.392 27.4636 175.196 27.2211C176.6 26.9787 181.37 26.4534 181.891 25.0796Z" fill="white"/>
<path d="M144.568 20.6753C145.49 20.9986 146.532 21.2814 147.534 21.4835C147.534 21.4835 147.534 20.9582 147.575 20.7562C147.575 20.5137 147.615 20.0288 147.615 20.0288C146.773 19.948 145.891 19.9076 145.089 19.7864C144.568 19.7056 144.007 19.6248 143.525 19.5036C143.365 19.4631 143.165 19.3823 143.044 19.2207C142.924 19.9884 144.007 20.4733 144.568 20.6753Z" fill="white"/>
<path d="M173.753 22.0493C175.357 21.7664 182.012 21.1199 182.372 19.5037V19.4633V19.4229C182.172 19.7057 181.731 19.7461 181.41 19.8269C177.842 20.3926 172.871 20.433 172.871 20.433C170.626 20.5946 166.096 20.9179 163.851 20.9987C158.399 21.1603 152.947 21.1603 147.534 20.7159C154.35 21.8472 164.212 22.5341 173.753 22.0493Z" fill="white"/>
<path d="M148.777 10.5735C149.499 10.7756 150.261 10.8968 151.022 11.0584C151.103 10.8564 151.223 10.6543 151.303 10.4523C155.232 11.2604 159.722 11.6241 163.129 11.8261C163.129 11.5837 163.129 11.2604 163.129 10.9776C163.129 10.7352 163.129 10.4927 163.129 10.2099C157.757 10.3311 153.668 10.5331 151.303 10.4119C151.383 10.2503 151.503 10.0078 151.584 9.84622C150.02 9.68459 148.256 9.725 146.773 9.19971C146.693 9.15931 146.612 9.1189 146.572 9.03809C146.492 9.1189 146.492 9.24012 146.492 9.36134C146.653 10.0482 148.176 10.4119 148.777 10.5735Z" fill="white"/>
<path d="M174.675 11.22C175.758 11.1796 176.88 10.9372 177.842 10.4927C178.243 10.3311 178.885 10.0078 178.925 9.48255C178.925 9.40174 178.925 9.32093 178.885 9.19971C178.885 9.24011 178.845 9.24012 178.805 9.28052C178.364 9.48255 177.842 9.48255 177.361 9.52296C176.8 9.56337 176.239 9.60377 175.678 9.60377C174.475 9.68458 173.272 9.96743 172.069 10.1291C170.225 10.3715 168.381 10.6139 166.537 10.7756C165.374 10.8564 164.252 10.9776 163.089 11.018C163.691 11.0584 164.292 11.0988 164.893 11.0988C168.181 11.2604 171.428 11.3412 174.675 11.22Z" fill="white"/>
<path d="M145.851 12.4728C146.372 12.7152 146.893 12.8769 147.454 13.0385C147.735 13.1193 148.056 13.2001 148.296 13.2809C148.376 13.0789 148.457 12.8365 148.537 12.6344C148.617 12.4324 148.697 12.19 148.777 12.0283C147.935 11.9475 147.053 11.8667 146.212 11.7455C145.851 11.6647 145.45 11.6243 145.129 11.3818C145.049 11.5031 145.049 11.7051 145.089 11.8263C145.249 12.1092 145.57 12.3112 145.851 12.4728Z" fill="white"/>
<path d="M166.537 12.5938C158.198 12.917 151.985 12.917 148.577 12.5938C152.826 13.4423 159.08 14.21 166.617 14.21C166.617 14.2504 166.537 12.5938 166.537 12.5938Z" fill="white"/>
<path d="M147.133 15.7861C147.254 15.382 147.374 14.8567 147.494 14.4527C145.289 14.2506 144.447 14.089 144.167 13.9274C144.127 13.887 144.087 13.8466 144.087 13.8062C144.007 13.9678 144.007 14.1698 144.047 14.3314C144.287 14.8163 145.129 15.2204 147.133 15.7861Z" fill="white"/>
<path d="M144.448 17.7659C145.129 18.0892 145.891 18.2912 146.652 18.4932C146.693 18.0488 146.773 17.5235 146.853 17.079C146.011 16.9982 144.889 16.877 144.287 16.7557C144.007 16.6749 143.566 16.6749 143.405 16.3921C143.365 16.5537 143.325 16.7557 143.405 16.9174C143.606 17.3618 144.047 17.6043 144.448 17.7659Z" fill="white"/>
<path d="M162.728 3.62358C166.777 3.62358 170.867 3.25991 170.947 2.573C170.947 2.49219 170.867 2.37097 170.786 2.33057C169.423 3.05788 163.209 2.97707 162.728 3.01748C162.247 2.97707 156.033 3.05788 154.67 2.33057C154.63 2.41138 154.51 2.49219 154.51 2.573C154.59 3.25991 158.679 3.62358 162.728 3.62358Z" fill="white"/>
<path d="M162.728 5.32098C167.9 5.28057 173.152 4.91691 173.272 3.82594C173.272 3.74512 173.192 3.66431 173.112 3.5835C173.112 3.6239 173.072 3.6239 173.032 3.66431C170.065 4.75529 155.352 4.75529 152.425 3.66431C152.385 3.6239 152.345 3.6239 152.345 3.5835C152.265 3.6239 152.225 3.70472 152.185 3.82594C152.305 4.91691 157.557 5.28057 162.728 5.32098Z" fill="white"/>
<path d="M162.608 7.38154C162.608 7.1795 162.608 6.89666 162.608 6.69463C162.608 6.49259 162.608 6.20975 162.608 6.04812C156.274 6.20975 150.862 5.8865 150.22 5.2804C150.18 5.23999 150.18 5.19959 150.14 5.15918C149.499 6.37137 162.608 7.38154 162.608 7.38154Z" fill="white"/>
<path d="M170.506 7.05828C174.916 6.5734 175.397 5.80568 175.397 5.48243C175.397 5.40161 175.357 5.36121 175.357 5.3208C175.277 5.48243 175.036 5.48243 174.876 5.52283C173.312 5.80568 171.669 5.88649 170.065 5.9269C167.7 6.04812 164.052 6.65421 162.648 6.73503C166.136 7.01787 167.86 7.26031 170.506 7.05828Z" fill="white"/>
<path d="M164.573 9.44208V8.75518C166.978 8.87639 170.907 9.15924 174.435 8.83599C175.357 8.83599 177.401 8.10867 177.321 7.38136C177.321 7.30054 177.281 7.21973 177.281 7.13892C177.281 7.17932 177.201 7.17932 177.161 7.21973C176.76 7.38135 175.678 7.42176 174.755 7.50258C171.588 8.02786 168.101 8.55314 164.573 8.79558V8.10867C157.076 8.22989 149.178 7.98745 148.336 7.17932C148.296 7.13892 148.256 7.09851 148.256 7.05811C148.216 7.13892 148.216 7.21973 148.216 7.30054C148.457 8.43192 156.515 9.48249 164.573 9.44208Z" fill="white"/>
<path d="M166.577 13.402C169.704 13.5637 172.15 13.6849 175.317 13.6445C175.878 13.6445 176.279 13.6041 176.84 13.4828C179.486 12.9172 180.208 12.2302 180.288 11.8262C180.328 11.705 180.288 11.5837 180.288 11.5029C180.288 11.5433 180.248 11.5433 180.208 11.5837C179.807 11.907 176.519 11.8666 174.956 12.1494C172.51 12.6343 170.666 12.998 166.577 13.402Z" fill="white"/>
<path d="M167.82 15.9881C169.343 16.1497 171.308 16.3113 174.274 16.3922C177.04 16.473 181.21 15.3012 181.33 14.3314C181.37 14.2102 181.37 14.089 181.37 13.9678C181.37 14.0082 181.33 14.0486 181.29 14.089C180.929 14.3718 176.519 14.5335 174.515 14.8163C172.43 15.18 170.827 15.584 167.82 15.9881Z" fill="white"/>
<path d="M147.334 15.099C153.267 16.392 161.887 16.7961 167.9 16.9173C167.9 16.9173 167.82 16.2708 167.82 15.9879C167.78 15.7051 167.74 15.0586 167.74 15.0586C157.437 15.7051 150.461 15.3818 147.334 15.099Z" fill="white"/>
<path d="M170.225 17.7661C161.927 18.4127 152.906 18.3318 146.733 17.7661C152.185 18.8975 161.686 19.6653 171.147 19.4632C177.963 18.6955 181.651 18.1298 182.052 16.6348C181.41 17.1196 179.646 17.5641 170.907 17.6853C170.666 17.7257 170.466 17.7661 170.225 17.7661Z" fill="white"/>
<path d="M172.59 24.9583C174.595 24.7967 176.519 24.5139 178.444 24.1098C179.446 23.8674 180.488 23.6653 181.41 23.1804C181.771 22.9784 182.132 22.7764 182.292 22.4127V22.3723V22.3319V22.2915C182.292 22.2915 182.292 22.2915 182.292 22.3319C181.891 22.6552 181.25 22.6956 180.769 22.7764C178.123 23.14 176.118 23.14 173.272 23.2613C167.699 23.8269 162.087 24.1906 156.555 24.231C156.314 24.231 156.114 24.2714 155.913 24.2714C161.445 24.7563 167.098 24.9987 172.59 24.9583Z" fill="white"/>
<path d="M145.811 22.8572C145.129 22.7764 144.407 22.6552 143.726 22.4935C143.485 22.4127 143.165 22.3319 143.044 22.1299C143.044 22.9784 144.448 23.3421 145.129 23.5845C148.537 24.5139 152.385 24.8371 155.993 25.1604C155.993 25.1604 155.953 24.5543 155.953 24.2714C155.953 24.1098 155.953 23.3421 155.953 23.3421C152.746 23.3017 148.697 23.2209 145.811 22.8572Z" fill="white"/>
<path d="M170.626 30.1709C174.675 29.8072 179.446 29.2011 180.769 28.0697C180.889 27.9485 181.009 27.8677 181.05 27.7061C181.009 27.7465 180.969 27.7869 180.849 27.8273C179.125 28.5142 174.635 28.5546 170.025 28.7162C165.535 29.1607 161.927 29.3627 158.078 29.4839C158.038 29.2011 158.038 28.9183 157.998 28.7566C157.597 28.7566 157.196 28.7566 156.795 28.7566C154.31 28.7162 154.109 28.7566 151.944 28.6354H151.744C151.744 28.6354 146.532 28.393 144.528 27.7465C144.407 27.7061 144.287 27.6252 144.207 27.5444C144.367 28.1505 145.129 28.3526 145.69 28.595C149.339 29.686 153.147 29.888 156.915 30.2113C157.236 30.2517 157.557 30.2517 158.118 30.2921C158.118 30.2921 158.078 29.9688 158.038 29.5648C163.811 30.0092 167.098 30.1709 170.626 30.1709Z" fill="white"/>
<path d="M156.755 31.1407C154.55 31.1407 149.9 30.8982 149.218 30.8174C148.096 30.6962 146.933 30.575 145.931 30.2921C145.69 30.2113 145.57 30.1709 145.41 30.0093C145.891 31.3831 152.225 31.9488 153.748 32.1508C154.951 32.272 156.274 32.3933 157.517 32.4741L157.397 31.8276C157.356 31.6255 157.276 31.1407 157.276 31.1407C157.116 31.1407 156.915 31.1407 156.755 31.1407Z" fill="white"/>
<path d="M170.105 31.1004C169.824 31.1004 169.504 31.1408 169.223 31.1408C163.851 31.6661 159.361 31.7469 157.396 31.8277C163.33 32.353 166.697 32.4742 169.864 32.4338C173.673 32.1105 178.123 31.5448 179.566 30.5751C179.726 30.4539 179.847 30.3731 179.927 30.2114C179.887 30.2518 179.807 30.2922 179.686 30.3326C179.045 30.5751 177 30.9791 170.105 31.1004Z" fill="white"/>
<path d="M177.923 32.6355C177 32.8779 176.038 32.9588 175.076 33.0396C171.628 33.3628 167.94 33.2012 164.493 33.6053C162.769 33.7669 160.002 33.8881 158.84 33.9285C158.84 33.9285 159.241 33.9689 159.561 34.0093C160.403 34.0901 161.205 34.171 161.967 34.2114C163.45 34.3326 164.974 34.4134 166.417 34.4942C168.221 34.575 170.065 34.2922 171.869 34.1305C173.914 33.8477 176.038 33.6861 177.923 32.7971C178.123 32.6759 178.283 32.5951 178.404 32.3931C178.404 32.3931 178.404 32.3931 178.364 32.4335C178.283 32.5547 178.123 32.5951 177.923 32.6355Z" fill="white"/>
<path d="M157.557 33.3225C154.27 33.2417 150.662 33.2821 147.494 32.5548C147.374 32.5144 147.254 32.474 147.174 32.4336C147.094 32.3932 146.933 32.3124 146.893 32.272C147.134 32.676 147.615 32.8377 148.056 33.0397C150.982 33.969 154.069 34.1307 157.116 34.4135C157.717 34.4539 158.439 34.4943 159.04 34.5347L158.92 33.9286C158.92 33.9286 158.84 33.4842 158.8 33.3225C158.359 33.3225 157.958 33.3225 157.557 33.3225Z" fill="white"/>
<path d="M160.243 35.7871L159.762 35.8276L160.243 35.868C163.089 36.1104 163.971 36.3124 166.136 36.3124C171.468 35.9488 175.317 35.6255 176.599 34.4941C175.517 35.0598 171.267 35.2215 165.695 35.3427C163.37 35.5447 162.448 35.6255 160.243 35.7871Z" fill="white"/>
<path d="M148.898 34.4941C148.737 34.4537 148.657 34.4133 148.577 34.3325C148.617 34.3729 148.697 34.4537 148.777 34.5346C150.621 36.2316 155.633 35.9892 159.922 36.3124C159.922 36.3124 159.842 35.9488 159.802 35.8276C159.762 35.6659 159.682 35.3023 159.682 35.3023C152.305 35.2215 149.78 34.777 148.898 34.4941Z" fill="white"/>
<path d="M164.412 36.8784C163.169 36.8784 161.967 37.2017 160.804 37.3633C161.766 37.5249 162.408 37.6462 163.129 37.7674C163.49 37.8078 163.891 37.8482 164.292 37.8482C169.063 37.6462 172.35 37.2421 173.954 36.6764C174.274 36.5552 174.515 36.434 174.755 36.2319C174.755 36.2319 174.715 36.2723 174.675 36.2723C172.991 36.7572 170.426 36.9188 164.412 36.8784Z" fill="white"/>
<path d="M155.753 36.8378C154.069 36.7166 152.025 36.7166 150.581 36.1509C151.343 36.7974 152.506 36.9186 153.548 37.1206C155.913 37.5247 158.399 37.6863 160.884 37.8075C160.884 37.8075 160.844 37.6055 160.804 37.4035C160.764 37.2014 160.724 37.0398 160.724 36.959C159.12 36.9186 157.356 36.9186 155.753 36.8378Z" fill="white"/>
<path d="M162.688 39.5449C160.524 39.5449 158.198 39.3833 156.274 39.1409C156.154 39.1409 155.753 39.0601 155.753 39.0601C155.793 39.1005 155.873 39.1409 155.913 39.1409C157.437 39.8682 160.965 40.1914 162.648 40.1914C164.372 40.1914 167.86 39.8278 169.383 39.1409C169.424 39.1005 169.504 39.1005 169.544 39.0601C169.544 39.0601 169.183 39.1409 169.023 39.1409C167.179 39.3833 164.853 39.5449 162.688 39.5449Z" fill="white"/>
<path d="M162.688 39.1006C165.094 39.1006 170.386 38.7774 172.19 37.848C172.39 37.7268 172.43 37.646 172.43 37.646C172.43 37.646 172.23 37.7268 172.069 37.7672C170.466 38.1309 165.014 38.3329 162.688 38.3329C160.323 38.3329 154.871 38.1309 153.307 37.7672C153.147 37.7268 152.947 37.646 152.947 37.646C152.947 37.646 152.987 37.7268 153.187 37.848C154.991 38.7774 160.323 39.1006 162.688 39.1006Z" fill="white"/>
<path d="M162.688 2.41141C164.092 2.41141 167.9 2.16897 168.261 1.7245C168.381 1.60328 168.221 1.36084 168.221 1.36084C168.221 1.36084 168.181 1.44165 168.06 1.48206C167.74 1.60328 164.011 1.84572 162.688 1.84572C161.325 1.84572 157.637 1.60328 157.316 1.48206C157.196 1.44165 157.156 1.36084 157.156 1.36084C157.156 1.36084 157.036 1.56287 157.116 1.7245C157.477 2.12856 161.285 2.41141 162.688 2.41141Z" fill="white"/>
<path d="M159.722 1.03773C160.123 1.23976 161.405 1.36098 162.688 1.36098C163.971 1.36098 165.254 1.23976 165.655 1.03773C165.775 0.956917 165.775 0.795289 165.575 0.754883C165.575 0.754883 165.575 0.795291 165.334 0.876103C164.893 0.956916 164.051 0.997324 162.688 0.997324C161.325 0.997324 160.483 0.956916 160.042 0.876103C159.802 0.835697 159.802 0.754883 159.802 0.754883C159.601 0.795289 159.601 0.997323 159.722 1.03773Z" fill="white"/>
<path d="M62.3838 37.3228V36.0702L64.8694 38.9795H73.9297C74.972 38.9795 75.5734 38.3734 75.5734 37.3228V13.0385H67.7559V25.2817H62.3838V13.0385H54.5663V25.2817H49.1943V13.0385H41.3768V25.2817H36.0048V14.6952C36.0048 13.6446 35.4034 13.0385 34.3611 13.0385H21.0513C18.8864 13.0385 16.8419 14.0083 15.5189 15.7054L12.5523 19.4632V1.60352H4.69468V25.2817H0.56543V38.9795H34.3611C35.4034 38.9795 36.0048 38.3734 36.0048 37.3228V36.0702L38.4903 38.9795H47.5506C48.593 38.9795 49.1943 38.3734 49.1943 37.3228V36.0702L51.6799 38.9795H60.7402C61.7825 38.9795 62.3838 38.3734 62.3838 37.3228ZM28.1873 25.2817H15.1982L18.6459 20.9582C19.0869 20.3925 19.7283 20.1097 20.4099 20.1097H28.1873V25.2817Z" fill="white"/>
<path d="M119.111 25.2817H112.736V13.0385H104.919V19.6652C104.919 22.13 106.362 24.4736 109.409 25.3221H104.919V39.0199H125.325C126.367 39.0199 126.968 38.4138 126.968 37.3632V1.60352H119.151V25.2817H119.111Z" fill="white"/>
<path d="M138.875 1.60352H131.058V38.9795H138.875V1.60352Z" fill="white"/>
<path d="M81.3463 38.9795H92.9323V46.8588C97.2619 46.8588 100.75 43.3434 100.75 38.9795V13.0386H79.7026V37.3229C79.7026 38.3734 80.304 38.9795 81.3463 38.9795ZM87.5201 20.0693H92.9323V25.2413H88.4021C87.921 25.2413 87.5201 24.8373 87.5201 24.3524V20.0693Z" fill="white"/>
<path d="M108.848 6.08863C108.848 5.80579 109.088 5.60375 109.329 5.60375H112.696V1.60352H106.643C105.681 1.60352 104.879 2.41164 104.879 3.3814V9.48278H108.848V6.08863Z" fill="white"/>
<path d="M279.63 25.2817H272.614V13.0385H264.797V25.2817H259.425V13.0385H251.607V25.2817H246.235V13.0385H238.418V25.2817H231.402V13.0385H223.585V46.8992C227.914 46.8992 231.402 43.3838 231.402 39.0199H244.592C245.634 39.0199 246.235 38.4138 246.235 37.3632V36.1106L248.721 39.0199H257.781C258.824 39.0199 259.425 38.4138 259.425 37.3632V36.1106L261.911 39.0199H270.971C272.013 39.0199 272.614 38.4138 272.614 37.3632V35.6258L275.501 39.0199H285.804C286.846 39.0199 287.448 38.4138 287.448 37.3632V1.60352H279.63V25.2817Z" fill="white"/>
<path d="M299.394 1.60352H291.577V38.9795H299.394V1.60352Z" fill="white"/>
<path d="M188.105 38.9795H217.812C218.854 38.9795 219.456 38.3734 219.456 37.3229V13.0386H198.408V20.1097C198.408 23.019 200.253 24.4736 202.939 25.2817H194.279V13.0386H186.462V37.3229C186.462 38.3734 187.063 38.9795 188.105 38.9795ZM206.226 20.0693H211.638V25.2413H207.87C207.028 25.2413 206.226 24.6352 206.226 23.5847V20.0693Z" fill="white"/>
<path d="M268.686 8.8767C270.966 8.8767 272.815 7.06764 272.815 4.83606C272.815 2.60447 270.966 0.79541 268.686 0.79541C266.405 0.79541 264.556 2.60447 264.556 4.83606C264.556 7.06764 266.405 8.8767 268.686 8.8767Z" fill="white"/>
<path d="M255.536 8.8767C257.817 8.8767 259.665 7.06764 259.665 4.83606C259.665 2.60447 257.817 0.79541 255.536 0.79541C253.256 0.79541 251.407 2.60447 251.407 4.83606C251.407 7.06764 253.256 8.8767 255.536 8.8767Z" fill="white"/>
<path d="M242.347 8.8767C244.627 8.8767 246.476 7.06764 246.476 4.83606C246.476 2.60447 244.627 0.79541 242.347 0.79541C240.066 0.79541 238.218 2.60447 238.218 4.83606C238.218 7.06764 240.066 8.8767 242.347 8.8767Z" fill="white"/>
<path d="M215.527 8.8767C217.932 8.8767 219.656 7.05841 219.656 4.83606C219.656 2.6137 217.932 0.79541 215.527 0.79541C213.121 0.79541 211.397 2.6137 211.397 4.83606C211.397 7.05841 213.121 8.8767 215.527 8.8767Z" fill="white"/>
<path d="M202.337 8.8767C204.618 8.8767 206.466 7.06764 206.466 4.83606C206.466 2.60447 204.618 0.79541 202.337 0.79541C200.057 0.79541 198.208 2.60447 198.208 4.83606C198.208 7.06764 200.057 8.8767 202.337 8.8767Z" fill="white"/>
<path d="M92.411 62.1727H90.2061H87.2795H84.353H81.4264H78.4598H75.7337C75.6535 62.1727 75.5733 62.1323 75.4931 62.1323H74.9319C74.7314 62.1323 74.4909 62.0919 74.2904 62.0515C74.0098 62.0111 73.6891 61.9302 73.3684 61.8494C73.0477 61.7686 72.6869 61.6474 72.286 61.5262C71.8851 61.405 71.5242 61.2837 71.1634 61.1625C70.8026 61.0413 70.4017 60.9605 70.081 60.7989C69.7603 60.6776 69.3995 60.5968 69.1189 60.4756V62.7788C69.7202 62.9808 70.2414 63.1424 70.7225 63.2637C71.1634 63.4253 71.5643 63.5869 71.9252 63.7081C72.2058 63.7889 72.4463 63.9102 72.6869 64.0718C72.8472 64.193 72.9274 64.2738 72.9274 64.395C72.9274 64.5567 72.8472 64.7183 72.7269 64.8395C72.5265 65.0415 72.286 65.2436 72.0454 65.3244C71.6044 65.5264 71.1634 65.688 70.6824 65.7285C69.9608 65.8497 69.199 65.9305 68.4373 65.8901C67.7558 65.8901 67.0743 65.8497 66.4328 65.7285C65.9518 65.6476 65.4707 65.486 65.0698 65.2436C64.7491 65.0415 64.4685 64.7991 64.268 64.4354C64.1076 64.1122 64.0275 63.7081 64.0275 63.3445V60.7989H61.4216V63.4253C61.4216 64.0718 61.5419 64.7183 61.7824 65.3244C62.023 65.8901 62.4239 66.4154 62.945 66.779C63.5865 67.2639 64.3482 67.5872 65.1099 67.7488C66.1923 67.9912 67.3148 68.1124 68.4373 68.1124C69.5599 68.1124 70.6423 68.0316 71.7247 67.8296C72.4864 67.7084 73.208 67.4255 73.8895 67.0619C74.3706 66.8194 74.7715 66.4558 75.0521 65.9709C75.2927 65.5668 75.413 65.1224 75.413 64.6779C75.413 64.5971 75.413 64.5567 75.413 64.4759C75.413 64.395 75.4129 64.3546 75.3729 64.2738H75.453C75.4931 64.2738 75.5733 64.2738 75.6134 64.2738H78.4999H78.54H81.4264H81.4665H84.353H84.3931H87.2795H87.3196H90.166C90.2061 64.2738 90.2462 64.2738 90.2863 64.2738H95.1371V51.1821H92.5313V62.1727H92.411Z" fill="white"/>
<path d="M105.16 60.8394C105.16 60.2333 105.12 59.6676 104.959 59.0615C104.839 58.5362 104.639 58.0513 104.318 57.6068C103.997 57.1624 103.596 56.8391 103.115 56.6371C102.514 56.3947 101.912 56.2734 101.271 56.2734C100.67 56.2734 100.068 56.3947 99.507 56.6371C99.026 56.8391 98.585 57.1624 98.2643 57.5664C97.9435 57.9705 97.6629 58.4554 97.5026 58.9403C97.3422 59.4655 97.2219 59.9908 97.2219 60.5565C97.2219 61.1222 97.3021 61.7283 97.5026 62.2536C97.703 62.6981 97.9435 63.1021 98.3044 63.4254C98.6652 63.7486 99.0661 63.9911 99.507 64.1527C99.9881 64.3143 100.509 64.3951 100.99 64.3951C101.471 64.3951 101.993 64.3547 102.434 64.2335C102.394 64.4759 102.353 64.7184 102.233 64.9204C102.153 65.1629 101.993 65.3649 101.792 65.5265C101.552 65.7285 101.271 65.8902 100.99 65.971C100.549 66.0922 100.108 66.173 99.6273 66.1326H98.144V68.4762H99.7877C100.63 68.4762 101.471 68.355 102.273 68.1125C103.556 67.7489 104.518 66.7387 104.879 65.4861C105.08 64.7588 105.2 63.9911 105.16 63.2638H105.12V60.8394H105.16ZM102.594 61.9303C102.193 62.1324 101.712 62.2132 101.271 62.2132C100.83 62.2536 100.429 62.092 100.148 61.7283C99.9079 61.3647 99.7476 60.9202 99.7877 60.4757C99.7877 60.2333 99.7877 59.9504 99.8679 59.708C99.9079 59.506 99.9881 59.3039 100.108 59.1019C100.349 58.7382 100.75 58.5362 101.191 58.5362C101.431 58.5362 101.632 58.5766 101.832 58.6978C102.033 58.7786 102.153 58.9403 102.273 59.1423C102.394 59.3443 102.474 59.5868 102.514 59.8292C102.554 60.112 102.594 60.4353 102.594 60.7181V61.9303Z" fill="white"/>
<path d="M114.621 62.1325H112.857L111.414 54.1724H108.808L110.171 62.1325H106.924V64.3549H117.187V51.2632H114.621V62.1325Z" fill="white"/>
<path d="M108.247 53.162H111.774L111.815 52.0306H110.852C110.652 52.0306 110.411 51.9902 110.251 51.869C110.051 51.6265 110.051 51.3033 110.251 51.0608C110.411 50.9396 110.572 50.8992 110.732 50.8992C110.812 50.8992 110.893 50.8992 110.973 50.8992C111.093 50.9396 111.213 50.9396 111.374 50.98V49.8486C111.253 49.8082 111.093 49.7678 110.973 49.7274C110.812 49.687 110.612 49.687 110.452 49.687C110.251 49.687 110.051 49.7274 109.85 49.8082C109.65 49.889 109.489 49.9699 109.329 50.0911C109.169 50.2527 109.048 50.4143 108.968 50.576C108.888 50.778 108.808 51.0204 108.848 51.2629C108.848 51.3841 108.848 51.5053 108.888 51.6265C108.928 51.7477 108.968 51.869 109.008 51.9902H108.287V53.162H108.247Z" fill="white"/>
<path d="M122.198 51.2632H119.592V64.3549H122.198V51.2632Z" fill="white"/>
<path d="M138.314 66.2538C138.194 66.1325 138.033 66.0517 137.913 66.0113C137.592 65.8901 137.231 65.8901 136.911 66.0113C136.75 66.0517 136.63 66.173 136.51 66.2538C136.269 66.4962 136.149 66.8195 136.149 67.1427C136.149 67.466 136.269 67.7892 136.51 68.0316C136.63 68.1529 136.75 68.2337 136.911 68.2741C137.552 68.5569 138.314 68.2337 138.594 67.5872C138.715 67.2639 138.715 66.9407 138.594 66.6174C138.514 66.4962 138.434 66.375 138.314 66.2538Z" fill="white"/>
<path d="M142.523 56.6772V62.1725H133.944C133.583 62.1725 133.182 62.1725 132.822 62.1321C132.581 62.1321 132.341 62.0513 132.14 61.9301C131.98 61.8493 131.859 61.7281 131.779 61.5664C131.699 61.3644 131.659 61.1624 131.699 60.9603V58.1319H129.093V61.324C129.093 61.8089 129.173 62.2937 129.294 62.7382C129.414 63.1019 129.655 63.4655 129.975 63.708C130.376 63.9908 130.777 64.1524 131.258 64.2333C131.9 64.3545 132.581 64.4353 133.223 64.3949H145.169L145.129 56.6772H142.523Z" fill="white"/>
<path d="M166.056 62.1726H164.091C164.011 62.1726 163.931 62.1322 163.851 62.1322H161.005C161.285 61.8897 161.566 61.6473 161.806 61.3644C162.007 61.0816 162.207 60.7987 162.368 60.5159C162.528 60.2331 162.648 59.9502 162.728 59.6674C162.809 59.4249 162.849 59.1825 162.849 58.8996C162.849 58.536 162.768 58.2127 162.608 57.9299C162.448 57.6066 162.207 57.3238 161.927 57.0813C161.606 56.7985 161.205 56.5965 160.804 56.4753C160.283 56.3136 159.722 56.2328 159.2 56.2732C158.519 56.2732 157.837 56.3944 157.236 56.6369C156.635 56.8389 156.114 57.2026 155.713 57.647C155.633 57.7683 155.512 57.8895 155.432 58.0107C155.312 58.1723 155.232 58.3339 155.151 58.4956C155.071 58.6572 154.991 58.8592 154.911 59.0209C154.871 59.1825 154.791 59.3845 154.751 59.5461L156.755 62.0513C156.474 62.0917 156.154 62.1322 155.873 62.1322C155.552 62.1322 155.272 62.1726 154.991 62.1726L153.307 62.1322C153.227 62.1322 153.187 62.1322 153.107 62.1322H153.067C152.866 62.1322 152.706 62.0917 152.546 62.0513C152.385 62.0109 152.225 61.9301 152.105 61.8493C151.984 61.7281 151.864 61.6069 151.784 61.4452C151.704 61.2432 151.664 61.0412 151.664 60.7987V56.6773H149.058V63.6272C149.058 64.0313 149.058 64.4757 148.978 64.8798C148.938 65.1626 148.857 65.4051 148.657 65.6475C148.497 65.8091 148.296 65.9304 148.096 66.0112C147.815 66.092 147.534 66.1324 147.254 66.092H146.612V68.4356H147.214C147.855 68.4356 148.537 68.3547 149.178 68.1931C149.699 68.0315 150.18 67.7891 150.541 67.385C150.942 66.9809 151.183 66.4961 151.343 65.9708C151.503 65.2435 151.583 64.5161 151.583 63.7888C151.704 63.91 151.824 64.0313 151.944 64.1121C152.065 64.1929 152.225 64.2737 152.345 64.3141C152.465 64.3545 152.586 64.3545 152.746 64.3949C152.826 64.3949 152.946 64.3949 153.067 64.3949H153.227C153.267 64.3949 153.347 64.3949 153.387 64.3949H155.111C155.713 64.3949 156.314 64.3141 156.875 64.1929C157.477 64.0313 158.038 63.8696 158.599 63.6676C158.8 63.7888 158.96 63.91 159.16 63.9908C159.361 64.0717 159.561 64.1525 159.762 64.1929C159.962 64.2333 160.163 64.2737 160.363 64.3141C160.564 64.3141 160.724 64.3545 160.924 64.3545H163.49C163.57 64.3949 163.65 64.3949 163.731 64.3949H168.662V51.3032H166.056V62.1726ZM160.123 59.7886C160.042 59.9906 159.962 60.1522 159.882 60.3543C159.762 60.5563 159.641 60.7179 159.521 60.8796C159.361 61.0412 159.2 61.1624 159.04 61.2836C158.88 61.122 158.719 60.9604 158.559 60.7987C158.399 60.5967 158.238 60.3947 158.078 60.1522C157.918 59.9502 157.717 59.7078 157.597 59.5057C157.437 59.3037 157.316 59.1017 157.156 58.94C157.396 58.7784 157.637 58.6572 157.918 58.5764C158.278 58.4552 158.679 58.4148 159.08 58.4148C159.281 58.4148 159.481 58.4148 159.641 58.4956C159.762 58.536 159.882 58.6168 160.002 58.6976C160.082 58.7784 160.123 58.8592 160.163 58.9804C160.203 59.0613 160.203 59.1825 160.203 59.2633C160.203 59.4653 160.163 59.627 160.123 59.7886Z" fill="white"/>
<path d="M173.633 51.2632H171.027V64.3549H173.633V51.2632Z" fill="white"/>
<path d="M181.811 52.4751C181.811 52.6368 181.851 52.8388 181.932 52.96C181.972 53.1216 182.092 53.2833 182.212 53.3641C182.332 53.4853 182.493 53.5661 182.613 53.6065C182.773 53.6873 182.934 53.6873 183.094 53.6873C183.415 53.6873 183.736 53.5661 183.976 53.3237C184.096 53.2025 184.177 53.0812 184.257 52.9196C184.377 52.5964 184.377 52.2731 184.257 51.9498C184.177 51.7882 184.096 51.667 183.976 51.5458C183.736 51.3033 183.415 51.1821 183.094 51.1821C182.934 51.1821 182.773 51.2225 182.613 51.2629C182.132 51.465 181.811 51.9499 181.811 52.4751Z" fill="white"/>
<path d="M185.82 53.6064C186.462 53.8892 187.223 53.566 187.504 52.9195C187.624 52.5962 187.624 52.2729 187.504 51.9497C187.424 51.7881 187.344 51.6669 187.223 51.5456C187.103 51.4244 186.943 51.3436 186.823 51.2628C186.502 51.1416 186.141 51.1416 185.82 51.2628C185.66 51.3032 185.54 51.4244 185.419 51.5456C185.299 51.6669 185.219 51.7881 185.139 51.9497C185.059 52.1113 185.059 52.273 185.059 52.4346C185.059 52.7578 185.179 53.0811 185.419 53.3235C185.5 53.4447 185.66 53.566 185.82 53.6064Z" fill="white"/>
<path d="M195.081 52.1924C194.921 52.1924 194.76 52.2328 194.6 52.2732C194.119 52.4348 193.798 52.9197 193.798 53.445C193.798 53.6066 193.838 53.7682 193.918 53.9299C193.958 54.0915 194.079 54.2127 194.199 54.3339C194.319 54.4551 194.48 54.536 194.64 54.6168C194.8 54.6572 194.961 54.6976 195.121 54.6976C195.281 54.6976 195.442 54.6572 195.602 54.6168C195.923 54.4956 196.163 54.2531 196.284 53.9299C196.404 53.6066 196.404 53.2834 196.284 52.9601C196.203 52.7985 196.123 52.6773 196.003 52.556C195.722 52.3136 195.402 52.1924 195.081 52.1924Z" fill="white"/>
<path d="M209.634 66.2538C209.513 66.1325 209.353 66.0517 209.233 66.0113C208.912 65.8901 208.551 65.8901 208.23 66.0113C208.07 66.0517 207.95 66.173 207.83 66.2538C207.709 66.375 207.629 66.4962 207.549 66.6578C207.469 66.8195 207.469 66.9811 207.469 67.1427C207.469 67.466 207.589 67.7892 207.83 68.0316C207.95 68.1529 208.07 68.2337 208.23 68.3145C208.872 68.5973 209.634 68.2741 209.914 67.6276C210.035 67.3043 210.035 66.9811 209.914 66.6578C209.834 66.5366 209.754 66.375 209.634 66.2538Z" fill="white"/>
<path d="M206.426 66.2943C206.186 66.0519 205.865 65.9307 205.544 65.9307C205.384 65.9307 205.224 65.9711 205.063 66.0115C204.582 66.1731 204.261 66.658 204.261 67.1429C204.261 67.4661 204.422 67.7894 204.662 68.0318C204.783 68.153 204.943 68.2338 205.063 68.2742C205.224 68.3551 205.384 68.3551 205.544 68.3551C205.865 68.3551 206.186 68.2338 206.426 67.9914C206.547 67.8702 206.627 67.749 206.707 67.5873C206.827 67.2641 206.827 66.9408 206.707 66.6176C206.667 66.5368 206.547 66.4155 206.426 66.2943Z" fill="white"/>
<path d="M237.536 57.5258C237.175 57.1217 236.694 56.7985 236.173 56.5965C235.572 56.354 234.97 56.2328 234.329 56.2732C233.527 56.2732 232.765 56.4348 232.044 56.7581C231.322 57.0813 230.681 57.5258 230.119 58.0511C229.518 58.6168 228.997 59.2229 228.596 59.9098C228.155 60.6371 227.794 61.3644 227.473 62.1726C227.353 62.1726 227.233 62.1726 227.113 62.213C226.431 62.1322 225.95 61.5261 226.03 60.8391V57.5662H223.505V61.2432C223.505 61.4048 223.505 61.5665 223.424 61.7281C223.344 61.8493 223.264 61.9301 223.144 62.0109C222.983 62.0917 222.823 62.0917 222.663 62.1322C222.462 62.1322 222.222 62.1322 221.941 62.1322H221.099H219.977C219.937 61.3644 219.816 60.5967 219.616 59.8694C219.415 59.1825 219.095 58.536 218.654 58.0107C218.213 57.445 217.611 57.0005 216.97 56.7177C215.888 56.2732 214.725 56.152 213.602 56.2732C213.322 56.3136 213.081 56.354 212.801 56.3944C212.52 56.4348 212.32 56.5157 212.079 56.5561C211.879 56.5965 211.718 56.6369 211.518 56.7177V58.9804C211.758 58.8996 211.999 58.8592 212.239 58.8188C212.48 58.7784 212.72 58.738 212.921 58.6976C213.121 58.6572 213.322 58.6572 213.482 58.6168C213.602 58.6168 213.763 58.6168 213.883 58.6168C214.404 58.6168 214.965 58.6976 215.487 58.8592C215.888 59.0209 216.248 59.2633 216.529 59.5865C216.81 59.9098 217.01 60.3139 217.13 60.7179C217.251 61.2028 217.331 61.6877 217.371 62.1322H210.435C210.395 62.1322 210.355 62.1322 210.315 62.1322C210.034 62.1322 209.754 62.0917 209.473 62.0513C209.273 62.0109 209.112 61.9301 208.952 61.8089C208.832 61.7281 208.711 61.5665 208.671 61.4048C208.591 61.2028 208.551 61.0008 208.591 60.7987V56.6773H205.985V61.0412C205.985 61.2432 205.985 61.4452 205.905 61.6069C205.865 61.7281 205.785 61.8493 205.705 61.9705C205.584 62.0513 205.464 62.1322 205.304 62.1322C205.103 62.1322 204.903 62.1726 204.743 62.1726H203.139C203.099 62.1726 203.099 62.1726 203.059 62.1726H200.453C200.373 62.1726 200.293 62.1322 200.212 62.1322H198.93V60.3947C198.93 60.0714 198.889 59.7482 198.849 59.4249C198.809 59.1017 198.729 58.7784 198.609 58.4956C198.489 58.1723 198.328 57.8895 198.128 57.6066C197.927 57.3238 197.687 57.0813 197.406 56.8793C197.085 56.6773 196.765 56.5156 196.404 56.3944C195.963 56.2732 195.522 56.1924 195.081 56.1924C193.397 56.152 191.914 57.1622 191.313 58.7784C191.152 59.2633 191.032 59.7482 191.032 60.2735C191.032 60.4351 191.032 60.5563 191.032 60.7179C191.032 60.92 191.072 61.0816 191.072 61.2432C191.072 61.4048 191.112 61.5665 191.152 61.7281C191.192 61.8897 191.232 62.0109 191.272 62.1322L189.508 62.0917C189.428 62.0917 189.388 62.0917 189.308 62.0917H188.506C188.306 62.0917 188.105 62.0513 187.985 61.9301C187.865 61.7281 187.825 61.5261 187.865 61.324V55.5459H184.457C183.976 55.5459 183.455 55.6267 183.014 55.7479C182.533 55.8692 182.092 56.1116 181.691 56.4348C181.29 56.7581 180.929 57.1622 180.689 57.647C180.408 58.2127 180.288 58.8188 180.288 59.4249C180.288 59.8694 180.368 60.2735 180.488 60.6775C180.609 61.0008 180.769 61.324 180.969 61.6069C181.17 61.8493 181.41 62.0917 181.691 62.2534C181.972 62.415 182.212 62.5766 182.493 62.6574C182.773 62.7382 183.054 62.8191 183.335 62.8595C183.575 62.8999 183.816 62.8999 184.096 62.8999C184.337 62.8999 184.577 62.8999 184.818 62.8595C185.059 62.8595 185.299 62.8191 185.54 62.7382C185.62 63.0211 185.78 63.2635 185.981 63.506C186.181 63.708 186.381 63.8696 186.662 63.9908C186.943 64.1121 187.183 64.1929 187.504 64.2333C187.825 64.2737 188.145 64.3141 188.426 64.3141H189.549C189.629 64.3141 189.669 64.3141 189.749 64.3141H199.972C200.052 64.3141 200.132 64.3545 200.212 64.3545H203.099H205.103C205.384 64.3545 205.625 64.3141 205.905 64.3141C206.186 64.3141 206.426 64.2737 206.707 64.1929C206.948 64.1121 207.188 64.0313 207.429 63.91C207.669 63.7888 207.87 63.5868 207.99 63.3847C208.11 63.5868 208.27 63.7484 208.471 63.91C208.631 64.0313 208.832 64.1525 209.032 64.1929C209.233 64.2737 209.433 64.3141 209.634 64.3545C209.794 64.3545 209.914 64.3949 210.075 64.3949H210.115C210.155 64.3949 210.195 64.3949 210.275 64.3949H220.979H221.821C222.262 64.3949 222.663 64.3949 223.024 64.3545C223.344 64.3545 223.665 64.3141 223.986 64.2333C224.266 64.1929 224.507 64.0717 224.787 63.9504C225.028 63.7888 225.228 63.6272 225.389 63.4252C225.509 63.5464 225.629 63.708 225.79 63.7888C225.99 63.91 226.191 64.0313 226.391 64.1121C226.632 64.1929 226.912 64.2737 227.153 64.3141C227.473 64.3949 227.794 64.3949 228.075 64.3949H238.578V60.92C238.618 60.233 238.498 59.5865 238.298 58.9804C238.218 58.4552 237.937 57.9299 237.536 57.5258ZM184.818 60.7583C184.658 60.7583 184.457 60.7583 184.297 60.7583C184.056 60.7583 183.816 60.7179 183.615 60.6371C183.455 60.5563 183.295 60.4351 183.174 60.3139C183.094 60.1926 183.014 60.031 182.974 59.8694C182.934 59.7078 182.934 59.5461 182.894 59.3845C182.894 59.1825 182.894 58.9804 182.974 58.8188C183.014 58.6572 183.134 58.4552 183.254 58.3339C183.375 58.1723 183.535 58.0915 183.736 58.0107C183.936 57.9299 184.177 57.8895 184.377 57.8895H185.379V60.7179C185.179 60.7179 185.018 60.7179 184.818 60.7583ZM196.364 62.1726H195.201C195.001 62.1726 194.76 62.1321 194.56 62.0513C194.359 61.9705 194.199 61.8493 194.039 61.6877C193.878 61.5261 193.758 61.2836 193.678 61.0816C193.598 60.7987 193.558 60.5159 193.558 60.1926C193.558 59.9906 193.598 59.7886 193.638 59.5865C193.678 59.3845 193.758 59.2229 193.878 59.0613C193.999 58.8996 194.159 58.7784 194.319 58.6976C194.52 58.5764 194.76 58.536 195.001 58.536C195.241 58.4956 195.482 58.5764 195.682 58.6976C195.883 58.8188 196.003 58.94 196.083 59.1421C196.163 59.3441 196.244 59.5461 196.284 59.7886C196.284 60.031 196.324 60.2735 196.324 60.5159V62.1726H196.364ZM236.053 62.1726H230.039C230.28 61.6877 230.52 61.2028 230.841 60.7583C231.122 60.3543 231.442 59.9502 231.763 59.6269C232.084 59.3037 232.445 59.0613 232.845 58.8592C233.206 58.6572 233.647 58.5764 234.048 58.5764C234.369 58.5764 234.73 58.6572 235.01 58.8188C235.291 58.9804 235.491 59.1825 235.612 59.4653C235.772 59.7482 235.852 60.031 235.932 60.3543C235.973 60.6775 236.013 61.0008 236.013 61.324V62.1726H236.053Z" fill="white"/>
</svg>
