<svg xmlns="http://www.w3.org/2000/svg" width="16.75" height="16" viewBox="0 0 16.75 16">
  <g id="Group_5227" data-name="Group 5227" transform="translate(-87.031 -2.488)">
    <path id="Shape" d="M2.186,4.258a2.172,2.172,0,0,1-.852-.167,2.222,2.222,0,0,1-.695-.456A2.122,2.122,0,0,1,.17,2.955,2.089,2.089,0,0,1,.17,1.3,2.145,2.145,0,0,1,.639.622,2.271,2.271,0,0,1,1.334.167a2.265,2.265,0,0,1,1.7,0,2.292,2.292,0,0,1,.695.455A2.11,2.11,0,0,1,4.2,1.3a2.1,2.1,0,0,1-.467,2.331,2.229,2.229,0,0,1-.695.456A2.185,2.185,0,0,1,2.186,4.258Zm0-3.1a.959.959,0,0,0-.7.281.94.94,0,0,0-.284.688.979.979,0,0,0,.98.971.977.977,0,0,0,.979-.971.946.946,0,0,0-.283-.688A.959.959,0,0,0,2.186,1.16Z" transform="translate(87.031 3.779)" fill="#959292"/>
    <text id="headline_copy_6" data-name="headline copy 6" transform="translate(91.782 14.488)" fill="#959292" font-size="16" font-family="Helvetica"><tspan x="0" y="0">C</tspan></text>
  </g>
</svg>
