<svg xmlns="http://www.w3.org/2000/svg" width="30.908" height="27.521" viewBox="0 0 30.908 27.521">
  <g id="cloud_windy" data-name="cloud + windy" transform="translate(0.75 0.754)">
    <path id="Path_14955" data-name="Path 14955" d="M8.641,8.917a8.98,8.98,0,0,0,.077,1.166,8.74,8.74,0,0,1,.106-2.906" transform="translate(1.673 0.398)" fill="none" stroke="#959292" stroke-linecap="round" stroke-linejoin="round" stroke-width="1.5"/>
    <path id="Path_14956" data-name="Path 14956" d="M23.1,19.556a9.343,9.343,0,0,0,6.6-8.86A9.564,9.564,0,0,0,10.784,8.954a6.039,6.039,0,0,0-2.567-.586,5.9,5.9,0,0,0-5.967,5.82,5.725,5.725,0,0,0,.085.987" transform="translate(-0.289 -1.382)" fill="none" stroke="#959292" stroke-linecap="round" stroke-linejoin="round" stroke-width="1.5"/>
    <path id="Path_14957" data-name="Path 14957" d="M.75,18.287H16.435A1.961,1.961,0,0,1,18.4,20.248h0a1.961,1.961,0,0,1-1.961,1.961h-.98" transform="translate(-0.75 3.809)" fill="none" stroke="#959292" stroke-linecap="round" stroke-linejoin="round" stroke-width="1.5"/>
    <path id="Path_14958" data-name="Path 14958" d="M.75,16.208H11.533a1.961,1.961,0,0,0,1.961-1.961h0a1.961,1.961,0,0,0-1.961-1.961h-.98" transform="translate(-0.75 1.966)" fill="none" stroke="#959292" stroke-linecap="round" stroke-linejoin="round" stroke-width="1.5"/>
  </g>
</svg>
