<svg xmlns="http://www.w3.org/2000/svg" width="25.684" height="28.301" viewBox="0 0 25.684 28.301">
  <g id="thunder" transform="translate(0.752 0.757)">
    <path id="Path_14959" data-name="Path 14959" d="M9.159,8.759A8.4,8.4,0,0,0,9.225,9.81a8.4,8.4,0,0,1-.066-1.051,8.192,8.192,0,0,1,.158-1.572" transform="translate(-1.802 -0.353)" fill="none" stroke="#959292" stroke-linecap="round" stroke-linejoin="round" stroke-width="1.5"/>
    <path id="Path_14960" data-name="Path 14960" d="M19.671,19.121a8.406,8.406,0,1,0-8.248-9.978,5.247,5.247,0,1,0-2.26,9.978Z" transform="translate(-3.908 -2.309)" fill="none" stroke="#959292" stroke-linecap="round" stroke-linejoin="round" stroke-width="1.5"/>
    <path id="Path_14961" data-name="Path 14961" d="M13.362,14.309l-4.2,4.2h6.3L10.21,23.766" transform="translate(-1.802 2.503)" fill="none" stroke="#959292" stroke-linecap="round" stroke-linejoin="round" stroke-width="1.5"/>
    <path id="Path_14962" data-name="Path 14962" d="M5.934,21.735a.525.525,0,1,1,0-1.051" transform="translate(-3.306 5.059)" fill="none" stroke="#959292" stroke-width="1.5"/>
    <path id="Path_14963" data-name="Path 14963" d="M5.784,21.735a.525.525,0,1,0,0-1.051" transform="translate(-3.156 5.059)" fill="none" stroke="#959292" stroke-width="1.5"/>
    <g id="Group_5207" data-name="Group 5207" transform="translate(15.763 25.743)">
      <path id="Path_14964" data-name="Path 14964" d="M15.684,21.735a.525.525,0,1,1,0-1.051" transform="translate(-15.159 -20.684)" fill="none" stroke="#959292" stroke-width="1.5"/>
      <path id="Path_14965" data-name="Path 14965" d="M15.534,21.735a.525.525,0,1,0,0-1.051" transform="translate(-15.009 -20.684)" fill="none" stroke="#959292" stroke-width="1.5"/>
    </g>
  </g>
</svg>
