<svg xmlns="http://www.w3.org/2000/svg" width="24.652" height="24.641" viewBox="0 0 24.652 24.641">
  <g id="Group_5016" data-name="Group 5016" transform="translate(0.75 0.754)">
    <path id="Path_14896" data-name="Path 14896" d="M30.3,15.856,19.5,12l2.314,3.856L19.5,19.713Z" transform="translate(-10.244 -6.603)" fill="none" stroke="#2c8a82" stroke-linecap="round" stroke-linejoin="round" stroke-width="1.5"/>
    <path id="Path_14897" data-name="Path 14897" d="M1.5,40.5H12.3a1.543,1.543,0,0,1,1.543,1.543h0A1.543,1.543,0,0,1,12.3,43.585h-.771" transform="translate(-1.5 -20.448)" fill="none" stroke="#c2c6c6" stroke-linecap="round" stroke-linejoin="round" stroke-width="1.5"/>
    <path id="Path_14898" data-name="Path 14898" d="M1.5,31.585H6.9a1.543,1.543,0,0,0,1.543-1.543h0A1.543,1.543,0,0,0,6.9,28.5H6.128" transform="translate(-1.5 -14.619)" fill="none" stroke="#c2c6c6" stroke-linecap="round" stroke-linejoin="round" stroke-width="1.5"/>
    <path id="Path_14899" data-name="Path 14899" d="M22.15,19.7A9.256,9.256,0,1,0,10.5,10.757a9.358,9.358,0,0,0,.135,1.585" transform="translate(-5.872 -1.504)" fill="none" stroke="#c2c6c6" stroke-linecap="round" stroke-linejoin="round" stroke-width="1.5"/>
  </g>
</svg>
