<svg xmlns="http://www.w3.org/2000/svg" width="25.258" height="24.949" viewBox="0 0 25.258 24.949">
  <g id="Group_5014" data-name="Group 5014" transform="translate(1.059 1.061)">
    <line id="Line_89" data-name="Line 89" y1="8.484" transform="translate(15.426 0)" fill="none" stroke="#2c8a82" stroke-linecap="round" stroke-linejoin="round" stroke-width="1.5"/>
    <line id="Line_90" data-name="Line 90" x2="2.314" y2="2.314" transform="translate(15.426 0)" fill="none" stroke="#2c8a82" stroke-linecap="round" stroke-linejoin="round" stroke-width="1.5"/>
    <line id="Line_91" data-name="Line 91" x1="2.314" y2="2.314" transform="translate(13.112 0)" fill="none" stroke="#2c8a82" stroke-linecap="round" stroke-linejoin="round" stroke-width="1.5"/>
    <line id="Line_92" data-name="Line 92" y1="8.484" transform="translate(7.713 0)" fill="none" stroke="#2c8a82" stroke-linecap="round" stroke-linejoin="round" stroke-width="1.5"/>
    <line id="Line_93" data-name="Line 93" x2="2.314" y2="2.314" transform="translate(7.713 0)" fill="none" stroke="#2c8a82" stroke-linecap="round" stroke-linejoin="round" stroke-width="1.5"/>
    <line id="Line_94" data-name="Line 94" x1="2.314" y2="2.314" transform="translate(5.399 0)" fill="none" stroke="#2c8a82" stroke-linecap="round" stroke-linejoin="round" stroke-width="1.5"/>
    <path id="Path_14891" data-name="Path 14891" d="M1.5,33.982a9.238,9.238,0,0,1,6.17-2.314c3.856,0,10.8,6.513,16.969.342" transform="translate(-1.5 -16.156)" fill="none" stroke="#c2c6c6" stroke-linecap="round" stroke-linejoin="round" stroke-width="1.5"/>
    <path id="Path_14892" data-name="Path 14892" d="M1.5,24.982a9.238,9.238,0,0,1,6.17-2.314c3.856,0,10.8,6.513,16.969.342" transform="translate(-1.5 -11.783)" fill="none" stroke="#c2c6c6" stroke-linecap="round" stroke-linejoin="round" stroke-width="1.5"/>
    <path id="Path_14893" data-name="Path 14893" d="M1.5,42.982a9.238,9.238,0,0,1,6.17-2.314c3.856,0,10.8,6.513,16.969.342" transform="translate(-1.5 -20.528)" fill="none" stroke="#c2c6c6" stroke-linecap="round" stroke-linejoin="round" stroke-width="1.5"/>
  </g>
</svg>
