<svg xmlns="http://www.w3.org/2000/svg" width="24.66" height="24.66" viewBox="0 0 24.66 24.66">
  <g id="Group_5017" data-name="Group 5017" transform="translate(0.772 0.773)">
    <path id="Path_14900" data-name="Path 14900" d="M30.848,30.124a4.024,4.024,0,0,0,8.048,0c0-3.018-2.013-7.042-4.024-9.05a13.78,13.78,0,0,0-4.024,9.05Z" transform="translate(-15.758 -11.011)" fill="none" stroke="#2c8a82" stroke-linejoin="round" stroke-width="1.5"/>
    <circle id="Ellipse_75" data-name="Ellipse 75" cx="1.5" cy="1.5" r="1.5" transform="translate(8 7.605)" fill="none" stroke="#c2c6c6" stroke-linejoin="round" stroke-width="1.5"/>
    <line id="Line_99" data-name="Line 99" y1="4.359" x2="3.488" transform="translate(10.394 3.855)" fill="none" stroke="#c2c6c6" stroke-linecap="round" stroke-linejoin="round" stroke-width="1.5"/>
    <path id="Path_14901" data-name="Path 14901" d="M12.941,19.755A9.256,9.256,0,1,1,19.615,8.07" transform="translate(-1.501 -1.503)" fill="none" stroke="#c2c6c6" stroke-linecap="round" stroke-linejoin="round" stroke-width="1.5"/>
    <path id="Path_14902" data-name="Path 14902" d="M17.965,10.335a5.4,5.4,0,0,0-7.983,7.147" transform="translate(-5.149 -5.143)" fill="none" stroke="#c2c6c6" stroke-linecap="round" stroke-linejoin="round" stroke-width="1.5"/>
    <path id="Path_14903" data-name="Path 14903" d="M28.1,22.585a5.365,5.365,0,0,0,.977-3.085" transform="translate(-14.423 -10.246)" fill="none" stroke="#c2c6c6" stroke-linecap="round" stroke-linejoin="round" stroke-width="1.5"/>
  </g>
</svg>
