<svg xmlns="http://www.w3.org/2000/svg" width="24.639" height="24.639" viewBox="0 0 24.639 24.639">
  <g id="Group_5018" data-name="Group 5018" transform="translate(0.75 0.75)">
    <path id="Path_14904" data-name="Path 14904" d="M9,19.628S12.085,15,16.713,15s7.713,4.628,7.713,4.628-3.085,4.628-7.713,4.628S9,19.628,9,19.628Z" transform="translate(-5.144 -8.058)" fill="none" stroke="#2c8a82" stroke-linecap="round" stroke-linejoin="round" stroke-width="1.5"/>
    <rect id="Rectangle_915" data-name="Rectangle 915" width="3.856" height="3.856" rx="1.928" transform="translate(9.641 9.641)" fill="none" stroke="#2c8a82" stroke-linecap="round" stroke-linejoin="round" stroke-width="1.5"/>
    <path id="Path_14905" data-name="Path 14905" d="M1.5,5.356V3.043A1.543,1.543,0,0,1,3.043,1.5H5.356" transform="translate(-1.5 -1.5)" fill="none" stroke="#c2c6c6" stroke-linecap="round" stroke-linejoin="round" stroke-width="1.5"/>
    <path id="Path_14906" data-name="Path 14906" d="M42.856,5.356V3.043A1.543,1.543,0,0,0,41.314,1.5H39" transform="translate(-19.718 -1.5)" fill="none" stroke="#c2c6c6" stroke-linecap="round" stroke-linejoin="round" stroke-width="1.5"/>
    <path id="Path_14907" data-name="Path 14907" d="M1.5,39v2.314a1.543,1.543,0,0,0,1.543,1.543H5.356" transform="translate(-1.5 -19.718)" fill="none" stroke="#c2c6c6" stroke-linecap="round" stroke-linejoin="round" stroke-width="1.5"/>
    <path id="Path_14908" data-name="Path 14908" d="M42.856,39v2.314a1.543,1.543,0,0,1-1.543,1.543H39" transform="translate(-19.718 -19.718)" fill="none" stroke="#c2c6c6" stroke-linecap="round" stroke-linejoin="round" stroke-width="1.5"/>
  </g>
</svg>
