<svg xmlns="http://www.w3.org/2000/svg" width="25.003" height="24.697" viewBox="0 0 25.003 24.697">
  <g id="Group_5015" data-name="Group 5015" transform="translate(0.884 0.75)">
    <path id="Path_14894" data-name="Path 14894" d="M34.774,12.326,31.592,15.52a.8.8,0,0,1-.749.229l-3.5-.8a.806.806,0,0,0-.792.276L22.5,19.871" transform="translate(-11.716 -6.759)" fill="none" stroke="#c2c6c6" stroke-linecap="round" stroke-linejoin="round" stroke-width="1.5"/>
    <path id="Path_14895" data-name="Path 14895" d="M9.226,16.584v-12a3.085,3.085,0,0,0-6.17,0v12a4.628,4.628,0,1,0,6.17,0Z" transform="translate(-1.528 -1.5)" fill="none" stroke="#c2c6c6" stroke-linecap="round" stroke-linejoin="round" stroke-width="1.5"/>
    <line id="Line_95" data-name="Line 95" y2="13.883" transform="translate(4.613 3.085)" fill="none" stroke="#2c8a82" stroke-linecap="round" stroke-linejoin="round" stroke-width="1.5"/>
    <ellipse id="Ellipse_74" data-name="Ellipse 74" cx="1.543" cy="1.543" rx="1.543" ry="1.543" transform="translate(3.071 16.969)" fill="none" stroke="#2c8a82" stroke-linecap="round" stroke-linejoin="round" stroke-width="1.5"/>
    <line id="Line_96" data-name="Line 96" x2="1.543" transform="translate(12.326 18.511)" fill="none" stroke="#2c8a82" stroke-linecap="round" stroke-linejoin="round" stroke-width="1.5"/>
    <line id="Line_97" data-name="Line 97" x2="1.543" transform="translate(16.954 18.511)" fill="none" stroke="#2c8a82" stroke-linecap="round" stroke-linejoin="round" stroke-width="1.5"/>
    <line id="Line_98" data-name="Line 98" x2="1.543" transform="translate(21.582 18.511)" fill="none" stroke="#2c8a82" stroke-linecap="round" stroke-linejoin="round" stroke-width="1.5"/>
  </g>
</svg>
