<svg xmlns="http://www.w3.org/2000/svg" xmlns:xlink="http://www.w3.org/1999/xlink" width="25.528" height="19.953" viewBox="0 0 25.528 19.953">
  <defs>
    <clipPath id="clip-path">
      <rect id="Rectangle_917" data-name="Rectangle 917" width="25.528" height="19.953" fill="none"/>
    </clipPath>
  </defs>
  <g id="Group_5039" data-name="Group 5039" clip-path="url(#clip-path)">
    <path id="Path_14914" data-name="Path 14914" d="M191.614,2.174l2.7,4.151a6.03,6.03,0,0,0-1.059,2.746l-4.126.876,4.166.884a6.035,6.035,0,0,0,1.166,2.672l-2.784,4.284,4.369-2.839a6.026,6.026,0,0,0,2.374.87l.854,4.025h0l.807-3.8a6.03,6.03,0,0,0,2.7-1.065l4.147,2.695-2.7-4.151a6.03,6.03,0,0,0,1.059-2.745l4.126-.876-4.166-.884a6.035,6.035,0,0,0-1.166-2.672l2.784-4.284L202.5,4.9a6.026,6.026,0,0,0-2.374-.87L199.272,0h0l-.807,3.8a6.03,6.03,0,0,0-2.7,1.065Z" transform="translate(-183.888)" fill="#fac826"/>
    <path id="Path_14915" data-name="Path 14915" d="M393.872,159.748a5.8,5.8,0,0,1-1.191,3.531,5.828,5.828,0,1,0-8.495-7.9,5.828,5.828,0,0,1,9.686,4.367" transform="translate(-373.543 -148.843)" fill="#f9ba06"/>
    <path id="Path_14916" data-name="Path 14916" d="M20.625,259.438h0s0,0,0,0a0,0,0,0,1,0,0,.021.021,0,0,1,0,.008v.014c0,.076,0,.152-.011.227a2.448,2.448,0,0,1-.874,1.625,2.908,2.908,0,0,1-1.854.675h-.031a2.937,2.937,0,0,1-1.614-.475c-.02.069-.041.138-.066.2h0a2.783,2.783,0,0,1-.151.339,3,3,0,0,1-.471.656,3.363,3.363,0,0,1-1.138.785,3.729,3.729,0,0,1-1.454.291,3.518,3.518,0,0,1-2.751-1.26,3.519,3.519,0,0,1-2.752,1.26,3.386,3.386,0,0,1-3.17-1.96,4.342,4.342,0,0,1-.586.251,11.6,11.6,0,0,1-3.1-4.61h0c-.077-.212-.149-.428-.213-.645a4.954,4.954,0,0,1,.832-.2l.055-.008-.007-.038h0c-.013-.074-.023-.149-.031-.224h0a3.245,3.245,0,0,1-.02-.355c0-.007,0-.014,0-.02a.009.009,0,0,1,0-.006v-.013a3.5,3.5,0,0,1,4.965-3.105,3.544,3.544,0,0,1,3.241-2.068,3.589,3.589,0,0,1,1.551.35,3.518,3.518,0,0,1,.56.333,3.469,3.469,0,0,1,1.179,1.5,3.392,3.392,0,0,1,.229.9,3.638,3.638,0,0,1,.6-.051,3.568,3.568,0,0,1,2.48.991l.019.018a3.493,3.493,0,0,1,.545.684,3.392,3.392,0,0,1,.487,1.52,3.006,3.006,0,0,1,.781-.1h.031a3,3,0,0,1,.945.161,2.814,2.814,0,0,1,.965.563c.028.025.055.05.082.076h0c.03.03.06.06.089.091a2.563,2.563,0,0,1,.226.28,2.452,2.452,0,0,1,.28.53c.02.051.037.1.053.154a2.313,2.313,0,0,1,.1.646" transform="translate(-0.374 -243.842)" fill="#fff"/>
    <path id="Path_14917" data-name="Path 14917" d="M.9,460.914a5.048,5.048,0,0,0-.674.144c-.077-.212-.149-.427-.213-.645,0-.011-.007-.023-.011-.034a4.912,4.912,0,0,1,.844-.207c0,.013,0,.026,0,.039,0,.029,0,.056,0,.085a3.455,3.455,0,0,0,.057.618" transform="translate(0 -447.424)" fill="#d0d2d3"/>
    <path id="Path_14918" data-name="Path 14918" d="M33.856,251.9a3.515,3.515,0,0,1,1.466.319,3.559,3.559,0,0,1,6.76,1.019,3.636,3.636,0,0,1,.6-.051,3.508,3.508,0,0,1,3.53,3.213,3.016,3.016,0,0,1,.781-.1,2.7,2.7,0,0,1,2.739,2.153,2.33,2.33,0,0,0,.031-.375A2.657,2.657,0,0,0,47,255.543a3.013,3.013,0,0,0-.781.1,3.508,3.508,0,0,0-3.53-3.213,3.636,3.636,0,0,0-.6.051,3.559,3.559,0,0,0-6.76-1.019,3.5,3.5,0,0,0-4.965,3.144,3.375,3.375,0,0,0,.021.371,3.486,3.486,0,0,1,3.477-3.083" transform="translate(-29.516 -242.488)" fill="#d0d2d3"/>
    <path id="Path_14919" data-name="Path 14919" d="M30.488,450.929c-.009.085-.015.17-.018.256l.054-.008c-.015-.082-.026-.164-.035-.248" transform="translate(-29.626 -438.438)" fill="#d0d2d3"/>
  </g>
</svg>
