<svg width="19" height="30" viewBox="0 0 19 30" fill="none" xmlns="http://www.w3.org/2000/svg">
<path d="M14.9286 0H4.07143C2.99163 0 1.95604 0.474012 1.1925 1.31776C0.428963 2.1615 1.06982e-05 3.30587 1.06982e-05 4.49911V28.4943C-0.000938714 28.7586 0.0613191 29.0184 0.180481 29.2476C0.299642 29.4767 0.471476 29.6669 0.678581 29.7991C0.884893 29.9307 1.11892 30 1.35715 30C1.59538 30 1.82941 29.9307 2.03572 29.7991L9.5 25.03L16.9643 29.7991C17.1711 29.9286 17.4051 29.9959 17.6428 29.994C17.8806 29.9959 18.1146 29.9286 18.3214 29.7991C18.5285 29.6669 18.7004 29.4767 18.8195 29.2476C18.9387 29.0184 19.0009 28.7586 19 28.4943V4.49911C19 3.30587 18.571 2.1615 17.8075 1.31776C17.044 0.474012 16.0084 0 14.9286 0ZM16.2857 25.8999L10.1786 22.0006C9.97226 21.869 9.73823 21.7997 9.5 21.7997C9.26177 21.7997 9.02774 21.869 8.82143 22.0006L2.71429 25.8999V4.49911C2.71429 4.10136 2.85728 3.71991 3.11179 3.43866C3.3663 3.15741 3.7115 2.9994 4.07143 2.9994H14.9286C15.2885 2.9994 15.6337 3.15741 15.8882 3.43866C16.1427 3.71991 16.2857 4.10136 16.2857 4.49911V25.8999Z" fill="black"/>
</svg>
