<svg width="40" height="28" viewBox="0 0 40 28" fill="none" xmlns="http://www.w3.org/2000/svg">
<path d="M17.985 26L15.147 18.707H5.808L3.003 26H0L9.207 2.339H11.88L21.054 26H17.985ZM11.616 8.939C11.55 8.763 11.44 8.444 11.286 7.982C11.132 7.52 10.978 7.047 10.824 6.563C10.692 6.057 10.582 5.672 10.494 5.408C10.384 5.848 10.263 6.299 10.131 6.761C10.021 7.201 9.9 7.608 9.768 7.982C9.658 8.356 9.559 8.675 9.471 8.939L6.798 16.067H14.256L11.616 8.939ZM30.5802 8.015C32.7362 8.015 34.3312 8.488 35.3652 9.434C36.3992 10.38 36.9162 11.887 36.9162 13.955V26H34.8042L34.2432 23.492H34.1112C33.6052 24.13 33.0772 24.669 32.5272 25.109C31.9992 25.527 31.3832 25.835 30.6792 26.033C29.9972 26.231 29.1612 26.33 28.1712 26.33C27.1152 26.33 26.1582 26.143 25.3002 25.769C24.4642 25.395 23.8042 24.823 23.3202 24.053C22.8362 23.261 22.5942 22.271 22.5942 21.083C22.5942 19.323 23.2872 17.97 24.6732 17.024C26.0592 16.056 28.1932 15.528 31.0752 15.44L34.0782 15.341V14.285C34.0782 12.811 33.7592 11.788 33.1212 11.216C32.4832 10.644 31.5812 10.358 30.4152 10.358C29.4912 10.358 28.6112 10.501 27.7752 10.787C26.9392 11.051 26.1582 11.359 25.4322 11.711L24.5412 9.533C25.3112 9.115 26.2242 8.763 27.2802 8.477C28.3362 8.169 29.4362 8.015 30.5802 8.015ZM31.4382 17.453C29.2382 17.541 27.7092 17.893 26.8512 18.509C26.0152 19.125 25.5972 19.994 25.5972 21.116C25.5972 22.106 25.8942 22.832 26.4882 23.294C27.1042 23.756 27.8852 23.987 28.8312 23.987C30.3272 23.987 31.5702 23.58 32.5602 22.766C33.5502 21.93 34.0452 20.654 34.0452 18.938V17.354L31.4382 17.453Z" fill="black"/>
</svg>
