<svg width="37" height="36" viewBox="0 0 37 36" fill="none" xmlns="http://www.w3.org/2000/svg">
<path fill-rule="evenodd" clip-rule="evenodd" d="M23.5356 7.60059C23.6562 7.60059 23.7722 7.55469 23.8585 7.47268C23.9428 7.38863 23.99 7.27586 23.99 7.15843C23.99 7.04101 23.9428 6.92824 23.8585 6.84419L18.8882 2.00669L18.8095 1.93018C18.7341 1.85703 18.635 1.81146 18.529 1.80119C18.5054 1.79967 18.4817 1.79967 18.458 1.80119C18.3526 1.8118 18.2541 1.85734 18.179 1.93018L18.0958 2.01119L13.1285 6.84268C13.075 6.88119 13.0306 6.9305 12.9985 6.98722C12.9663 7.04394 12.9471 7.10676 12.9422 7.17136C12.9373 7.23596 12.9468 7.30084 12.97 7.36154C12.9932 7.42225 13.0297 7.47737 13.0768 7.52312C13.1239 7.56887 13.1807 7.60418 13.2431 7.62664C13.3056 7.64909 13.3723 7.65817 13.4386 7.65324C13.505 7.64831 13.5696 7.62949 13.6278 7.59807C13.686 7.56665 13.7366 7.52337 13.776 7.47118L18.0449 3.31618V19.3842C18.0617 19.4904 18.117 19.5873 18.2009 19.6572C18.2847 19.7272 18.3915 19.7656 18.502 19.7656C18.6124 19.7656 18.7193 19.7272 18.8031 19.6572C18.8869 19.5873 18.9423 19.4904 18.9591 19.3842V3.33419L23.2126 7.47268C23.299 7.55469 23.4149 7.60059 23.5356 7.60059ZM8.72401 34.1262H28.2831V34.1277C28.9854 34.1019 29.6487 33.8065 30.1277 33.3061C30.6067 32.8058 30.8625 32.1411 30.8392 31.4577V15.4707C30.8432 14.8922 30.6604 14.3272 30.3166 13.8552C30.09 13.5334 29.7867 13.2698 29.4325 13.087C29.0784 12.9041 28.684 12.8074 28.2831 12.8052H25.3694C25.2602 12.8216 25.1607 12.8754 25.0888 12.957C25.0169 13.0386 24.9773 13.1425 24.9773 13.25C24.9773 13.3574 25.0169 13.4613 25.0888 13.5429C25.1607 13.6245 25.2602 13.6783 25.3694 13.6947H28.2831C28.5506 13.6966 28.8137 13.7616 29.0497 13.8841C29.2857 14.0067 29.4877 14.1831 29.6383 14.3982C29.8674 14.7123 29.9893 15.0885 29.9867 15.4737V31.4577C30.0021 31.9131 29.8315 32.3559 29.5123 32.6893C29.193 33.0227 28.7511 33.2195 28.2831 33.2367H8.71783C8.24986 33.2195 7.80792 33.0227 7.48868 32.6893C7.16944 32.3559 6.99889 31.9131 7.0143 31.4577V15.4707C7.01173 15.0767 7.13927 14.6923 7.37813 14.3742C7.52951 14.1649 7.73003 13.9938 7.96305 13.8751C8.19606 13.7564 8.45482 13.6935 8.71783 13.6917H11.5483C11.6575 13.6753 11.757 13.6215 11.829 13.5399C11.9009 13.4584 11.9404 13.3544 11.9404 13.247C11.9404 13.1395 11.9009 13.0356 11.829 12.954C11.757 12.8724 11.6575 12.8186 11.5483 12.8022H8.71783C8.32443 12.8055 7.9375 12.8999 7.589 13.0775C7.24051 13.2551 6.94046 13.5109 6.71368 13.8237C6.35417 14.3023 6.16279 14.8809 6.16792 15.4737V31.4577C6.14501 32.1409 6.40103 32.8051 6.88001 33.3052C7.359 33.8052 8.02198 34.1004 8.72401 34.1262Z" fill="black"/>
<path d="M23.8585 7.47268L24.4437 8.08915L24.4513 8.08194L24.4588 8.07455L23.8585 7.47268ZM23.8585 6.84419L24.4588 6.24228L24.4514 6.23506L23.8585 6.84419ZM18.8882 2.00669L19.4811 1.39756L19.4808 1.39733L18.8882 2.00669ZM18.8095 1.93018L19.4021 1.32082L19.4012 1.31988L18.8095 1.93018ZM18.529 1.80119L18.611 0.955152L18.5973 0.953821L18.5835 0.952937L18.529 1.80119ZM18.458 1.80119L18.4035 0.952936L18.3882 0.95392L18.373 0.955456L18.458 1.80119ZM18.179 1.93018L17.5871 1.32019L17.5862 1.32105L18.179 1.93018ZM18.0958 2.01119L18.6884 2.6205L18.6886 2.62032L18.0958 2.01119ZM13.1285 6.84268L13.6248 7.53272L13.676 7.49593L13.7212 7.45199L13.1285 6.84268ZM12.9985 6.98722L13.7379 7.40637L13.7379 7.40637L12.9985 6.98722ZM12.9422 7.17136L12.0946 7.10695V7.10695L12.9422 7.17136ZM12.97 7.36154L13.7639 7.05779L13.7639 7.05779L12.97 7.36154ZM13.0768 7.52312L13.6688 6.9132L13.6688 6.91319L13.0768 7.52312ZM13.2431 7.62664L13.5307 6.82678L13.5307 6.82678L13.2431 7.62664ZM13.4386 7.65324L13.3757 6.80557L13.3757 6.80557L13.4386 7.65324ZM13.6278 7.59807L13.2241 6.85003L13.2241 6.85003L13.6278 7.59807ZM13.776 7.47118L13.1832 6.86208L13.1369 6.90709L13.098 6.95858L13.776 7.47118ZM18.0449 3.31618H18.8949V1.30269L17.452 2.70708L18.0449 3.31618ZM18.0449 19.3842H17.1949V19.4511L17.2053 19.5172L18.0449 19.3842ZM18.2009 19.6572L17.6563 20.3098L17.6563 20.3098L18.2009 19.6572ZM18.9591 19.3842L19.7986 19.5172L19.8091 19.4511V19.3842H18.9591ZM18.9591 3.33419L19.5519 2.72497L18.1091 1.32121V3.33419H18.9591ZM23.2126 7.47268L22.6198 8.08195L22.6274 8.08916L23.2126 7.47268ZM28.2831 34.1262H29.1331V33.2762H28.2831V34.1262ZM8.72401 34.1262L8.69279 34.9756L8.70839 34.9762H8.72401V34.1262ZM28.2831 34.1277H27.4331V35.0095L28.3143 34.9771L28.2831 34.1277ZM30.1277 33.3061L30.7417 33.8939H30.7417L30.1277 33.3061ZM30.8392 31.4577H29.9892V31.4722L29.9897 31.4867L30.8392 31.4577ZM30.8392 15.4707L29.9892 15.4648V15.4707H30.8392ZM30.3166 13.8552L29.6215 14.3447L29.6296 14.3557L30.3166 13.8552ZM29.4325 13.087L29.8225 12.3317L29.8225 12.3317L29.4325 13.087ZM28.2831 12.8052L28.2878 11.9552H28.2831V12.8052ZM25.3694 12.8052V11.9552H25.306L25.2433 11.9646L25.3694 12.8052ZM25.0888 12.957L25.7264 13.5191L25.7264 13.5191L25.0888 12.957ZM25.0888 13.5429L25.7264 12.9808L25.7264 12.9808L25.0888 13.5429ZM25.3694 13.6947L25.2433 14.5353L25.306 14.5447H25.3694V13.6947ZM28.2831 13.6947L28.2892 12.8447H28.2831V13.6947ZM29.0497 13.8841L29.4413 13.1297L29.4413 13.1297L29.0497 13.8841ZM29.6383 14.3982L28.9419 14.8856L28.9466 14.8924L28.9515 14.8991L29.6383 14.3982ZM29.9867 15.4737L29.1367 15.468V15.4737H29.9867ZM29.9867 31.4577H29.1367V31.4721L29.1372 31.4865L29.9867 31.4577ZM29.5123 32.6893L30.1262 33.2772L30.1262 33.2772L29.5123 32.6893ZM28.2831 33.2367V34.0867H28.2987L28.3144 34.0861L28.2831 33.2367ZM8.71783 33.2367L8.68661 34.0861L8.70222 34.0867H8.71783V33.2367ZM7.0143 31.4577L7.86381 31.4865L7.8643 31.4721V31.4577H7.0143ZM7.0143 15.4707H7.86432L7.86428 15.4651L7.0143 15.4707ZM7.37813 14.3742L8.05787 14.8846L8.06241 14.8785L8.06685 14.8724L7.37813 14.3742ZM7.96305 13.8751L8.34889 14.6325H8.34889L7.96305 13.8751ZM8.71783 13.6917V12.8417L8.71193 12.8417L8.71783 13.6917ZM11.5483 13.6917V14.5417H11.6117L11.6744 14.5323L11.5483 13.6917ZM11.829 13.5399L12.4666 14.102L12.4666 14.102L11.829 13.5399ZM11.829 12.954L12.4666 12.3919L12.4666 12.3919L11.829 12.954ZM11.5483 12.8022L11.6744 11.9616L11.6117 11.9522H11.5483V12.8022ZM8.71783 12.8022V11.9522L8.71066 11.9522L8.71783 12.8022ZM6.71368 13.8237L7.3933 14.3342L7.39761 14.3285L7.40182 14.3227L6.71368 13.8237ZM6.16792 15.4737H7.01795L7.01789 15.4663L6.16792 15.4737ZM6.16792 31.4577L7.01744 31.4862L7.01792 31.472V31.4577H6.16792ZM6.88001 33.3052L6.26618 33.8931L6.26618 33.8931L6.88001 33.3052ZM23.2733 6.85621C23.3472 6.78608 23.4417 6.75059 23.5356 6.75059V8.45059C23.8708 8.45059 24.1971 8.3233 24.4437 8.08915L23.2733 6.85621ZM23.14 7.15843C23.14 7.0466 23.1851 6.94381 23.2583 6.87082L24.4588 8.07455C24.7005 7.83346 24.84 7.50512 24.84 7.15843H23.14ZM23.2583 7.44605C23.1851 7.37306 23.14 7.27027 23.14 7.15843H24.84C24.84 6.81174 24.7005 6.48341 24.4588 6.24232L23.2583 7.44605ZM18.2954 2.61581L23.2657 7.45331L24.4514 6.23506L19.4811 1.39756L18.2954 2.61581ZM18.2169 2.53954L18.2956 2.61605L19.4808 1.39733L19.4021 1.32082L18.2169 2.53954ZM18.447 2.64722C18.364 2.63918 18.2826 2.60324 18.2179 2.54049L19.4012 1.31988C19.1855 1.11081 18.906 0.983747 18.611 0.955152L18.447 2.64722ZM18.5126 2.64944C18.4999 2.65025 18.4872 2.65025 18.4745 2.64944L18.5835 0.952937C18.5236 0.949086 18.4635 0.949086 18.4035 0.952936L18.5126 2.64944ZM18.771 2.54018C18.7065 2.60273 18.6256 2.63862 18.5431 2.64692L18.373 0.955456C18.0796 0.984973 17.8016 1.11195 17.5871 1.32019L18.771 2.54018ZM18.6886 2.62032L18.7718 2.53932L17.5862 1.32105L17.5029 1.40205L18.6886 2.62032ZM13.7212 7.45199L18.6884 2.6205L17.5031 1.40188L12.5358 6.23337L13.7212 7.45199ZM13.7379 7.40637C13.7089 7.45762 13.6698 7.50035 13.6248 7.53272L12.6322 6.15265C12.4801 6.26204 12.3524 6.40337 12.259 6.56807L13.7379 7.40637ZM13.7898 7.23577C13.7851 7.29692 13.767 7.35511 13.7379 7.40637L12.259 6.56807C12.1656 6.73278 12.1091 6.91659 12.0946 7.10695L13.7898 7.23577ZM13.7639 7.05779C13.7853 7.11392 13.7944 7.17475 13.7898 7.23577L12.0946 7.10695C12.0802 7.29717 12.1082 7.48775 12.1761 7.6653L13.7639 7.05779ZM13.6688 6.91319C13.7094 6.95261 13.7424 7.00165 13.7639 7.05779L12.1761 7.6653C12.2441 7.84285 12.3499 8.00213 12.4848 8.13305L13.6688 6.91319ZM13.5307 6.82678C13.5809 6.84482 13.6282 6.87381 13.6688 6.9132L12.4848 8.13304C12.6196 8.26393 12.7804 8.36354 12.9555 8.4265L13.5307 6.82678ZM13.3757 6.80557C13.4279 6.8017 13.4806 6.80877 13.5307 6.82678L12.9555 8.42649C13.1305 8.48942 13.3166 8.51464 13.5016 8.5009L13.3757 6.80557ZM13.2241 6.85003C13.2719 6.82427 13.3235 6.80945 13.3757 6.80557L13.5016 8.5009C13.6865 8.48717 13.8673 8.4347 14.0314 8.3461L13.2241 6.85003ZM13.098 6.95858C13.1329 6.91234 13.1764 6.8758 13.2241 6.85003L14.0314 8.3461C14.1956 8.25749 14.3402 8.1344 14.4541 7.98379L13.098 6.95858ZM17.452 2.70708L13.1832 6.86208L14.3689 8.08029L18.6377 3.92529L17.452 2.70708ZM18.8949 19.3842V3.31618H17.1949V19.3842H18.8949ZM18.7455 19.0046C18.8169 19.0642 18.8685 19.1508 18.8844 19.2512L17.2053 19.5172C17.2549 19.83 17.4172 20.1103 17.6563 20.3098L18.7455 19.0046ZM18.502 18.9156C18.5881 18.9156 18.6746 18.9454 18.7455 19.0046L17.6563 20.3098C17.8949 20.5089 18.195 20.6156 18.502 20.6156V18.9156ZM18.2585 19.0046C18.3294 18.9454 18.4159 18.9156 18.502 18.9156V20.6156C18.809 20.6156 19.1091 20.5089 19.3477 20.3098L18.2585 19.0046ZM18.1196 19.2512C18.1355 19.1508 18.1871 19.0642 18.2585 19.0046L19.3477 20.3098C19.5868 20.1103 19.7491 19.83 19.7986 19.5172L18.1196 19.2512ZM18.1091 3.33419V19.3842H19.8091V3.33419H18.1091ZM23.8053 6.86347L19.5519 2.72497L18.3664 3.9434L22.6198 8.0819L23.8053 6.86347ZM23.5356 6.75059C23.6294 6.75059 23.7239 6.78608 23.7978 6.85621L22.6274 8.08916C22.874 8.3233 23.2003 8.45059 23.5356 8.45059V6.75059ZM28.2831 33.2762H8.72401V34.9762H28.2831V33.2762ZM29.1331 34.1277V34.1262H27.4331V34.1277H29.1331ZM29.5137 32.7183C29.19 33.0565 28.7369 33.2605 28.2519 33.2783L28.3143 34.9771C29.2339 34.9433 30.1073 34.5566 30.7417 33.8939L29.5137 32.7183ZM29.9897 31.4867C30.0051 31.9379 29.8366 32.381 29.5137 32.7183L30.7417 33.8939C31.3768 33.2305 31.72 32.3444 31.6887 31.4287L29.9897 31.4867ZM29.9892 15.4707V31.4577H31.6892V15.4707H29.9892ZM29.6296 14.3557C29.8674 14.6821 29.992 15.0701 29.9892 15.4648L31.6892 15.4766C31.6945 14.7144 31.4534 13.9722 31.0036 13.3547L29.6296 14.3557ZM29.0425 13.8422C29.2767 13.9631 29.4748 14.1362 29.6216 14.3446L31.0116 13.3658C30.7052 12.9307 30.2966 12.5765 29.8225 12.3317L29.0425 13.8422ZM28.2784 13.6552C28.546 13.6567 28.8083 13.7213 29.0425 13.8422L29.8225 12.3317C29.3485 12.0869 28.822 11.9582 28.2878 11.9552L28.2784 13.6552ZM25.3694 13.6552H28.2831V11.9552H25.3694V13.6552ZM25.7264 13.5191C25.6637 13.5902 25.5809 13.633 25.4954 13.6458L25.2433 11.9646C24.9395 12.0102 24.6577 12.1606 24.4511 12.3949L25.7264 13.5191ZM25.8273 13.25C25.8273 13.3522 25.7895 13.4474 25.7264 13.5191L24.4511 12.3949C24.2442 12.6297 24.1273 12.9328 24.1273 13.25H25.8273ZM25.7264 12.9808C25.7895 13.0525 25.8273 13.1477 25.8273 13.25H24.1273C24.1273 13.5671 24.2442 13.8702 24.4511 14.105L25.7264 12.9808ZM25.4954 12.8541C25.581 12.867 25.6638 12.9098 25.7264 12.9808L24.4511 14.105C24.6576 14.3392 24.9394 14.4897 25.2433 14.5353L25.4954 12.8541ZM28.2831 12.8447H25.3694V14.5447H28.2831V12.8447ZM29.4413 13.1297C29.0854 12.9449 28.6901 12.8476 28.2892 12.8447L28.2771 14.5447C28.4112 14.5457 28.542 14.5783 28.6581 14.6385L29.4413 13.1297ZM30.3346 13.9108C30.1044 13.5819 29.7974 13.3146 29.4413 13.1297L28.6581 14.6385C28.7741 14.6988 28.8709 14.7842 28.9419 14.8856L30.3346 13.9108ZM30.8367 15.4794C30.8405 14.9104 30.6603 14.3569 30.325 13.8973L28.9515 14.8991C29.0745 15.0677 29.138 15.2667 29.1367 15.468L30.8367 15.4794ZM30.8367 31.4577V15.4737H29.1367V31.4577H30.8367ZM30.1262 33.2772C30.6015 32.7808 30.8595 32.1166 30.8362 31.429L29.1372 31.4865C29.1447 31.7096 29.0615 31.931 28.8984 32.1014L30.1262 33.2772ZM28.3144 34.0861C28.9996 34.061 29.6517 33.7727 30.1262 33.2772L28.8984 32.1014C28.7344 32.2726 28.5026 32.3781 28.2519 32.3873L28.3144 34.0861ZM8.71783 34.0867H28.2831V32.3867H8.71783V34.0867ZM6.87476 33.2772C7.3493 33.7727 8.00135 34.061 8.68661 34.0861L8.74906 32.3873C8.49836 32.3781 8.26655 32.2726 8.1026 32.1014L6.87476 33.2772ZM6.16479 31.429C6.14151 32.1166 6.39945 32.7808 6.87476 33.2772L8.1026 32.1014C7.93944 31.931 7.85626 31.7097 7.86381 31.4865L6.16479 31.429ZM6.1643 15.4707V31.4577H7.8643V15.4707H6.1643ZM6.6984 13.8638C6.34905 14.3291 6.16052 14.8944 6.16432 15.4763L7.86428 15.4651C7.86294 15.2591 7.92948 15.0555 8.05787 14.8846L6.6984 13.8638ZM7.5772 13.1177C7.22568 13.2968 6.9208 13.5561 6.68942 13.876L8.06685 14.8724C8.13822 14.7737 8.23439 14.6908 8.34889 14.6325L7.5772 13.1177ZM8.71193 12.8417C8.31756 12.8445 7.92863 12.9387 7.5772 13.1177L8.34889 14.6325C8.46349 14.5741 8.59208 14.5426 8.72374 14.5417L8.71193 12.8417ZM11.5483 12.8417H8.71783V14.5417H11.5483V12.8417ZM11.1913 12.9778C11.254 12.9067 11.3368 12.8639 11.4223 12.8511L11.6744 14.5323C11.9782 14.4867 12.2601 14.3363 12.4666 14.102L11.1913 12.9778ZM11.0904 13.247C11.0904 13.1447 11.1282 13.0495 11.1913 12.9778L12.4666 14.102C12.6735 13.8672 12.7904 13.5641 12.7904 13.247H11.0904ZM11.1913 13.5161C11.1282 13.4444 11.0904 13.3492 11.0904 13.247H12.7904C12.7904 12.9298 12.6735 12.6267 12.4666 12.3919L11.1913 13.5161ZM11.4223 13.6428C11.3368 13.63 11.254 13.5872 11.1913 13.5161L12.4666 12.3919C12.2601 12.1576 11.9782 12.0072 11.6744 11.9616L11.4223 13.6428ZM8.71783 13.6522H11.5483V11.9522H8.71783V13.6522ZM7.97499 13.8348C8.20538 13.7174 8.46254 13.6544 8.72501 13.6522L8.71066 11.9522C8.18633 11.9567 7.66962 12.0824 7.20301 12.3202L7.97499 13.8348ZM7.40182 14.3227C7.54873 14.1201 7.74469 13.9522 7.97499 13.8348L7.20301 12.3202C6.73632 12.5581 6.3322 12.9018 6.02553 13.3248L7.40182 14.3227ZM7.01789 15.4663C7.01439 15.0622 7.14471 14.6652 7.3933 14.3342L6.03405 13.3132C5.56364 13.9395 5.31119 14.6997 5.31795 15.4811L7.01789 15.4663ZM7.01792 31.4577V15.4737H5.31792V31.4577H7.01792ZM7.49384 32.7172C7.17093 32.3801 7.00232 31.9372 7.01744 31.4862L5.3184 31.4292C5.2877 32.3446 5.63113 33.2301 6.26618 33.8931L7.49384 32.7172ZM8.75523 33.2768C8.27041 33.2589 7.81752 33.0551 7.49384 32.7172L6.26618 33.8931C6.90047 34.5553 7.77354 34.9418 8.69279 34.9756L8.75523 33.2768Z" fill="black"/>
</svg>
