<svg xmlns="http://www.w3.org/2000/svg" width="18.433" height="18.448" viewBox="0 0 18.433 18.448">
  <path id="Path_13047" data-name="Path 13047" d="M11.235,2A9.234,9.234,0,0,0,4.448,17.476h0a9.234,9.234,0,0,0,13.574,0h0A9.234,9.234,0,0,0,11.235,2Zm0,16.621A7.387,7.387,0,0,1,6.11,16.543a5.54,5.54,0,0,1,10.249,0A7.387,7.387,0,0,1,11.235,18.621ZM9.388,9.387a1.847,1.847,0,1,1,1.847,1.847A1.847,1.847,0,0,1,9.388,9.387Zm8.227,5.54a7.387,7.387,0,0,0-3.61-3.121,3.693,3.693,0,1,0-5.54,0,7.387,7.387,0,0,0-3.61,3.121,7.313,7.313,0,0,1-1.006-3.693,7.387,7.387,0,0,1,14.774,0A7.313,7.313,0,0,1,17.616,14.927Z" transform="translate(-2.019 -2)" fill="#9a9a9a"/>
</svg>
