<svg width="22" height="22" viewBox="0 0 22 22" fill="none" xmlns="http://www.w3.org/2000/svg">
<mask id="path-1-outside-1_2204_8354" maskUnits="userSpaceOnUse" x="0" y="0" width="22" height="22" fill="black">
<rect fill="white" width="22" height="22"/>
<path fill-rule="evenodd" clip-rule="evenodd" d="M11 20C6.02944 20 2 15.9706 2 11C2 6.02944 6.02944 2 11 2C15.9706 2 20 6.02944 20 11C20 15.9706 15.9706 20 11 20ZM1 11C1 5.47715 5.47715 1 11 1C16.5228 1 21 5.47715 21 11C21 16.5228 16.5228 21 11 21C5.47715 21 1 16.5228 1 11ZM11.5455 5.54545C11.5455 5.24421 11.3013 5 11 5C10.6988 5 10.4546 5.24421 10.4546 5.54545V10.4196H5.52909C5.23688 10.4196 5 10.6563 5 10.9482C5 11.2401 5.23688 11.4767 5.52909 11.4767H10.4546V16.4545C10.4546 16.7558 10.6988 17 11 17C11.3013 17 11.5455 16.7558 11.5455 16.4545V11.4767H16.4709C16.7631 11.4767 17 11.2401 17 10.9482C17 10.6563 16.7631 10.4196 16.4709 10.4196H11.5455V5.54545Z"/>
</mask>
<path fill-rule="evenodd" clip-rule="evenodd" d="M11 20C6.02944 20 2 15.9706 2 11C2 6.02944 6.02944 2 11 2C15.9706 2 20 6.02944 20 11C20 15.9706 15.9706 20 11 20ZM1 11C1 5.47715 5.47715 1 11 1C16.5228 1 21 5.47715 21 11C21 16.5228 16.5228 21 11 21C5.47715 21 1 16.5228 1 11ZM11.5455 5.54545C11.5455 5.24421 11.3013 5 11 5C10.6988 5 10.4546 5.24421 10.4546 5.54545V10.4196H5.52909C5.23688 10.4196 5 10.6563 5 10.9482C5 11.2401 5.23688 11.4767 5.52909 11.4767H10.4546V16.4545C10.4546 16.7558 10.6988 17 11 17C11.3013 17 11.5455 16.7558 11.5455 16.4545V11.4767H16.4709C16.7631 11.4767 17 11.2401 17 10.9482C17 10.6563 16.7631 10.4196 16.4709 10.4196H11.5455V5.54545Z" fill="#849594"/>
<path d="M10.4546 10.4196V10.9196H10.9546V10.4196H10.4546ZM10.4546 11.4767H10.9546V10.9767H10.4546V11.4767ZM11.5455 11.4767V10.9767H11.0455V11.4767H11.5455ZM11.5455 10.4196H11.0455V10.9196H11.5455V10.4196ZM1.5 11C1.5 16.2467 5.7533 20.5 11 20.5V19.5C6.30558 19.5 2.5 15.6944 2.5 11H1.5ZM11 1.5C5.75329 1.5 1.5 5.75329 1.5 11H2.5C2.5 6.30558 6.30558 2.5 11 2.5V1.5ZM20.5 11C20.5 5.7533 16.2467 1.5 11 1.5V2.5C15.6944 2.5 19.5 6.30558 19.5 11H20.5ZM11 20.5C16.2467 20.5 20.5 16.2467 20.5 11H19.5C19.5 15.6944 15.6944 19.5 11 19.5V20.5ZM11 0.5C5.20101 0.5 0.5 5.20101 0.5 11H1.5C1.5 5.7533 5.7533 1.5 11 1.5V0.5ZM21.5 11C21.5 5.20101 16.799 0.5 11 0.5V1.5C16.2467 1.5 20.5 5.7533 20.5 11H21.5ZM11 21.5C16.799 21.5 21.5 16.799 21.5 11H20.5C20.5 16.2467 16.2467 20.5 11 20.5V21.5ZM0.5 11C0.5 16.799 5.20101 21.5 11 21.5V20.5C5.7533 20.5 1.5 16.2467 1.5 11H0.5ZM11 5.5C11.0251 5.5 11.0455 5.52035 11.0455 5.54545H12.0455C12.0455 4.96807 11.5774 4.5 11 4.5V5.5ZM10.9546 5.54545C10.9546 5.52035 10.9749 5.5 11 5.5V4.5C10.4226 4.5 9.95456 4.96807 9.95456 5.54545H10.9546ZM10.9546 10.4196V5.54545H9.95456V10.4196H10.9546ZM5.52909 10.9196H10.4546V9.91965H5.52909V10.9196ZM5.5 10.9482C5.5 10.9329 5.51254 10.9196 5.52909 10.9196V9.91965C4.96122 9.91965 4.5 10.3797 4.5 10.9482H5.5ZM5.52909 10.9767C5.51254 10.9767 5.5 10.9635 5.5 10.9482H4.5C4.5 11.5167 4.96122 11.9767 5.52909 11.9767V10.9767ZM10.4546 10.9767H5.52909V11.9767H10.4546V10.9767ZM10.9546 16.4545V11.4767H9.95456V16.4545H10.9546ZM11 16.5C10.9749 16.5 10.9546 16.4796 10.9546 16.4545H9.95456C9.95456 17.0319 10.4226 17.5 11 17.5V16.5ZM11.0455 16.4545C11.0455 16.4796 11.0251 16.5 11 16.5V17.5C11.5774 17.5 12.0455 17.0319 12.0455 16.4545H11.0455ZM11.0455 11.4767V16.4545H12.0455V11.4767H11.0455ZM16.4709 10.9767H11.5455V11.9767H16.4709V10.9767ZM16.5 10.9482C16.5 10.9635 16.4875 10.9767 16.4709 10.9767V11.9767C17.0388 11.9767 17.5 11.5167 17.5 10.9482H16.5ZM16.4709 10.9196C16.4875 10.9196 16.5 10.9329 16.5 10.9482H17.5C17.5 10.3797 17.0388 9.91965 16.4709 9.91965V10.9196ZM11.5455 10.9196H16.4709V9.91965H11.5455V10.9196ZM11.0455 5.54545V10.4196H12.0455V5.54545H11.0455Z" fill="#849594" mask="url(#path-1-outside-1_2204_8354)"/>
</svg>
