<svg xmlns="http://www.w3.org/2000/svg" width="24.935" height="24.955" viewBox="0 0 24.935 24.955">
  <g id="Group_5772" data-name="Group 5772" transform="translate(569.239 -796.442)">
    <path id="Path_47303" data-name="Path 47303" d="M-569.239,808.91a12.468,12.468,0,0,1,12.468-12.468A12.468,12.468,0,0,1-544.3,808.91v11.341l-1.494-.276V808.91a10.972,10.972,0,0,0-10.992-10.953,10.973,10.973,0,0,0-10.953,10.992A10.972,10.972,0,0,0-556.75,819.9a10.979,10.979,0,0,0,3.357-.532l2.61.5a12.474,12.474,0,0,1-16.928-4.964A12.476,12.476,0,0,1-569.239,808.91Z" fill="#d8ff00"/>
    <path id="Path_47304" data-name="Path 47304" d="M-541.231,826.391V815.749a8.716,8.716,0,0,0-8.714-8.718,8.716,8.716,0,0,0-8.718,8.714,8.716,8.716,0,0,0,8.714,8.718,8.718,8.718,0,0,0,3.4-.688v1.591a10.2,10.2,0,0,1-13-6.24,10.2,10.2,0,0,1,6.239-13,10.2,10.2,0,0,1,13,6.24,10.194,10.194,0,0,1,.576,3.381v10.917Z" transform="translate(-6.841 -6.84)" fill="lime"/>
    <path id="Path_47305" data-name="Path 47305" d="M-536.635,832.792v-10.21a6.43,6.43,0,0,0-6.435-6.425,6.43,6.43,0,0,0-6.425,6.435,6.43,6.43,0,0,0,6.435,6.425,6.433,6.433,0,0,0,3.369-.957v1.686a7.932,7.932,0,0,1-10.567-3.763,7.932,7.932,0,0,1,3.763-10.567,7.931,7.931,0,0,1,10.567,3.763,7.929,7.929,0,0,1,.766,3.4v10.5Z" transform="translate(-13.677 -13.672)" fill="#00d2e9"/>
    <path id="Path_47306" data-name="Path 47306" d="M-532.066,839.246v-9.789a4.171,4.171,0,0,0-4.173-4.169,4.171,4.171,0,0,0-4.169,4.173,4.171,4.171,0,0,0,4.173,4.169,4.171,4.171,0,0,0,3.382-1.733v2.094a5.663,5.663,0,0,1-7.93-1.121,5.663,5.663,0,0,1,1.121-7.93,5.663,5.663,0,0,1,7.93,1.121,5.665,5.665,0,0,1,1.137,3.4V839.53Z" transform="translate(-20.516 -20.547)" fill="#f0f"/>
  </g>
</svg>
