<svg xmlns="http://www.w3.org/2000/svg" width="78.467" height="19.955" viewBox="0 0 78.467 19.955">
  <g id="Group_5772" data-name="Group 5772" transform="translate(569.239 -796.442)">
    <path id="Path_47295" data-name="Path 47295" d="M-364.171,828.934a3.923,3.923,0,0,0-5.221-1.876,3.923,3.923,0,0,0-1.876,5.221,3.923,3.923,0,0,0,5.221,1.876,1.651,1.651,0,0,1-1.645,1.653l-.006,2.272a3.915,3.915,0,0,0,3.9-3.919v-3.555A3.923,3.923,0,0,0-364.171,828.934Zm-3.513,3.3a1.645,1.645,0,0,1-1.655-1.635v-.012a1.645,1.645,0,0,1,1.647-1.643,1.645,1.645,0,0,1,1.643,1.635A1.645,1.645,0,0,1-367.684,832.235Z" transform="translate(-158.248 -24.219)" fill="#000000"/>
    <path id="Path_47296" data-name="Path 47296" d="M-291.129,830.678a3.9,3.9,0,0,1,3.9-3.9,3.9,3.9,0,0,1,3.9,3.9v3.839h-2.248v-3.833a1.645,1.645,0,0,0-1.653-1.637,1.645,1.645,0,0,0-1.637,1.653,1.645,1.645,0,0,0,1.643,1.637,1.622,1.622,0,0,0,1-.342v2.477a3.806,3.806,0,0,1-1,.131,3.915,3.915,0,0,1-3.9-3.919Z" transform="translate(-222.729 -24.296)" fill="#000000"/>
    <path id="Path_47297" data-name="Path 47297" d="M-451.859,830.678a3.9,3.9,0,0,1,3.9-3.9,3.9,3.9,0,0,1,3.9,3.9v3.839h-2.254v-3.833a1.645,1.645,0,0,0-1.653-1.637A1.645,1.645,0,0,0-449.6,830.7a1.645,1.645,0,0,0,1.645,1.637,1.625,1.625,0,0,0,1-.342v2.477a3.821,3.821,0,0,1-1,.131,3.917,3.917,0,0,1-3.9-3.919Z" transform="translate(-94.006 -24.296)" fill="#000000"/>
    <path id="Path_47298" data-name="Path 47298" d="M-238.575,834.455v-4.437a1.051,1.051,0,0,0-1.052-1.051,1.051,1.051,0,0,0-1.051,1.051v4.443h-2.254v-4.443a1.051,1.051,0,0,0-1.052-1.051,1.051,1.051,0,0,0-1.051,1.051v4.443h-2.254v-4.443a3.32,3.32,0,0,1,3.308-3.322,3.281,3.281,0,0,1,2.179.826,3.3,3.3,0,0,1,4.659.31,3.3,3.3,0,0,1,.817,2.185v4.443Z" transform="translate(-257.839 -24.23)" fill="#000000"/>
    <path id="Path_47299" data-name="Path 47299" d="M-323.878,825.838V821.4a1.051,1.051,0,0,0-1.052-1.051,1.051,1.051,0,0,0-1.051,1.051v4.443h-2.258v-9.907h2.256v2.316a3.253,3.253,0,0,1,1.051-.173,3.319,3.319,0,0,1,3.306,3.321v4.443Z" transform="translate(-193.009 -15.613)" fill="#000000"/>
    <path id="Path_47300" data-name="Path 47300" d="M-403.71,834.185v-4.437a1.051,1.051,0,0,0-1-1.1,1.051,1.051,0,0,0-1.1,1c0,.03,0,.061,0,.092v4.443h-2.252v-4.443a3.308,3.308,0,0,1,3.225-3.388,3.308,3.308,0,0,1,3.388,3.225q0,.081,0,.162v4.443Z" transform="translate(-129.08 -23.959)" fill="#000000"/>
    <path id="Path_47301" data-name="Path 47301" d="M-187.749,835.961v-7.384h2.256v7.39Z" transform="translate(-305.523 -25.736)" fill="#000000"/>
    <path id="Path_47302" data-name="Path 47302" d="M-188.9,813.461a1.362,1.362,0,0,1,1.358-1.364h0a1.364,1.364,0,0,1,1.37,1.358,1.364,1.364,0,0,1-1.358,1.37,1.364,1.364,0,0,1-1.37-1.358Z" transform="translate(-304.602 -12.537)" fill="#000000"/>
    <path id="Path_47303" data-name="Path 47303" d="M-569.239,806.412a9.97,9.97,0,0,1,9.97-9.97,9.97,9.97,0,0,1,9.97,9.97v9.069l-1.195-.221v-8.848a8.774,8.774,0,0,0-8.789-8.758,8.774,8.774,0,0,0-8.758,8.79,8.774,8.774,0,0,0,8.79,8.758,8.779,8.779,0,0,0,2.685-.426l2.087.4a9.975,9.975,0,0,1-13.536-3.97A9.976,9.976,0,0,1-569.239,806.412Z" fill="#d8ff00"/>
    <path id="Path_47304" data-name="Path 47304" d="M-545.017,822.215v-8.509a6.97,6.97,0,0,0-6.968-6.971,6.97,6.97,0,0,0-6.971,6.968,6.97,6.97,0,0,0,6.968,6.971,6.971,6.971,0,0,0,2.716-.55V821.4a8.153,8.153,0,0,1-10.394-4.99,8.153,8.153,0,0,1,4.989-10.394A8.153,8.153,0,0,1-544.283,811a8.151,8.151,0,0,1,.461,2.7v8.73Z" transform="translate(-7.295 -7.294)" fill="lime"/>
    <path id="Path_47305" data-name="Path 47305" d="M-539.519,829.156v-8.164a5.142,5.142,0,0,0-5.146-5.137A5.142,5.142,0,0,0-549.8,821a5.142,5.142,0,0,0,5.146,5.138,5.143,5.143,0,0,0,2.694-.765v1.348a6.342,6.342,0,0,1-8.45-3.009,6.342,6.342,0,0,1,3.009-8.45,6.342,6.342,0,0,1,8.45,3.009,6.341,6.341,0,0,1,.613,2.721v8.393Z" transform="translate(-14.586 -14.58)" fill="#00d2e9"/>
    <path id="Path_47306" data-name="Path 47306" d="M-534.04,836.152v-7.828a3.335,3.335,0,0,0-3.337-3.334,3.336,3.336,0,0,0-3.334,3.337,3.335,3.335,0,0,0,3.337,3.334,3.336,3.336,0,0,0,2.7-1.386v1.675a4.528,4.528,0,0,1-6.341-.9,4.528,4.528,0,0,1,.9-6.341,4.528,4.528,0,0,1,6.341.9,4.529,4.529,0,0,1,.909,2.715v8.055Z" transform="translate(-21.879 -21.912)" fill="#f0f"/>
  </g>
</svg>
