<svg id="apple_podcast" data-name="apple podcast" xmlns="http://www.w3.org/2000/svg" xmlns:xlink="http://www.w3.org/1999/xlink" width="23.049" height="23.049" viewBox="0 0 23.049 23.049">
  <defs>
    <linearGradient id="linear-gradient" x1="0.5" x2="0.5" y2="1" gradientUnits="objectBoundingBox">
      <stop offset="0" stop-color="#f452ff"/>
      <stop offset="1" stop-color="#832bc1"/>
    </linearGradient>
  </defs>
  <g id="XMLID_632_">
    <path id="XMLID_662_" d="M30.11,27.4a4.879,4.879,0,0,1-3.1,2.778,10.034,10.034,0,0,1-2.786.293H13.855a10.034,10.034,0,0,1-2.786-.293,4.879,4.879,0,0,1-3.1-2.778,9.035,9.035,0,0,1-.456-3.267h0V13.757h0a9.035,9.035,0,0,1,.456-3.267,4.879,4.879,0,0,1,3.1-2.778,10.034,10.034,0,0,1,2.786-.293H24.227a10.035,10.035,0,0,1,2.786.293,4.879,4.879,0,0,1,3.1,2.778,9.035,9.035,0,0,1,.456,3.267V24.129A9.038,9.038,0,0,1,30.11,27.4Z" transform="translate(-7.517 -7.418)" fill-rule="evenodd" fill="url(#linear-gradient)"/>
    <path id="XMLID_660_" d="M30.11,27.4a4.879,4.879,0,0,1-3.1,2.778,10.034,10.034,0,0,1-2.786.293H13.855a10.034,10.034,0,0,1-2.786-.293,4.879,4.879,0,0,1-3.1-2.778,9.035,9.035,0,0,1-.456-3.267h0V13.757h0a9.035,9.035,0,0,1,.456-3.267,4.879,4.879,0,0,1,3.1-2.778,10.034,10.034,0,0,1,2.786-.293H24.227a10.035,10.035,0,0,1,2.786.293,4.879,4.879,0,0,1,3.1,2.778,9.035,9.035,0,0,1,.456,3.267V24.129A9.038,9.038,0,0,1,30.11,27.4Z" transform="translate(-7.517 -7.418)" fill="none" fill-rule="evenodd"/>
    <g id="XMLID_648_" transform="translate(3.422 2.555)">
      <g id="Group_4027" data-name="Group 4027">
        <path id="Path_12840" data-name="Path 12840" d="M21.027,20.9a2.308,2.308,0,0,0-1.67-.6,2.308,2.308,0,0,0-1.671.6,1.06,1.06,0,0,0-.306.664,8.621,8.621,0,0,0,.038,1.744c.06.706.174,1.648.323,2.608a9.92,9.92,0,0,0,.27,1.315,1.3,1.3,0,0,0,1.345.8,1.3,1.3,0,0,0,1.345-.8,9.921,9.921,0,0,0,.27-1.315c.149-.959.263-1.9.323-2.608a8.622,8.622,0,0,0,.038-1.744A1.06,1.06,0,0,0,21.027,20.9Zm-3.555-3.249a1.886,1.886,0,1,0,1.886-1.886A1.886,1.886,0,0,0,17.472,17.652Zm1.863-7.444a8.105,8.105,0,0,0-2.659,15.754.108.108,0,0,0,.144-.118c-.042-.277-.081-.556-.117-.83a.279.279,0,0,0-.164-.22,7.068,7.068,0,1,1,5.64,0,.279.279,0,0,0-.164.22c-.036.274-.076.553-.117.83a.108.108,0,0,0,.144.118,8.105,8.105,0,0,0-2.706-15.754Zm-.146,3.718a4.391,4.391,0,0,1,3.178,7.591.336.336,0,0,0-.106.264,7.766,7.766,0,0,1-.009.926.107.107,0,0,0,.167.095,5.43,5.43,0,1,0-6.111,0,.107.107,0,0,0,.166-.095,7.77,7.77,0,0,1-.009-.926.336.336,0,0,0-.106-.264,4.391,4.391,0,0,1,2.831-7.591Z" transform="translate(-11.253 -10.207)" fill="#fff"/>
      </g>
    </g>
  </g>
</svg>
