<svg xmlns="http://www.w3.org/2000/svg" width="22.215" height="27.287" viewBox="0 0 22.215 27.287">
  <path id="Path_13040" data-name="Path 13040" d="M18.977,6.352A5.975,5.975,0,0,0,20.424,2a6.057,6.057,0,0,0-4.093,2.074,5.689,5.689,0,0,0-1.364,4.216,5.034,5.034,0,0,0,4.011-1.937ZM22.415,16.5a6.153,6.153,0,0,1,2.947-5.2,6.357,6.357,0,0,0-4.993-2.729c-2.128-.218-4.093,1.241-5.225,1.241S12.415,8.6,10.642,8.63a6.712,6.712,0,0,0-5.648,3.452c-2.4,4.175-.614,10.382,1.787,13.752,1.091,1.651,2.456,3.52,4.257,3.452s2.387-1.119,4.475-1.119,2.729,1.119,4.5,1.078,3.029-1.692,4.175-3.342a15.007,15.007,0,0,0,1.883-3.888A6.016,6.016,0,0,1,22.415,16.5Z" transform="translate(-3.856 -2)" fill=""/>
</svg>
