<svg id="apple_podcast" data-name="apple podcast" xmlns="http://www.w3.org/2000/svg" xmlns:xlink="http://www.w3.org/1999/xlink" width="110.865" height="18.646" viewBox="0 0 110.865 18.646">
  <defs>
    <linearGradient id="linear-gradient" x1="0.5" x2="0.5" y2="1" gradientUnits="objectBoundingBox">
      <stop offset="0" stop-color="#f452ff"/>
      <stop offset="1" stop-color="#832bc1"/>
    </linearGradient>
  </defs>
  <g id="XMLID_632_" transform="translate(0 0)">
    <path id="XMLID_662_" d="M25.793,23.579a3.947,3.947,0,0,1-2.505,2.247,8.117,8.117,0,0,1-2.253.237h-8.39a8.117,8.117,0,0,1-2.253-.237,3.947,3.947,0,0,1-2.505-2.247,7.309,7.309,0,0,1-.369-2.643h0V12.546h0A7.309,7.309,0,0,1,7.885,9.9a3.947,3.947,0,0,1,2.505-2.247,8.117,8.117,0,0,1,2.253-.237h8.39a8.117,8.117,0,0,1,2.253.237A3.947,3.947,0,0,1,25.794,9.9a7.309,7.309,0,0,1,.369,2.643v8.391A7.311,7.311,0,0,1,25.793,23.579Z" transform="translate(-7.517 -7.418)" fill-rule="evenodd" fill="url(#linear-gradient)"/>
    <path id="XMLID_660_" d="M25.793,23.579a3.947,3.947,0,0,1-2.505,2.247,8.117,8.117,0,0,1-2.253.237h-8.39a8.117,8.117,0,0,1-2.253-.237,3.947,3.947,0,0,1-2.505-2.247,7.309,7.309,0,0,1-.369-2.643h0V12.546h0A7.309,7.309,0,0,1,7.885,9.9a3.947,3.947,0,0,1,2.505-2.247,8.117,8.117,0,0,1,2.253-.237h8.39a8.117,8.117,0,0,1,2.253.237A3.947,3.947,0,0,1,25.794,9.9a7.309,7.309,0,0,1,.369,2.643v8.391A7.311,7.311,0,0,1,25.793,23.579Z" transform="translate(-7.517 -7.418)" fill="none" fill-rule="evenodd"/>
    <g id="XMLID_648_" transform="translate(2.768 2.067)">
      <g id="Group_4027" data-name="Group 4027">
        <path id="Path_12840" data-name="Path 12840" d="M19.159,18.858a1.867,1.867,0,0,0-1.351-.484,1.867,1.867,0,0,0-1.351.484.857.857,0,0,0-.247.537,6.974,6.974,0,0,0,.03,1.41c.049.571.141,1.333.261,2.11a8.025,8.025,0,0,0,.219,1.064,1.055,1.055,0,0,0,1.088.649,1.055,1.055,0,0,0,1.088-.649,8.025,8.025,0,0,0,.219-1.064c.12-.776.213-1.538.261-2.11a6.974,6.974,0,0,0,.03-1.41A.857.857,0,0,0,19.159,18.858Zm-2.876-2.629A1.526,1.526,0,1,0,17.809,14.7,1.526,1.526,0,0,0,16.284,16.229Zm1.507-6.022A6.557,6.557,0,0,0,15.64,22.951a.088.088,0,0,0,.116-.1c-.034-.224-.066-.45-.095-.672a.226.226,0,0,0-.133-.178,5.718,5.718,0,1,1,4.563,0,.225.225,0,0,0-.132.178c-.029.222-.061.447-.095.671a.088.088,0,0,0,.116.1,6.557,6.557,0,0,0-2.189-12.744Zm-.118,3.008a3.552,3.552,0,0,1,2.571,6.141.272.272,0,0,0-.086.213,6.282,6.282,0,0,1-.007.749.086.086,0,0,0,.135.077,4.393,4.393,0,1,0-4.944,0,.086.086,0,0,0,.134-.077,6.286,6.286,0,0,1-.008-.749.272.272,0,0,0-.085-.213,3.552,3.552,0,0,1,2.29-6.141Z" transform="translate(-11.253 -10.207)" fill="#fff"/>
      </g>
    </g>
  </g>
  <g id="Group_4028" data-name="Group 4028" transform="translate(22.846 4)">
    <path id="Path_12841" data-name="Path 12841" d="M44.183,25.475H40.676l-.842,2.487H38.348l3.322-9.2h1.543l3.322,9.2H45.025Zm-3.144-1.148h2.78L42.449,20.29H42.41Z" transform="translate(-38.348 -18.76)" fill="#111"/>
    <path id="Path_12842" data-name="Path 12842" d="M56.871,25.455c0,2.085-1.116,3.424-2.8,3.424a2.274,2.274,0,0,1-2.111-1.174h-.032v3.323H50.552V22.1h1.333v1.116h.025a2.38,2.38,0,0,1,2.136-1.186C55.749,22.03,56.871,23.376,56.871,25.455Zm-1.415,0c0-1.358-.7-2.251-1.773-2.251-1.052,0-1.76.912-1.76,2.251s.708,2.257,1.76,2.257C54.754,27.712,55.456,26.826,55.456,25.455Z" transform="translate(-41.509 -19.607)" fill="#111"/>
    <path id="Path_12843" data-name="Path 12843" d="M66.836,25.455c0,2.085-1.116,3.424-2.8,3.424a2.274,2.274,0,0,1-2.111-1.174h-.032v3.323H60.517V22.1H61.85v1.116h.025a2.38,2.38,0,0,1,2.136-1.186C65.714,22.03,66.836,23.376,66.836,25.455Zm-1.415,0c0-1.358-.7-2.251-1.773-2.251-1.052,0-1.76.912-1.76,2.251s.708,2.257,1.76,2.257C64.719,27.712,65.421,26.826,65.421,25.455Z" transform="translate(-44.09 -19.607)" fill="#111"/>
    <path id="Path_12844" data-name="Path 12844" d="M70.55,18.76h1.378v9.2H70.55Z" transform="translate(-46.689 -18.76)" fill="#111"/>
    <path id="Path_12845" data-name="Path 12845" d="M79.97,26.834a2.692,2.692,0,0,1-2.889,2.054c-1.952,0-3.163-1.308-3.163-3.405s1.218-3.469,3.105-3.469c1.856,0,3.023,1.275,3.023,3.309v.472H75.308v.083a1.747,1.747,0,0,0,1.8,1.9,1.518,1.518,0,0,0,1.549-.944H79.97Zm-4.655-2h3.354a1.613,1.613,0,0,0-1.646-1.7A1.7,1.7,0,0,0,75.315,24.832Z" transform="translate(-47.561 -19.602)" fill="#111"/>
    <path id="Path_12846" data-name="Path 12846" d="M90.881,18.76a2.888,2.888,0,0,1,3.029,3.023,2.919,2.919,0,0,1-3.074,3.035H88.859v3.144H87.431v-9.2Zm-2.022,4.86H90.5a1.723,1.723,0,0,0,1.951-1.83A1.717,1.717,0,0,0,90.5,19.965H88.859V23.62Z" transform="translate(-51.061 -18.76)" fill="#111"/>
    <path id="Path_12847" data-name="Path 12847" d="M96.854,25.451c0-2.111,1.243-3.437,3.182-3.437s3.182,1.326,3.182,3.437-1.231,3.437-3.182,3.437S96.854,27.567,96.854,25.451Zm4.961,0c0-1.448-.664-2.3-1.779-2.3s-1.779.861-1.779,2.3.664,2.3,1.779,2.3S101.815,26.9,101.815,25.451Z" transform="translate(-53.502 -19.602)" fill="#111"/>
    <path id="Path_12848" data-name="Path 12848" d="M106.747,24.608c0-2.072,1.141-3.425,2.805-3.425a2.263,2.263,0,0,1,2.1,1.186h.026V18.76h1.384v9.2h-1.339V26.821H111.7a2.288,2.288,0,0,1-2.136,1.211C107.889,28.032,106.747,26.681,106.747,24.608Zm1.409,0c0,1.377.7,2.257,1.773,2.257s1.766-.893,1.766-2.257-.708-2.251-1.766-2.251S108.156,23.243,108.156,24.608Z" transform="translate(-56.064 -18.76)" fill="#111"/>
    <path id="Path_12849" data-name="Path 12849" d="M121.526,24.4a1.481,1.481,0,0,0-1.581-1.237c-1.059,0-1.761.886-1.761,2.283,0,1.428.708,2.289,1.773,2.289a1.444,1.444,0,0,0,1.569-1.2h1.326a2.681,2.681,0,0,1-2.907,2.353c-1.913,0-3.163-1.308-3.163-3.437,0-2.086,1.25-3.437,3.15-3.437A2.7,2.7,0,0,1,122.84,24.4h-1.314Z" transform="translate(-58.663 -19.602)" fill="#111"/>
    <path id="Path_12850" data-name="Path 12850" d="M126.113,26.9c0-1.173.9-1.881,2.493-1.977l1.837-.1v-.51c0-.746-.491-1.167-1.326-1.167a1.282,1.282,0,0,0-1.41.944h-1.288c.038-1.212,1.166-2.072,2.735-2.072,1.6,0,2.659.873,2.659,2.193v4.6h-1.32V27.7h-.032a2.4,2.4,0,0,1-2.117,1.219A2.034,2.034,0,0,1,126.113,26.9Zm4.329-.606v-.517l-1.651.1c-.823.051-1.288.408-1.288.982s.485.97,1.224.97A1.608,1.608,0,0,0,130.442,26.292Z" transform="translate(-61.08 -19.602)" fill="#111"/>
    <path id="Path_12851" data-name="Path 12851" d="M138.015,22.022c1.486,0,2.551.822,2.583,2.008H139.3c-.057-.593-.561-.956-1.326-.956-.746,0-1.243.344-1.243.867,0,.4.331.669,1.027.842l1.129.262c1.352.325,1.862.822,1.862,1.8,0,1.211-1.148,2.041-2.787,2.041-1.582,0-2.646-.81-2.748-2.035h1.364c.1.644.612.988,1.448.988s1.339-.338,1.339-.873c0-.415-.255-.638-.957-.816l-1.2-.293c-1.212-.294-1.824-.912-1.824-1.843C135.388,22.832,136.453,22.022,138.015,22.022Z" transform="translate(-63.438 -19.605)" fill="#111"/>
    <path id="Path_12852" data-name="Path 12852" d="M145.9,19.982V21.57h1.276V22.66H145.9v3.7c0,.575.255.842.816.842a4.3,4.3,0,0,0,.453-.032v1.084a3.78,3.78,0,0,1-.765.064c-1.358,0-1.888-.51-1.888-1.811V22.66h-.975V21.57h.975V19.982Z" transform="translate(-65.594 -19.076)" fill="#111"/>
    <path id="Path_12853" data-name="Path 12853" d="M152.464,22.022c1.486,0,2.551.822,2.583,2.008h-1.295c-.057-.593-.561-.956-1.326-.956-.746,0-1.243.344-1.243.867,0,.4.331.669,1.027.842l1.129.262c1.352.325,1.862.822,1.862,1.8,0,1.211-1.148,2.041-2.787,2.041-1.582,0-2.646-.81-2.748-2.035h1.364c.1.644.612.988,1.448.988s1.339-.338,1.339-.873c0-.415-.255-.638-.957-.816l-1.2-.293c-1.212-.294-1.824-.912-1.824-1.843C149.837,22.832,150.9,22.022,152.464,22.022Z" transform="translate(-67.181 -19.605)" fill="#111"/>
  </g>
</svg>
