<svg xmlns="http://www.w3.org/2000/svg" width="17.726" height="15.899" viewBox="0 0 17.726 15.899">
  <g id="Group_4037" data-name="Group 4037" transform="translate(-41.666 -495.7)">
    <path id="Path_12492" data-name="Path 12492" d="M7.2.676l3.038,3.038H.4a.43.43,0,0,0-.4.4.4.4,0,0,0,.4.4h9.835L7.2,7.592a.4.4,0,0,0,.56.56l3.758-3.758a.341.341,0,0,0,0-.52L7.756.116a.4.4,0,0,0-.56.56Z" transform="translate(50.824 507.634) rotate(-90)" fill="#929898" stroke="#929898" stroke-width="0.6" fill-rule="evenodd"/>
    <path id="Path_12862" data-name="Path 12862" d="M7.2,7.592l3.039-3.038H.4a.43.43,0,0,1-.4-.4.4.4,0,0,1,.4-.4h9.835L7.2.676a.4.4,0,0,1,.56-.56l3.758,3.758a.341.341,0,0,1,0,.52L7.756,8.151a.4.4,0,0,1-.56-.56Z" transform="translate(50.269 499.665) rotate(90)" fill="#929898" stroke="#929898" stroke-width="0.6" fill-rule="evenodd"/>
  </g>
</svg>
