<svg id="date" xmlns="http://www.w3.org/2000/svg" width="11" height="10.389" viewBox="0 0 11 10.389">
  <path id="Path_10509" data-name="Path 10509" d="M12,4.809V3.474a1.456,1.456,0,0,0-1.473-1.435H9.8V1.346a.367.367,0,0,0-.733,0v.693H3.933V1.346a.367.367,0,0,0-.733,0v.693H2.473A1.456,1.456,0,0,0,1,3.474V4.809Z" transform="translate(-1 -1)" fill="#000000"/>
  <path id="Path_10510" data-name="Path 10510" d="M1,14v4.452a1.456,1.456,0,0,0,1.473,1.435h8.053A1.456,1.456,0,0,0,12,18.452V14Z" transform="translate(-1 -9.498)" fill="#000000"/>
</svg>
