<svg id="close" xmlns="http://www.w3.org/2000/svg" width="15.67" height="15.67" viewBox="0 0 15.67 15.67">
  <path id="Path_12480" data-name="Path 12480" d="M15.336,30.334a1.082,1.082,0,0,0,1.567,0L22.835,24.4l5.932,5.932a1.082,1.082,0,0,0,1.567,0,1.082,1.082,0,0,0,0-1.567L24.4,22.835,30.334,16.9a1.108,1.108,0,0,0-1.567-1.567l-5.932,5.932L16.9,15.336A1.108,1.108,0,0,0,15.336,16.9l5.932,5.932-5.932,5.932a1.082,1.082,0,0,0,0,1.567Z" transform="translate(-15 -15)" fill="#253c3a" fill-rule="evenodd"/>
</svg>
