<svg xmlns="http://www.w3.org/2000/svg" width="18" height="14.402" viewBox="0 0 18 14.402">
  <path id="Icon_awesome-user-times" data-name="Icon awesome-user-times" d="M16.585,6.751l1.283-1.283a.453.453,0,0,0,0-.641l-.641-.641a.453.453,0,0,0-.641,0L15.3,5.468,14.019,4.186a.453.453,0,0,0-.641,0l-.641.641a.453.453,0,0,0,0,.641l1.283,1.283L12.737,8.034a.453.453,0,0,0,0,.641l.641.641a.453.453,0,0,0,.641,0L15.3,8.034l1.283,1.283a.453.453,0,0,0,.641,0l.641-.641a.453.453,0,0,0,0-.641ZM6.3,7.2A3.6,3.6,0,1,0,2.7,3.6,3.6,3.6,0,0,0,6.3,7.2Zm2.52.9h-.47a4.9,4.9,0,0,1-4.1,0h-.47A3.781,3.781,0,0,0,0,11.882v1.17A1.351,1.351,0,0,0,1.35,14.4h9.9a1.351,1.351,0,0,0,1.35-1.35v-1.17A3.781,3.781,0,0,0,8.821,8.1Z" fill="#717171"/>
</svg>
