<svg xmlns="http://www.w3.org/2000/svg" width="12.4" height="13.458" viewBox="0 0 12.4 13.458">
  <g id="noun-sign-out-1713306" transform="translate(0.2 0.2)">
    <path id="Path_13099" data-name="Path 13099" d="M388.009,72.8h-3.882a.55.55,0,0,0-.529.529v12a.55.55,0,0,0,.529.529h3.882a.55.55,0,0,0,.529-.529v-2.11a.53.53,0,1,0-1.059,0V84.8h-2.824V73.858h2.824v1.581a.53.53,0,1,0,1.059,0v-2.11a.561.561,0,0,0-.529-.529Z" transform="translate(-383.597 -72.799)" fill="#c3c3c3" stroke="#717171" stroke-width="0.4"/>
    <path id="Path_13100" data-name="Path 13100" d="M169.129,171.529a.593.593,0,0,0-.143-.364l-2.824-3a.606.606,0,0,0-.772-.044.551.551,0,0,0,.005.772L167.381,171h-7.252a.529.529,0,1,0,0,1.059h7.252l-1.985,2.107a.583.583,0,0,0-.005.772.6.6,0,0,0,.772-.044l2.824-3a.509.509,0,0,0,.143-.364Z" transform="translate(-157.129 -165.001)" fill="#c3c3c3" stroke="#717171" stroke-width="0.4"/>
  </g>
</svg>
