<svg xmlns="http://www.w3.org/2000/svg" width="15.555" height="9.201" viewBox="0 0 15.555 9.201">
  <path id="Path_13051" data-name="Path 13051" d="M96.863,125.938a.425.425,0,0,0,.021-.045c.006-.015.011-.031.016-.047a.448.448,0,0,0,.012-.047c0-.016,0-.032.006-.049s0-.032,0-.048a.431.431,0,0,0,0-.048c0-.016,0-.032-.006-.049a.478.478,0,0,0-.012-.047.4.4,0,0,0-.037-.091.468.468,0,0,0-.025-.043c-.009-.014-.02-.027-.031-.04s-.013-.019-.021-.028c-.082-.088-.17-.183-.263-.285-1.275-1.387-3.65-3.97-7.379-3.97s-6.1,2.582-7.379,3.969c-.093.1-.181.2-.263.285-.008.009-.014.019-.021.028s-.021.027-.031.04h0a.476.476,0,0,0-.025.043.427.427,0,0,0-.021.045c-.006.015-.011.031-.016.047a.444.444,0,0,0-.012.047c0,.016,0,.032-.006.049s0,.032,0,.048,0,.032,0,.048,0,.032.006.049a.479.479,0,0,0,.012.047.422.422,0,0,0,.016.047h0a.639.639,0,0,0,.047.088c.009.014.02.027.031.04s.013.019.021.028c.082.088.17.183.263.285,1.275,1.387,3.649,3.97,7.378,3.97s6.1-2.582,7.379-3.969c.093-.1.181-.2.263-.285.008-.009.014-.019.021-.028a.4.4,0,0,0,.031-.04h0a.463.463,0,0,0,.025-.043Zm-8.226-2.33a.507.507,0,0,1,.507-.507,2.614,2.614,0,0,1,2.242,1.282.507.507,0,1,1-.872.514,1.6,1.6,0,0,0-1.37-.783.508.508,0,0,1-.507-.507Zm-6.076,2.1c1.17-1.272,3.055-3.279,5.921-3.553a3.614,3.614,0,0,0,0,7.106c-2.866-.275-4.75-2.281-5.921-3.553Zm7.244,3.553a3.614,3.614,0,0,0,0-7.106c2.866.275,4.751,2.28,5.921,3.553-1.17,1.272-3.055,3.279-5.921,3.553Z" transform="translate(-81.366 -121.103)" fill=""/>
</svg>
