<svg xmlns="http://www.w3.org/2000/svg" width="14.061" height="8.948" viewBox="0 0 14.061 8.948">
  <g id="Group_3829" data-name="Group 3829" transform="translate(896.411 1980)">
    <path id="Path_12320" data-name="Path 12320" d="M315.316,243.34a1.418,1.418,0,1,1-1.418-1.418,1.418,1.418,0,0,1,1.418,1.418" transform="translate(-1203.279 -2218.886)" fill="#afafaf"/>
    <path id="Path_12321" data-name="Path 12321" d="M162.15,156.8a7.766,7.766,0,0,0-7.03,4.474,7.761,7.761,0,0,0,14.061,0A7.776,7.776,0,0,0,162.15,156.8Zm0,7.869a3.415,3.415,0,1,1,3.415-3.415A3.427,3.427,0,0,1,162.15,164.669Z" transform="translate(-1051.531 -2136.8)" fill="#afafaf"/>
  </g>
</svg>
