<svg id="Group_4175" data-name="Group 4175" xmlns="http://www.w3.org/2000/svg" width="25.428" height="25.428" viewBox="0 0 25.428 25.428">
  <path id="Path_13038" data-name="Path 13038" d="M25.428,12.714a12.714,12.714,0,1,0-14.7,12.56V16.389H7.5V12.714h3.228v-2.8c0-3.186,1.9-4.947,4.8-4.947a19.552,19.552,0,0,1,2.846.248V8.344h-1.6A1.838,1.838,0,0,0,14.7,10.329v2.385h3.526l-.564,3.675H14.7v8.884A12.717,12.717,0,0,0,25.428,12.714Z" fill="#1877f2"/>
  <path id="Path_13039" data-name="Path 13039" d="M312.164,211.423l.564-3.675H309.2v-2.385a1.838,1.838,0,0,1,2.072-1.986h1.6v-3.129a19.552,19.552,0,0,0-2.846-.248c-2.9,0-4.8,1.76-4.8,4.947v2.8H302v3.675h3.228v8.884a12.848,12.848,0,0,0,3.973,0v-8.884Z" transform="translate(-294.501 -195.034)" fill="#fff"/>
</svg>
