<svg id="Group_4176" data-name="Group 4176" xmlns="http://www.w3.org/2000/svg" width="22.546" height="24.428" viewBox="0 0 22.546 24.428">
  <path id="Path_13041" data-name="Path 13041" d="M141.593,109.258a11.087,11.087,0,0,0-.243-2.5h-10.8v4.533h6.339a6.036,6.036,0,0,1-2.352,3.963l-.021.152,3.415,2.809.237.025a12.324,12.324,0,0,0,3.425-8.984" transform="translate(-119.047 -96.773)" fill="#4285f4"/>
  <path id="Path_13042" data-name="Path 13042" d="M24.2,166.168a10.6,10.6,0,0,0,7.617-2.958l-3.63-2.986a6.528,6.528,0,0,1-3.988,1.221,6.982,6.982,0,0,1-6.544-5.075l-.135.012L13.971,159.3l-.046.137A11.447,11.447,0,0,0,24.2,166.168" transform="translate(-12.698 -141.741)" fill="#34a853"/>
  <path id="Path_13043" data-name="Path 13043" d="M4.959,79.27a7.941,7.941,0,0,1-.383-2.416,8.347,8.347,0,0,1,.371-2.416l-.006-.162-3.6-2.965-.118.059a12.863,12.863,0,0,0,0,10.965L4.959,79.27" transform="translate(0 -64.64)" fill="#fbbc05"/>
  <path id="Path_13044" data-name="Path 13044" d="M24.2,4.723a6.187,6.187,0,0,1,4.448,1.819l3.246-3.366A10.71,10.71,0,0,0,24.2,0,11.447,11.447,0,0,0,13.925,6.731L17.644,9.8A7.009,7.009,0,0,1,24.2,4.723" transform="translate(-12.698 0)" fill="#eb4335"/>
</svg>
