<svg id="google_podcast" data-name="google podcast" xmlns="http://www.w3.org/2000/svg" width="23.055" height="23.055" viewBox="0 0 23.055 23.055">
  <g id="Podcast_icon_final">
    <g id="logo_podcasts_192px">
      <rect id="Rectangle-path" width="23.055" height="23.055" fill="none"/>
      <path id="Shape" d="M2.446,11.109A1.32,1.32,0,0,0,1.125,12.43v1.441a1.321,1.321,0,0,0,2.642,0V12.43A1.32,1.32,0,0,0,2.446,11.109Z" transform="translate(-0.164 -1.623)" fill="#0066d9"/>
      <path id="Shape-2" data-name="Shape" d="M24.1,11.109a1.32,1.32,0,0,0-1.321,1.321v1.441a1.321,1.321,0,0,0,2.642,0V12.43A1.32,1.32,0,0,0,24.1,11.109Z" transform="translate(-3.329 -1.623)" fill="#4285f4"/>
      <path id="Shape-3" data-name="Shape" d="M7.79,16.172a1.32,1.32,0,0,0-1.321,1.321v1.441a1.321,1.321,0,0,0,2.642,0V17.493A1.32,1.32,0,0,0,7.79,16.172Z" transform="translate(-0.945 -2.363)" fill="#ea4335"/>
      <path id="Shape-4" data-name="Shape" d="M7.79,6.047A1.32,1.32,0,0,0,6.469,7.368v4.713h0a1.32,1.32,0,0,0,2.639,0h0V7.368A1.32,1.32,0,0,0,7.79,6.047Z" transform="translate(-0.945 -0.884)" fill="#ea4335"/>
      <path id="Shape-5" data-name="Shape" d="M18.758,6.047a1.32,1.32,0,0,0-1.321,1.321V8.809a1.321,1.321,0,1,0,2.642,0V7.368A1.32,1.32,0,0,0,18.758,6.047Z" transform="translate(-2.548 -0.884)" fill="#34a853"/>
      <path id="Shape-6" data-name="Shape" d="M13.274,1.125a1.32,1.32,0,0,0-1.321,1.321V3.887a1.321,1.321,0,1,0,2.642,0V2.446A1.32,1.32,0,0,0,13.274,1.125Z" transform="translate(-1.747 -0.164)" fill="#fab908"/>
      <path id="Shape-7" data-name="Shape" d="M13.274,21.094a1.32,1.32,0,0,0-1.321,1.321v1.441a1.321,1.321,0,0,0,2.642,0V22.415A1.32,1.32,0,0,0,13.274,21.094Z" transform="translate(-1.747 -3.082)" fill="#fab908"/>
      <path id="Shape-8" data-name="Shape" d="M18.758,12.375A1.32,1.32,0,0,0,17.438,13.7v4.683a1.321,1.321,0,0,0,2.642,0V13.7A1.32,1.32,0,0,0,18.758,12.375Z" transform="translate(-2.548 -1.808)" fill="#34a853"/>
      <path id="Shape-9" data-name="Shape" d="M14.595,8.774a1.321,1.321,0,0,0-2.642,0h0v7.685h0a1.321,1.321,0,1,0,2.642,0h0V8.774Z" transform="translate(-1.747 -1.089)" fill="#fab908"/>
    </g>
  </g>
</svg>
