<svg id="google_podcast" data-name="google podcast" xmlns="http://www.w3.org/2000/svg" width="117.851" height="18.65" viewBox="0 0 117.851 18.65">
  <g id="Podcast_icon_final">
    <g id="logo_podcasts_192px">
      <rect id="Rectangle-path" width="18.65" height="18.65" fill="none"/>
      <path id="Shape" d="M2.193,11.109a1.068,1.068,0,0,0-1.068,1.068v1.166a1.068,1.068,0,0,0,2.137,0V12.178A1.068,1.068,0,0,0,2.193,11.109Z" transform="translate(-0.348 -3.436)" fill="#0066d9"/>
      <path id="Shape-2" data-name="Shape" d="M23.85,11.109a1.068,1.068,0,0,0-1.068,1.068v1.166a1.068,1.068,0,0,0,2.137,0V12.178A1.068,1.068,0,0,0,23.85,11.109Z" transform="translate(-7.045 -3.436)" fill="#4285f4"/>
      <path id="Shape-3" data-name="Shape" d="M7.537,16.172A1.068,1.068,0,0,0,6.469,17.24v1.166a1.068,1.068,0,0,0,2.137,0V17.24A1.068,1.068,0,0,0,7.537,16.172Z" transform="translate(-2.001 -5.001)" fill="#ea4335"/>
      <path id="Shape-4" data-name="Shape" d="M7.537,6.047A1.068,1.068,0,0,0,6.469,7.115v3.813h0a1.068,1.068,0,0,0,2.135,0h0V7.115A1.068,1.068,0,0,0,7.537,6.047Z" transform="translate(-2.001 -1.87)" fill="#ea4335"/>
      <path id="Shape-5" data-name="Shape" d="M18.506,6.047a1.068,1.068,0,0,0-1.068,1.068V8.281a1.068,1.068,0,1,0,2.137,0V7.115A1.068,1.068,0,0,0,18.506,6.047Z" transform="translate(-5.393 -1.87)" fill="#34a853"/>
      <path id="Shape-6" data-name="Shape" d="M13.022,1.125a1.068,1.068,0,0,0-1.068,1.068V3.359a1.068,1.068,0,1,0,2.137,0V2.193A1.068,1.068,0,0,0,13.022,1.125Z" transform="translate(-3.697 -0.348)" fill="#fab908"/>
      <path id="Shape-7" data-name="Shape" d="M13.022,21.094a1.068,1.068,0,0,0-1.068,1.068v1.166a1.068,1.068,0,0,0,2.137,0V22.162A1.068,1.068,0,0,0,13.022,21.094Z" transform="translate(-3.697 -6.523)" fill="#fab908"/>
      <path id="Shape-8" data-name="Shape" d="M18.506,12.375a1.068,1.068,0,0,0-1.068,1.068v3.788a1.068,1.068,0,0,0,2.137,0V13.443A1.068,1.068,0,0,0,18.506,12.375Z" transform="translate(-5.393 -3.827)" fill="#34a853"/>
      <path id="Shape-9" data-name="Shape" d="M14.09,8.522a1.068,1.068,0,0,0-2.137,0h0v6.217h0a1.068,1.068,0,1,0,2.137,0h0V8.522Z" transform="translate(-3.697 -2.305)" fill="#fab908"/>
    </g>
  </g>
  <g id="Group" transform="translate(22.72 -0.785)">
    <path id="Rectangle-path-2" data-name="Rectangle-path" d="M0,3.24H93.311V17.6H0Z" transform="translate(0 -0.038)" fill="none" fill-rule="evenodd"/>
    <path id="Podcasts" d="M50.245,13.213V9.471h2.012a2.994,2.994,0,0,0,1.423-.346,2.711,2.711,0,0,0,1.045-.968,2.581,2.581,0,0,0,.391-1.4,2.581,2.581,0,0,0-.391-1.4,2.711,2.711,0,0,0-1.045-.968,2.994,2.994,0,0,0-1.423-.346H49.168v9.177Zm2.038-4.781H50.245V5.074h2.038a1.673,1.673,0,0,1,.9.244,1.748,1.748,0,0,1,.609.628,1.605,1.605,0,0,1,0,1.615,1.748,1.748,0,0,1-.609.628,1.673,1.673,0,0,1-.9.244Zm6.434,4.986a3.3,3.3,0,0,0,1.73-.461,3.227,3.227,0,0,0,1.2-1.256,3.805,3.805,0,0,0,0-3.512,3.227,3.227,0,0,0-1.2-1.256,3.475,3.475,0,0,0-3.461,0,3.227,3.227,0,0,0-1.2,1.256,3.805,3.805,0,0,0,0,3.512,3.227,3.227,0,0,0,1.2,1.256A3.3,3.3,0,0,0,58.717,13.418Zm0-.987a2.226,2.226,0,0,1-1.967-1.166,2.67,2.67,0,0,1-.314-1.32,2.67,2.67,0,0,1,.314-1.32,2.227,2.227,0,0,1,3.922,0,2.67,2.67,0,0,1,.314,1.32,2.67,2.67,0,0,1-.314,1.32,2.226,2.226,0,0,1-.833.865A2.2,2.2,0,0,1,58.717,12.431Zm7.216.987a2.647,2.647,0,0,0,1.346-.34,2.518,2.518,0,0,0,.9-.827h.051v.961h1.038V4.036H68.176v2.7l.051.91h-.051a2.473,2.473,0,0,0-.9-.84,2.647,2.647,0,0,0-1.346-.34,2.907,2.907,0,0,0-1.583.449,3.134,3.134,0,0,0-1.122,1.243,3.827,3.827,0,0,0-.41,1.782,3.816,3.816,0,0,0,.41,1.788A3.144,3.144,0,0,0,64.35,12.97,2.907,2.907,0,0,0,65.933,13.418Zm.128-.987A2,2,0,0,1,65,12.124a2.22,2.22,0,0,1-.8-.878,2.744,2.744,0,0,1-.3-1.3,2.744,2.744,0,0,1,.3-1.3,2.22,2.22,0,0,1,.8-.878,2,2,0,0,1,2.134,0,2.248,2.248,0,0,1,.795.872,2.734,2.734,0,0,1,.3,1.307,2.734,2.734,0,0,1-.3,1.307,2.248,2.248,0,0,1-.795.872A1.986,1.986,0,0,1,66.061,12.431Zm7.537.987a3.11,3.11,0,0,0,1.788-.5,2.877,2.877,0,0,0,1.07-1.307h0l-.974-.41a1.917,1.917,0,0,1-.743.91,2.161,2.161,0,0,1-1.192.32,1.987,1.987,0,0,1-1.077-.314,2.279,2.279,0,0,1-.8-.878,2.706,2.706,0,0,1-.3-1.295,2.706,2.706,0,0,1,.3-1.295,2.279,2.279,0,0,1,.8-.878,1.987,1.987,0,0,1,1.077-.314,2.074,2.074,0,0,1,1.16.314,1.913,1.913,0,0,1,.724.916h0l.987-.41a2.7,2.7,0,0,0-1.032-1.314A3.1,3.1,0,0,0,73.6,6.471a3.277,3.277,0,0,0-1.7.449,3.119,3.119,0,0,0-1.179,1.243,3.732,3.732,0,0,0-.423,1.782,3.694,3.694,0,0,0,.423,1.775,3.175,3.175,0,0,0,1.179,1.243A3.242,3.242,0,0,0,73.6,13.418Zm5.883,0a2.447,2.447,0,0,0,1.269-.333,2.337,2.337,0,0,0,.846-.808h.051v.936h1.038V9.073a2.453,2.453,0,0,0-.763-1.9,2.985,2.985,0,0,0-2.1-.7,3.318,3.318,0,0,0-1.493.333,2.62,2.62,0,0,0-1.057.923h0l.82.615a1.85,1.85,0,0,1,.731-.66,2.182,2.182,0,0,1,1.013-.237,1.911,1.911,0,0,1,1.295.442,1.472,1.472,0,0,1,.513,1.173h0v.4a2.833,2.833,0,0,0-.775-.295,4.457,4.457,0,0,0-1.1-.128,3.211,3.211,0,0,0-1.974.583,1.908,1.908,0,0,0-.782,1.621,2.076,2.076,0,0,0,.308,1.122,2.112,2.112,0,0,0,.872.775A2.827,2.827,0,0,0,79.481,13.418Zm.1-.961a1.593,1.593,0,0,1-1.038-.333,1.069,1.069,0,0,1-.41-.872,1.184,1.184,0,0,1,.455-.961,2.1,2.1,0,0,1,1.352-.372,3.437,3.437,0,0,1,.949.128,2.69,2.69,0,0,1,.756.333,1.994,1.994,0,0,1-.282,1.038,2.137,2.137,0,0,1-.756.756A1.971,1.971,0,0,1,79.584,12.457Zm6.652.961a3.394,3.394,0,0,0,1.307-.244,2.2,2.2,0,0,0,.936-.7,1.7,1.7,0,0,0,.346-1.057,1.585,1.585,0,0,0-.487-1.173,3.115,3.115,0,0,0-1.448-.724h0l-.949-.244a2.245,2.245,0,0,1-.846-.365.711.711,0,0,1-.282-.583.734.734,0,0,1,.4-.634,1.753,1.753,0,0,1,.942-.25,1.582,1.582,0,0,1,1.551.872h0l.949-.436A2.1,2.1,0,0,0,87.7,6.843a3.115,3.115,0,0,0-1.532-.372,3.185,3.185,0,0,0-1.218.231,2.174,2.174,0,0,0-.9.66,1.649,1.649,0,0,0,.16,2.185,2.854,2.854,0,0,0,1.282.654h0l.795.205a3.2,3.2,0,0,1,1.089.429.8.8,0,0,1-.09,1.371,2.08,2.08,0,0,1-1.051.25,1.866,1.866,0,0,1-1.057-.32,1.958,1.958,0,0,1-.724-.91h0l-.974.436a2.693,2.693,0,0,0,1,1.263A2.988,2.988,0,0,0,86.236,13.418Zm6.05-.1a2.743,2.743,0,0,0,.506-.038,1.675,1.675,0,0,0,.391-.128h0V12.085a1.329,1.329,0,0,1-.718.218.881.881,0,0,1-.7-.282,1.264,1.264,0,0,1-.205-.795h0V7.663h1.589V6.676H91.555V4.831H90.466V6.676H89.325v.987h1.141V11.5a2.11,2.11,0,0,0,.128.782,1.58,1.58,0,0,0,.385.564,1.685,1.685,0,0,0,.57.346A2.071,2.071,0,0,0,92.286,13.316Zm4.409.1A3.394,3.394,0,0,0,98,13.175a2.2,2.2,0,0,0,.936-.7,1.7,1.7,0,0,0,.346-1.057,1.585,1.585,0,0,0-.487-1.173,3.115,3.115,0,0,0-1.448-.724h0L96.4,9.278a2.245,2.245,0,0,1-.846-.365.711.711,0,0,1-.282-.583.734.734,0,0,1,.4-.634,1.753,1.753,0,0,1,.942-.25,1.582,1.582,0,0,1,1.551.872h0l.948-.436a2.1,2.1,0,0,0-.955-1.038,3.115,3.115,0,0,0-1.532-.372,3.185,3.185,0,0,0-1.218.231,2.174,2.174,0,0,0-.9.66,1.649,1.649,0,0,0,.16,2.185,2.854,2.854,0,0,0,1.282.654h0l.795.205a3.2,3.2,0,0,1,1.089.429.8.8,0,0,1-.09,1.371,2.08,2.08,0,0,1-1.051.25,1.866,1.866,0,0,1-1.057-.32,1.958,1.958,0,0,1-.724-.91h0l-.974.436a2.694,2.694,0,0,0,1,1.263A2.988,2.988,0,0,0,96.7,13.418Z" transform="translate(-4.153 -0.106)" fill="#3c4043"/>
    <path id="Combined-Shape" d="M28.978,6.473a2.317,2.317,0,0,1,1.775.758h.05V6.682h1.416v6.051c0,2.492-1.465,3.509-3.2,3.509a3.211,3.211,0,0,1-2.991-1.994l1.286-.538a1.857,1.857,0,0,0,1.695,1.2c1.107,0,1.794-.688,1.794-1.974v-.488h-.05a2.288,2.288,0,0,1-1.775.768,3.373,3.373,0,0,1,0-6.739Zm-14.6.1a3.37,3.37,0,1,1-3.38,3.37A3.318,3.318,0,0,1,14.373,6.573Zm7.377,0a3.37,3.37,0,1,1-3.38,3.37A3.318,3.318,0,0,1,21.75,6.573Zm16.848,0a3.123,3.123,0,0,1,2.881,2.143l.15.379-4.506,1.864a1.725,1.725,0,0,0,1.635,1.017,1.939,1.939,0,0,0,1.665-.927l1.146.768a3.373,3.373,0,0,1-2.811,1.5,3.3,3.3,0,0,1-3.34-3.37A3.2,3.2,0,0,1,38.6,6.573ZM5.64,2.784A5,5,0,0,1,9.229,4.23L8.212,5.237A3.608,3.608,0,0,0,5.64,4.21a3.749,3.749,0,0,0-3.748,3.8,3.749,3.749,0,0,0,3.748,3.8A3.5,3.5,0,0,0,8.282,10.76,2.97,2.97,0,0,0,9.06,8.965H5.64V7.54h4.815a4.761,4.761,0,0,1,.08.9A4.682,4.682,0,0,1,9.3,11.777,4.818,4.818,0,0,1,5.64,13.242,5.3,5.3,0,0,1,.327,8.018,5.3,5.3,0,0,1,5.64,2.784Zm29.06.4v9.9H33.225v-9.9ZM14.373,7.889a1.939,1.939,0,0,0-1.9,2.044,1.909,1.909,0,1,0,3.808,0A1.945,1.945,0,0,0,14.373,7.889Zm7.377,0a1.939,1.939,0,0,0-1.9,2.044,1.909,1.909,0,1,0,3.808,0A1.939,1.939,0,0,0,21.75,7.889Zm7.357-.09a1.949,1.949,0,0,0-1.874,2.054,1.937,1.937,0,0,0,1.874,2.034A1.871,1.871,0,0,0,30.9,9.853,1.9,1.9,0,0,0,29.108,7.8Zm9.54.07a1.849,1.849,0,0,0-1.765,1.964l3.011-1.246A1.281,1.281,0,0,0,38.648,7.869Z" transform="translate(-0.028)" fill="#3c4043"/>
  </g>
</svg>
