<svg id="cliparts_logos_asharqalawsat_v2.2_" data-name="cliparts/logos/asharqalawsat (v2.2)" xmlns="http://www.w3.org/2000/svg" width="182.946" height="29.936" viewBox="0 0 182.946 29.936">
  <rect id="cliparts_logos_asharqalawsat_v2.2_background" data-name="cliparts/logos/asharqalawsat (v2.2) background" width="182.6" height="29.936" fill="none"/>
  <path id="Shape" d="M138.41,29.936H132.7V5.987h5.708v9.729h3.567V5.987h5.708v9.729h2.854V5.987h5.708v9.729H159.1V5.987h5.708v9.729h3.567V0h5.708V24.7h-6.421l-2.854-2.246V24.7h-6.421l-2.141-2.246V24.7h-6.421l-2.14-2.246V24.7H138.41v5.238Zm-67.778,0H64.924V24.7H54.936V5.987h15.7V29.935ZM60.643,11.226v4.49h4.281v-4.49ZM43.521,24.7H37.1l-2.141-2.246V24.7H27.824l-2.14-2.246V24.7H0V15.716H2.854V0H8.561V10.86l.312-.3a21.214,21.214,0,0,1,4.274-3.477,10.877,10.877,0,0,1,5.4-1.1h7.134v9.729h3.568V5.987h5.707v9.729h2.854V5.987h5.708v9.729h2.854V5.987h5.708V24.7H45.661l-2.14-2.246V24.7ZM17.836,11.226c-2.854,0-4.285,1.5-7.134,4.49h9.275v-4.49ZM182.643,24.7h-5.707V0h5.707Zm-52.8,0H105.59V5.987H111.3v9.729h5.358a15.763,15.763,0,0,1-1.927-4.288,20.746,20.746,0,0,1-.577-5.442h15.7V24.7ZM124.14,11.226h-3.574a5.566,5.566,0,0,0,3.574,4.422ZM99.169,24.7H93.462V0h5.707Zm-8.561,0H73.485V15.716h3.93a17.691,17.691,0,0,1-2.5-9.728H80.62a15.316,15.316,0,0,0,.8,5.417A8.1,8.1,0,0,0,84.9,15.649V0h5.708Zm74.2-20.207H159.1V0h5.708V4.49Zm-8.562,0h-5.708V0h5.708V4.49Zm-8.561,0h-5.708V0h5.708V4.49Zm-17.836,0H124.14V0h5.708V4.49Zm-7.848,0h-5.708V0H122V4.49Zm-44.234,0H74.913V0H80.62V2.993H77.766v1.5Z" transform="translate(0.303)" fill=""/>
</svg>
