<svg xmlns="http://www.w3.org/2000/svg" width="15.825" height="13.637" viewBox="0 0 15.825 13.637">
  <g id="Component_271_55" data-name="Component 271 – 55" transform="translate(0.2 0.2)">
    <path id="Path_12242" data-name="Path 12242" d="M22.1,37.494a.673.673,0,0,0,.667.517.724.724,0,0,0,.692-.724V31.91A.691.691,0,0,0,22.1,31.7a2.506,2.506,0,0,0-.89.207c.074-3.723,2.546-6.308,6.032-6.308a6.168,6.168,0,0,1,6.229,6.463,2.524,2.524,0,0,0-.939-.31.7.7,0,0,0-.667-.543.724.724,0,0,0-.692.724v5.378a.724.724,0,0,0,.692.724.7.7,0,0,0,.667-.543,2.92,2.92,0,0,0,1.73-4.731v-.62c0-4.266-2.942-7.342-7.02-7.342-3.955,0-6.823,3.077-6.823,7.342v.336a2.933,2.933,0,0,0-.915,2.146A2.852,2.852,0,0,0,22.1,37.494Z" transform="translate(-19.5 -24.8)" fill="#2c8a82" stroke="#2c8a82" stroke-width="0.4"/>
  </g>
</svg>
