<svg id="Component_1822_3" data-name="Component 1822 – 3" xmlns="http://www.w3.org/2000/svg" width="39" height="39" viewBox="0 0 39 39">
  <defs>
    <style>
      .cls-1 {
        fill: #E3EBF015;
      }
    </style>
  </defs>
  <path id="Path_19189" data-name="Path 19189" class="cls-1" d="M19.5,0A19.5,19.5,0,1,1,5.711,33.289,19.271,19.271,0,0,1,0,19.5,19.5,19.5,0,0,1,19.5,0Z"/>
  <g id="noun-home-3596070" transform="translate(-78.804 -15.242)">
    <path id="Path_19185" data-name="Path 19185" d="M154.6,268.885H142.086A2.088,2.088,0,0,1,140,266.8v-8.343a.7.7,0,1,1,1.391,0V266.8a.7.7,0,0,0,.7.7H154.6a.7.7,0,0,0,.7-.7v-8.343a.7.7,0,1,1,1.391,0V266.8a2.088,2.088,0,0,1-2.086,2.086Z" transform="translate(-50.122 -225.494)" fill="#FFFFFF"/>
    <path id="Path_19186" data-name="Path 19186" d="M107.955,30.9a.692.692,0,0,1-.429-.149l-8.875-6.973a.7.7,0,0,0-.86,0l-8.875,6.973a.7.7,0,0,1-.859-1.093l8.875-6.973a2.082,2.082,0,0,1,2.578,0l8.875,6.973h0a.7.7,0,0,1-.429,1.241Z" transform="translate(0 4)" fill="#FFFFFF"/>
    <path id="Path_19187" data-name="Path 19187" d="M268.758,336.1a.7.7,0,0,1-.7-.7v-5.562a.7.7,0,0,0-.7-.7h-2.781a.7.7,0,0,0-.7.7v5.562a.7.7,0,1,1-1.391,0v-5.562a2.088,2.088,0,0,1,2.086-2.086h2.781a2.088,2.088,0,0,1,2.086,2.086v5.562a.7.7,0,0,1-.7.7Z" transform="translate(-167.755 -292.712)" fill="#FFFFFF"/>
  </g>
</svg>
