<svg xmlns="http://www.w3.org/2000/svg" width="18.4" height="18.989" viewBox="0 0 18.4 18.989">
  <path id="Combined_Shape" data-name="Combined Shape" d="M4.5,18.589A4.82,4.82,0,0,1,0,13.941V4.647A4.82,4.82,0,0,1,4.5,0h9A4.82,4.82,0,0,1,18,4.647v9.295a4.82,4.82,0,0,1-4.5,4.648ZM2.25,4.647v9.295A2.552,2.552,0,0,0,4.5,16.266h9a2.592,2.592,0,0,0,2.251-2.324V4.647A2.592,2.592,0,0,0,13.5,2.323h-9A2.592,2.592,0,0,0,2.25,4.647ZM4.5,9.295A4.581,4.581,0,0,1,9,4.647a4.581,4.581,0,0,1,4.5,4.648A4.581,4.581,0,0,1,9,13.941,4.581,4.581,0,0,1,4.5,9.295Zm2.251,0A2.251,2.251,0,1,0,9,6.971,2.29,2.29,0,0,0,6.75,9.295Zm5.833-4.773a1.08,1.08,0,1,1,1.079,1.116A1.1,1.1,0,0,1,12.583,4.521Z" transform="translate(0.2 0.2)" fill="#2c8a82" stroke="#f7fafa" stroke-width="0.4"/>
</svg>
