<svg xmlns="http://www.w3.org/2000/svg" width="12.771" height="12.767" viewBox="0 0 12.771 12.767">
  <path id="Icon_awesome-instagram" data-name="Icon awesome-instagram" d="M6.2,5.261A3.181,3.181,0,1,0,9.384,8.442,3.177,3.177,0,0,0,6.2,5.261Zm0,5.25A2.068,2.068,0,1,1,8.271,8.442,2.072,2.072,0,0,1,6.2,10.51Zm4.054-5.38a.742.742,0,1,1-.742-.742A.74.74,0,0,1,10.256,5.13Zm2.107.753a3.672,3.672,0,0,0-1-2.6,3.7,3.7,0,0,0-2.6-1c-1.025-.058-4.1-.058-5.12,0a3.692,3.692,0,0,0-2.6,1,3.684,3.684,0,0,0-1,2.6C-.02,6.905-.02,9.976.038,11a3.672,3.672,0,0,0,1,2.6,3.7,3.7,0,0,0,2.6,1c1.025.058,4.1.058,5.12,0a3.673,3.673,0,0,0,2.6-1,3.7,3.7,0,0,0,1-2.6C12.422,9.976,12.422,6.908,12.364,5.884ZM11.04,12.1a2.094,2.094,0,0,1-1.18,1.18,13.678,13.678,0,0,1-3.658.249,13.785,13.785,0,0,1-3.658-.249,2.094,2.094,0,0,1-1.18-1.18,13.674,13.674,0,0,1-.249-3.658,13.781,13.781,0,0,1,.249-3.658A2.094,2.094,0,0,1,2.544,3.6,13.678,13.678,0,0,1,6.2,3.356,13.785,13.785,0,0,1,9.86,3.6a2.094,2.094,0,0,1,1.18,1.18,13.674,13.674,0,0,1,.249,3.658A13.666,13.666,0,0,1,11.04,12.1Z" transform="translate(0.184 -2.059)" fill="#edf2f4" stroke="#969696" stroke-width="0.3"/>
</svg>
