<svg xmlns="http://www.w3.org/2000/svg" width="17.729" height="16.946" viewBox="0 0 17.729 16.946">
  <path id="_367593_linkedin_business_network_social_icon" data-name="367593_linkedin_business_network_social_icon" d="M46.225,60.79h3.8V72.224h-3.8Zm1.925-5.512a1.981,1.981,0,1,0-.05,3.95h.024a1.981,1.981,0,1,0,.025-3.95Zm11.2,5.243a3.772,3.772,0,0,0-3.424,1.887V60.79h-3.8c.05,1.073,0,11.434,0,11.434h3.8V65.838a2.617,2.617,0,0,1,.125-.928A2.081,2.081,0,0,1,58,63.521c1.376,0,1.926,1.049,1.926,2.585v6.118h3.8V65.667C63.729,62.155,61.855,60.521,59.353,60.521Z" transform="translate(-46 -55.278)" fill="#2c8a82"/>
</svg>
