<svg id="noun-live-2146857" xmlns="http://www.w3.org/2000/svg" width="17.091" height="12.579" viewBox="0 0 17.091 12.579">
  <path id="Path_14969" data-name="Path 14969" d="M498.188,84.93a.777.777,0,0,0-1.1,1.1,7.019,7.019,0,0,1,0,9.919.772.772,0,0,0,0,1.1.781.781,0,0,0,.54.234.71.71,0,0,0,.54-.234A8.578,8.578,0,0,0,498.188,84.93Z" transform="translate(-483.592 -84.7)" fill="#fff"/>
  <path id="Path_14970" data-name="Path 14970" d="M418.108,164.45a.777.777,0,1,0-1.1,1.1,3.385,3.385,0,0,1,0,4.789.772.772,0,0,0,0,1.1.781.781,0,0,0,.54.234.71.71,0,0,0,.54-.234A4.911,4.911,0,0,0,418.108,164.45Z" transform="translate(-406.086 -161.665)" fill="#fff"/>
  <path id="Path_14971" data-name="Path 14971" d="M87.736,86.028a.777.777,0,0,0-1.1-1.1,8.573,8.573,0,0,0,0,12.1.781.781,0,0,0,.54.234.71.71,0,0,0,.54-.234.772.772,0,0,0,0-1.1,7.014,7.014,0,0,1,.018-9.9Z" transform="translate(-84.14 -84.7)" fill="#fff"/>
  <path id="Path_14972" data-name="Path 14972" d="M198.961,165.548a.777.777,0,0,0-1.1-1.1,4.944,4.944,0,0,0,0,6.985.781.781,0,0,0,.54.234.71.71,0,0,0,.54-.234.772.772,0,0,0,0-1.1,3.418,3.418,0,0,1,.018-4.789Z" transform="translate(-192.809 -161.665)" fill="#fff"/>
  <path id="Path_14973" data-name="Path 14973" d="M311.75,240.435a1.314,1.314,0,1,1-1.314-1.314,1.314,1.314,0,0,1,1.314,1.314" transform="translate(-301.889 -234.157)" fill="#fff"/>
</svg>
