<svg xmlns="http://www.w3.org/2000/svg" width="10.802" height="14.153" viewBox="0 0 10.802 14.153">
  <g id="noun-lock-747565" transform="translate(0 0)">
    <path id="Path_13049" data-name="Path 13049" d="M167.18,33.755h-.388l0-1.936a3.825,3.825,0,0,0-7.65,0l0,1.936h-.138a1.313,1.313,0,0,0-1.312,1.315v5.764a1.315,1.315,0,0,0,1.315,1.313l8.175,0a1.311,1.311,0,0,0,1.312-1.313V35.067a1.314,1.314,0,0,0-1.315-1.312Zm-6.627,0,0-1.936a2.415,2.415,0,1,1,4.83,0l0,1.936Z" transform="translate(-157.694 -27.996)" fill=""/>
  </g>
</svg>
