<svg xmlns="http://www.w3.org/2000/svg" width="15" height="15" viewBox="0 0 15 15">
  <path id="noun-news-4541058" d="M175.429,93.242h-9.378a2.814,2.814,0,0,0-2.811,2.811v9.378a2.814,2.814,0,0,0,2.811,2.811h9.378a2.814,2.814,0,0,0,2.811-2.811V96.053a2.814,2.814,0,0,0-2.811-2.811Zm1.687,12.189a1.689,1.689,0,0,1-1.687,1.687h-9.378a1.689,1.689,0,0,1-1.687-1.687V96.053a1.689,1.689,0,0,1,1.687-1.687h9.378a1.689,1.689,0,0,1,1.687,1.687Zm-1.687-.562a.562.562,0,0,1-.562.562h-8.253a.562.562,0,1,1,0-1.124h8.253a.562.562,0,0,1,.562.562Zm0-2.751a.562.562,0,0,1-.562.562h-8.253a.562.562,0,1,1,0-1.124h8.253a.562.562,0,0,1,.562.562Zm-8.816-2.188h8.253a.562.562,0,0,0,.562-.562V96.615a.562.562,0,0,0-.562-.562h-8.253a.562.562,0,0,0-.562.562v2.751a.562.562,0,0,0,.562.562Z" transform="translate(-163.24 -93.242)" fill="#c3c3c3"/>
</svg>
