<svg xmlns="http://www.w3.org/2000/svg" width="17" height="12.843" viewBox="0 0 17 12.843">
  <g id="noun-notification-4253730" transform="translate(-94.652 -17.249)">
    <path id="Path_12832" data-name="Path 12832" d="M149.149,24.615l0-2.879a4.234,4.234,0,0,0-8.468,0l0,2.879-.748,1.744a1.239,1.239,0,0,0,1.139,1.728h7.685a1.24,1.24,0,0,0,1.14-1.728Z" transform="translate(-41.769 -0.112)" fill="#717171"/>
    <path id="Path_12833" data-name="Path 12833" d="M106.847,35.118a.423.423,0,0,0-.593.073A5.867,5.867,0,0,0,105,38.839a.423.423,0,0,0,.847,0,5.03,5.03,0,0,1,1.075-3.126.423.423,0,0,0-.073-.594Z" transform="translate(-8.391 -17.214)" fill="#717171"/>
    <path id="Path_12837" data-name="Path 12837" d="M106.847,35.118a.423.423,0,0,0-.593.073A5.867,5.867,0,0,0,105,38.839a.423.423,0,0,0,.847,0,5.03,5.03,0,0,1,1.075-3.126.423.423,0,0,0-.073-.594Z" transform="translate(-10.346 -17.772)" fill="#717171"/>
    <path id="Path_12834" data-name="Path 12834" d="M512.377,34.9a.423.423,0,1,0-.667.522,5.03,5.03,0,0,1,1.075,3.126.423.423,0,1,0,.847,0,5.868,5.868,0,0,0-1.255-3.648Z" transform="translate(-403.94 -16.921)" fill="#717171"/>
    <path id="Path_12836" data-name="Path 12836" d="M512.377,34.9a.423.423,0,1,0-.667.522,5.03,5.03,0,0,1,1.075,3.126.423.423,0,1,0,.847,0,5.868,5.868,0,0,0-1.255-3.648Z" transform="translate(-401.98 -17.478)" fill="#717171"/>
    <path id="Path_12835" data-name="Path 12835" d="M271.856,491.27a2.117,2.117,0,0,0,1.937-1.27h-3.875a2.117,2.117,0,0,0,1.937,1.27Z" transform="translate(-168.706 -461.178)" fill="#717171"/>
  </g>
</svg>
