<svg xmlns="http://www.w3.org/2000/svg" width="12" height="13.11" viewBox="0 0 12 13.11">
  <g id="noun-pen-1047173" transform="translate(-117.732 -26.254)">
    <path id="Path_13152" data-name="Path 13152" d="M127.3,26.254a.294.294,0,0,1,.2.085c.717.711,1.431,1.412,2.152,2.121a.293.293,0,0,1,0,.405l-9.326,9.19a1.248,1.248,0,0,1-.836.352.981.981,0,0,1-.827.1l-.511.263a.3.3,0,0,1-.335-.053.29.29,0,0,1-.054-.33l.267-.508a.931.931,0,0,1,.1-.811,1.207,1.207,0,0,1,.357-.824l9.123-8.99-.312-.307-2.807,2.767a.3.3,0,0,1-.412,0,.293.293,0,0,1,.005-.406l3.011-2.967a.3.3,0,0,1,.208-.085Z" transform="translate(0 0)" fill-rule="evenodd" fill='#ffffff'/>
    <path id="Path_13153" data-name="Path 13153" d="M206.357,405.536a1.562,1.562,0,0,0-1.115.368.769.769,0,0,0-.221.38,1.642,1.642,0,0,0,.009.763,1.453,1.453,0,0,0,.668.826,4.348,4.348,0,0,1,.859.794,1.539,1.539,0,0,1,.164.267.761.761,0,0,1-.184.175,2.194,2.194,0,0,1-.672.272,11.286,11.286,0,0,1-2.874.206h0c-.049,0-.1.04-.132.12a.793.793,0,0,0-.056.3.81.81,0,0,0,.053.307c.035.082.082.127.131.126a11.372,11.372,0,0,0,2.917-.211,2.335,2.335,0,0,0,.733-.3.912.912,0,0,0,.4-.509,1.514,1.514,0,0,0,.072-.5,1.592,1.592,0,0,0-.074-.448,1.735,1.735,0,0,0-.3-.56,4.506,4.506,0,0,0-.929-.865,1.95,1.95,0,0,1-.393-.382,1.9,1.9,0,0,1,1.3-.247h0c.049.009.1-.028.134-.1a.749.749,0,0,0,.063-.3.852.852,0,0,0-.047-.314c-.033-.086-.079-.137-.128-.142a2.777,2.777,0,0,0-.378-.029Z" transform="translate(-81.809 -371.089)" fill-rule="evenodd" fill='#ffffff'/>
  </g>
</svg>
