<svg xmlns="http://www.w3.org/2000/svg" width="27.891" height="22.372" viewBox="0 0 27.891 22.372">
  <g id="Group_5281" data-name="Group 5281" transform="translate(0 0)">
    <path id="Path_14982" data-name="Path 14982" d="M87.17,82.629l-1.439-10.6a1.427,1.427,0,0,1,1.233-1.615l15.208-2.085h.206a1.424,1.424,0,0,1,1.409,1.233l.117.881h1.732l-.147-1.086a3.184,3.184,0,0,0-1.2-2.085,3.149,3.149,0,0,0-2.319-.617L86.729,68.713a3.149,3.149,0,0,0-2.7,3.552l1.439,10.6a3.133,3.133,0,0,0,3.112,2.7h.059V83.833a1.4,1.4,0,0,1-1.468-1.2Z" transform="translate(-83.999 -66.628)" fill="#fff"/>
    <path id="Path_14983" data-name="Path 14983" d="M221.774,169.68H206.419a3.145,3.145,0,0,0-3.141,3.141v10.687a3.145,3.145,0,0,0,3.141,3.141h15.355a3.145,3.145,0,0,0,3.141-3.141V172.821A3.145,3.145,0,0,0,221.774,169.68Zm-15.355,1.7h15.355a1.409,1.409,0,0,1,1.409,1.409v8.984l-4.521-5.167a1.9,1.9,0,0,0-2.877,0L211.91,181.1l-1.409-1.556a1.765,1.765,0,0,0-2.642,0l-2.848,3.141v-9.864a1.4,1.4,0,0,1,1.409-1.439Z" transform="translate(-197.025 -164.277)" fill="#fff"/>
    <path id="Path_14984" data-name="Path 14984" d="M286.206,243.626a1.7,1.7,0,1,1-1.7-1.7,1.7,1.7,0,0,1,1.7,1.7" transform="translate(-272.378 -232.733)" fill="#fff"/>
  </g>
</svg>
