<svg id="Component_744_3" data-name="Component 744 – 3" xmlns="http://www.w3.org/2000/svg" width="24.536" height="24.185" viewBox="0 0 24.536 24.185">
  <g id="noun-refresh-1575697" transform="matrix(-0.839, 0.545, -0.545, -0.839, 24.536, 14.269)">
    <path id="Path_13304" data-name="Path 13304" d="M9.713,17.013A8.507,8.507,0,0,0,9.719,0a.594.594,0,1,0,0,1.187,7.32,7.32,0,1,1-6.825,9.966l1.348.785h0a.594.594,0,1,0,.6-1.026L2.35,9.453a.594.594,0,0,0-.822.235L.075,12.4a.595.595,0,1,0,1.051.556l.7-1.3a8.5,8.5,0,0,0,7.888,5.36Z" fill="#929898"/>
  </g>
  <text id="_10" data-name="10" transform="translate(17.049 15.299)" fill="#929898" font-size="9" font-family="Helvetica"><tspan x="-10.011" y="0">10</tspan></text>
</svg>
