<svg width="35" height="35" viewBox="0 0 35 35" fill="none" xmlns="http://www.w3.org/2000/svg">
<circle cx="17.5" cy="17.5" r="17.5" fill="#D2E4E3"/>
<path d="M10.3706 23.996C10.3741 24.3554 10.4711 24.7077 10.6521 25.0182C10.8331 25.3287 11.0917 25.5865 11.4026 25.7663C11.7135 25.9462 12.0658 26.0417 12.4248 26.0436C12.7839 26.0455 13.1372 25.9537 13.45 25.7772L24.8809 19.3114C25.197 19.1402 25.461 18.8866 25.6451 18.5775C25.8291 18.2684 25.9262 17.9153 25.9262 17.5554C25.9262 17.1956 25.8291 16.8424 25.6451 16.5333C25.461 16.2242 25.197 15.9707 24.8809 15.7994L13.45 9.34254C13.1373 9.16509 12.7839 9.07253 12.4245 9.07399C12.0651 9.07546 11.7123 9.17091 11.4012 9.3509C11.09 9.5309 10.8312 9.78917 10.6504 10.1001C10.4697 10.4111 10.3732 10.764 10.3706 11.1238V23.996Z" fill="#2C8A82"/>
</svg>
