<svg id="Component_744_2" data-name="Component 744 – 2" xmlns="http://www.w3.org/2000/svg" width="24.536" height="24.185" viewBox="0 0 24.536 24.185">
  <g id="noun-refresh-1575697" transform="matrix(0.839, 0.545, -0.545, 0.839, -46.809, -83.145)">
    <path id="Path_13304" data-name="Path 13304" d="M102.025,39.191a8.507,8.507,0,0,1,.006,17.013.594.594,0,1,1,0-1.187,7.32,7.32,0,1,0-6.825-9.966l1.348-.785h0a.594.594,0,1,1,.6,1.026l-2.491,1.459a.594.594,0,0,1-.822-.235l-1.453-2.708a.595.595,0,1,1,1.051-.556l.7,1.3a8.5,8.5,0,0,1,7.888-5.36Z" transform="translate(0)" fill="#929898"/>
  </g>
  <text id="_10" data-name="10" transform="translate(17.049 15.299)" fill="#929898" font-size="9" font-family="Helvetica"><tspan x="-10.011" y="0">10</tspan></text>
</svg>
