<svg xmlns="http://www.w3.org/2000/svg" width="31" height="21.98" viewBox="0 0 31 21.98">
  <g id="Group_4933" data-name="Group 4933" transform="translate(-1552.89 -1339.284)">
    <g id="Subtraction_7" data-name="Subtraction 7" transform="translate(1552.89 1339.285)" fill="none">
      <path d="M 2.939332246780396 19.08875465393066 C 2.788361072540283 18.83915138244629 2.681402444839478 18.55918502807617 2.628475666046143 18.25930976867676 L 0.6367957592010498 6.962620258331299 C 0.5253457427024841 6.331250190734863 0.6665157675743103 5.694420337677002 1.034275770187378 5.16933012008667 C 1.402015686035156 4.644240379333496 1.952195763587952 4.293900489807129 2.583475828170776 4.182820320129395 L 22.69328498840332 0.636780321598053 C 22.83266639709473 0.6121803522109985 22.97424507141113 0.599720299243927 23.11417579650879 0.599720299243927 C 24.27874565124512 0.599720299243927 25.27121543884277 1.433760285377502 25.47403526306152 2.582890272140503 L 25.63261413574219 3.482400417327881 L 8.397895812988281 3.482400417327881 C 5.310325622558594 3.482400417327881 2.79839563369751 5.994330406188965 2.79839563369751 9.081900596618652 L 2.79839563369751 17.83170127868652 C 2.79839563369751 18.25955009460449 2.846004486083984 18.68052291870117 2.939332246780396 19.08875465393066 Z" stroke="none"/>
      <path d="M 2.198395729064941 12.36429023742676 L 2.198395729064941 9.081900596618652 C 2.198395729064941 7.270246028900146 2.979535102844238 5.637575149536133 4.222662448883057 4.503032207489014 L 2.687455654144287 4.773740291595459 C 2.214075803756714 4.857040405273438 1.801495790481567 5.119760513305664 1.525725722312927 5.513520240783691 C 1.249945759773254 5.907290458679199 1.144085764884949 6.38485050201416 1.227675795555115 6.858450412750244 L 2.198395729064941 12.36429023742676 M 24.9175910949707 2.882400274276733 L 24.88317489624023 2.687180280685425 C 24.73104667663574 1.825290322303772 23.98707580566406 1.19972038269043 23.11417579650879 1.19972038269043 C 23.00910568237305 1.19972038269043 22.90261650085449 1.209110379219055 22.7974853515625 1.227670311927795 L 13.41338729858398 2.882400274276733 L 24.9175910949707 2.882400274276733 M 4.355895519256592 20.77534103393555 L 4.353315830230713 20.7747802734375 C 3.159085750579834 20.51403045654297 2.250105857849121 19.56759071350098 2.037605762481689 18.36359977722168 L 0.04590573906898499 7.066800117492676 C -0.09338425844907761 6.277660369873047 0.08308573812246323 5.481550216674805 0.5428157448768616 4.825130462646484 C 1.002525687217712 4.16873025894165 1.690315723419189 3.730760335922241 2.479505777359009 3.59190034866333 L 22.58909606933594 0.04590032622218132 C 22.76270484924316 0.01526032667607069 22.93935585021973 -0.0002796731423586607 23.11417579650879 -0.0002796731423586607 C 24.57042503356934 -0.0002796731423586607 25.81138610839844 1.042240381240845 26.06490516662598 2.478600263595581 L 26.3476448059082 4.082400321960449 L 8.397895812988281 4.082400321960449 C 5.641175746917725 4.082400321960449 3.398395776748657 6.325170516967773 3.398395776748657 9.081900596618652 L 3.398395776748657 17.83170127868652 C 3.398395776748657 18.89748954772949 3.728965759277344 19.91464996337891 4.354345798492432 20.7732105255127 L 4.355895519256592 20.77534103393555 Z" stroke="none" fill="#2c8a82"/>
    </g>
    <g id="Rectangle_679" data-name="Rectangle 679" transform="translate(1555.947 1342.635)" fill="none" stroke="#2c8a82" stroke-width="1.2">
      <rect width="27.944" height="18.629" rx="3" stroke="none"/>
      <rect x="0.6" y="0.6" width="26.744" height="17.429" rx="2.4" fill="none"/>
    </g>
    <g id="Group_4932" data-name="Group 4932" transform="translate(1559.672 1347.292)">
      <rect id="Rectangle_682" data-name="Rectangle 682" width="20.492" height="3.726" rx="1" transform="translate(0 0)" fill="#2c8a82"/>
      <rect id="Rectangle_686" data-name="Rectangle 686" width="8.383" height="0.931" rx="0.466" transform="translate(12.109 6.52)" fill="#2c8a82"/>
      <rect id="Rectangle_688" data-name="Rectangle 688" width="8.383" height="0.931" rx="0.466" transform="translate(12.109 9.315)" fill="#2c8a82"/>
      <rect id="Rectangle_685" data-name="Rectangle 685" width="8.383" height="0.931" rx="0.466" transform="translate(0 6.52)" fill="#2c8a82"/>
      <rect id="Rectangle_687" data-name="Rectangle 687" width="8.383" height="0.931" rx="0.466" transform="translate(0 9.315)" fill="#2c8a82"/>
    </g>
  </g>
</svg>
