<svg xmlns="http://www.w3.org/2000/svg" width="17.5" height="17.5" viewBox="0 0 17.5 17.5">
  <g id="Group_4262" data-name="Group 4262" transform="translate(-9821.219 -8957.703)">
    <path id="Path_13106" data-name="Path 13106" d="M92.5,14a8.5,8.5,0,1,0,8.5,8.5A8.508,8.508,0,0,0,92.5,14Zm4.653,13.654V26.473a2.058,2.058,0,0,0-2.058-2.058H89.905a2.058,2.058,0,0,0-2.058,2.058v1.181a6.943,6.943,0,1,1,9.305,0Z" transform="translate(9737.469 8943.953)" fill="#717171" stroke="#ecf4f3" stroke-width="0.5"/>
    <path id="Path_13107" data-name="Path 13107" d="M269.062,145.171a2.932,2.932,0,1,1-2.932-2.932,2.932,2.932,0,0,1,2.932,2.932" transform="translate(9563.84 8819.698)" fill="#717171" stroke="#ecf4f3" stroke-width="0.5"/>
  </g>
</svg>
