<svg xmlns="http://www.w3.org/2000/svg" width="18.239" height="18.715" viewBox="0 0 18.239 18.715">
  <g id="Group_3965" data-name="Group 3965" transform="translate(0.5 0.5)">
    <path id="Path_12726" data-name="Path 12726" d="M115.465,186.311H101.084a1.486,1.486,0,0,1-1.429-1.534v-8.325a1.584,1.584,0,0,1,.305-.946,1.386,1.386,0,0,1,1.124-.587h1.583a.256.256,0,0,1,0,.511h-1.583a.924.924,0,0,0-.749.392,1.057,1.057,0,0,0-.2.631v8.325a.99.99,0,0,0,.953,1.022h14.381a.99.99,0,0,0,.953-1.022v-8.325a1.056,1.056,0,0,0-.195-.618.925.925,0,0,0-.758-.4h-1.629a.256.256,0,0,1,0-.511h1.629a1.387,1.387,0,0,1,1.137.605,1.587,1.587,0,0,1,.292.929v8.325a1.486,1.486,0,0,1-1.429,1.534Z" transform="translate(-99.655 -168.597)" stroke="#000000" stroke-width="1"/>
    <path id="Path_12728" data-name="Path 12728" d="M269.232,31.549a.255.255,0,0,1-.361,0l-2.378-2.378V41.845a.256.256,0,0,1-.511,0V29.161L263.6,31.549a.256.256,0,0,1-.362-.361l2.778-2.777.046-.047a.257.257,0,0,1,.156-.074h.04a.261.261,0,0,1,.157.074l.044.044,2.779,2.779a.256.256,0,0,1,0,.361Z" transform="translate(-257.613 -28.289)" stroke="#000000" stroke-width="1"/>
  </g>
</svg>
