<svg id="Spotify" xmlns="http://www.w3.org/2000/svg" width="23.764" height="23.891" viewBox="0 0 23.764 23.891">
  <path id="Combined-Shape" d="M18.588,10.411a1.089,1.089,0,0,0,1.5-.384A1.1,1.1,0,0,0,19.7,8.522C15.369,5.935,8.511,5.692,4.385,6.951a1.1,1.1,0,0,0,.634,2.1C8.613,7.956,14.823,8.163,18.588,10.411Zm-.123,3.33a.919.919,0,0,0-.3-1.259,16.955,16.955,0,0,0-13.12-1.56.915.915,0,0,0,.529,1.752,15.255,15.255,0,0,1,11.638,1.369A.908.908,0,0,0,18.464,13.741Zm-1.429,3.2a.734.734,0,0,0-.241-1.007C13.715,14.04,9.9,13.6,5.45,14.623a.732.732,0,0,0,.324,1.427c4.065-.934,7.517-.553,10.26,1.132A.725.725,0,0,0,17.035,16.939ZM11.679,0A11.744,11.744,0,1,1,0,11.744,11.711,11.711,0,0,1,11.679,0Z" transform="matrix(1, 0.017, -0.017, 1, 0.41, 0)" fill="#fff" fill-rule="evenodd"/>
</svg>
