<svg id="Spotify" xmlns="http://www.w3.org/2000/svg" width="63.322" height="20.097" viewBox="0 0 63.322 20.097">
  <path id="Combined-Shape" d="M156.536,24.922a.881.881,0,0,0,1.211-.311.891.891,0,0,0-.309-1.218c-3.506-2.093-9.054-2.289-12.391-1.271a.888.888,0,0,0,.513,1.7C148.468,22.936,153.491,23.1,156.536,24.922Zm-.1,2.694a.743.743,0,0,0-.242-1.018,13.716,13.716,0,0,0-10.613-1.262.74.74,0,0,0,.428,1.417,12.34,12.34,0,0,1,9.414,1.107A.735.735,0,0,0,156.437,27.616ZM155.281,30.2a.594.594,0,0,0-.2-.814c-2.49-1.53-5.577-1.886-9.176-1.059a.592.592,0,0,0,.262,1.154c3.289-.755,6.022.736,8.3.916S155.111,30.482,155.281,30.2Zm-4.333-13.7A9.5,9.5,0,1,1,141.5,26,9.474,9.474,0,0,1,150.948,16.5ZM167.2,25.27c1.987.486,2.8,1.24,2.8,2.6,0,1.614-1.226,2.657-3.124,2.657a5.308,5.308,0,0,1-3.6-1.387.107.107,0,0,1-.01-.149l.893-1.069a.106.106,0,0,1,.073-.038.112.112,0,0,1,.078.026,3.736,3.736,0,0,0,2.6,1.079c.857,0,1.39-.373,1.39-.973,0-.542-.263-.844-1.824-1.206-1.834-.446-2.9-1.023-2.9-2.654,0-1.521,1.23-2.584,2.992-2.584a4.8,4.8,0,0,1,3.133,1.091.108.108,0,0,1,.02.146l-.8,1.129a.107.107,0,0,1-.151.024,3.7,3.7,0,0,0-2.23-.852c-.759,0-1.269.367-1.269.912C165.282,24.6,165.573,24.879,167.2,25.27Zm8.47,1.828a1.786,1.786,0,0,0-1.716-1.956,1.821,1.821,0,0,0-1.752,1.956,1.821,1.821,0,0,0,1.752,1.956A1.767,1.767,0,0,0,175.673,27.1ZM174.3,23.652a3.161,3.161,0,0,1,3.076,3.446,3.161,3.161,0,0,1-3.076,3.445,2.617,2.617,0,0,1-2.054-.935v2.635a.107.107,0,0,1-.107.108h-1.461a.107.107,0,0,1-.107-.108v-8.35a.107.107,0,0,1,.107-.108h1.461a.107.107,0,0,1,.107.108v.751A2.554,2.554,0,0,1,174.3,23.652Zm7.042,5.413a1.824,1.824,0,0,0,1.824-1.943,1.869,1.869,0,0,0-1.849-1.968A1.82,1.82,0,0,0,179.5,27.1,1.863,1.863,0,0,0,181.338,29.066Zm0-5.413a3.452,3.452,0,1,1-3.511,3.47A3.435,3.435,0,0,1,181.338,23.652Zm7.7.134a.107.107,0,0,1,.107.108v1.262a.107.107,0,0,1-.107.108h-1.607V28.3c0,.48.209.693.678.693a1.832,1.832,0,0,0,.857-.208.106.106,0,0,1,.1,0,.108.108,0,0,1,.051.092v1.2a.107.107,0,0,1-.054.093,2.653,2.653,0,0,1-1.368.342,1.742,1.742,0,0,1-1.942-1.989V25.264h-.7a.107.107,0,0,1-.106-.108V23.894a.107.107,0,0,1,.106-.108h.7V22.134a.107.107,0,0,1,.107-.108h1.46a.107.107,0,0,1,.107.108v1.652Zm5.6.006h2.5a.106.106,0,0,1,.1.069l1.706,4.477,1.558-4.474a.107.107,0,0,1,.1-.072h1.521a.107.107,0,0,1,.088.047.108.108,0,0,1,.011.1l-2.534,6.584c-.526,1.359-1.122,1.864-2.2,1.864a3.063,3.063,0,0,1-1.56-.4.107.107,0,0,1-.046-.139l.5-1.092a.105.105,0,0,1,.148-.05,1.678,1.678,0,0,0,.805.23c.318,0,.552-.105.789-.634l-2.089-5.037h-1.364V30.3a.107.107,0,0,1-.107.108H193.1a.107.107,0,0,1-.107-.108V25.264h-.7a.108.108,0,0,1-.107-.108V23.888a.108.108,0,0,1,.107-.108h.7V23.47c0-1.444.713-2.208,2.062-2.208a3.992,3.992,0,0,1,1.214.175.107.107,0,0,1,.075.1v1.238a.107.107,0,0,1-.14.1,2.453,2.453,0,0,0-.823-.153c-.511,0-.738.266-.738.863Zm-3.246-.006a.108.108,0,0,1,.107.108V30.3a.107.107,0,0,1-.107.108h-1.461a.107.107,0,0,1-.107-.108V23.894a.107.107,0,0,1,.107-.108Zm-.723-2.918a1.053,1.053,0,1,1-1.048,1.053A1.05,1.05,0,0,1,190.671,20.869Zm12.856,3.555h-.268v.343h.268c.134,0,.213-.066.213-.172S203.66,24.424,203.527,24.424Zm.173.49.291.409h-.245l-.262-.375h-.225v.375h-.205V24.238h.481c.251,0,.415.129.415.346A.323.323,0,0,1,203.7,24.914Zm-.228-1.037a.933.933,0,1,0,.92.93A.922.922,0,0,0,203.472,23.877Zm-.005,1.97a1.036,1.036,0,1,1,1.033-1.04A1.027,1.027,0,0,1,203.467,25.847Z" transform="matrix(1, 0.017, -0.017, 1, -140.859, -18.967)" fill="#111" fill-rule="evenodd"/>
</svg>
