<svg xmlns="http://www.w3.org/2000/svg" width="18.589" height="15.104" viewBox="0 0 18.589 15.104">
  <path id="Shape" d="M18.589,1.743a6.876,6.876,0,0,1-2.207.581A3.285,3.285,0,0,0,18.008.232a7.623,7.623,0,0,1-2.44.929A4.057,4.057,0,0,0,12.78,0,3.846,3.846,0,0,0,9.062,3.834a1.723,1.723,0,0,0,.116.813A10.691,10.691,0,0,1,1.278.7,3.56,3.56,0,0,0,.813,2.672,3.813,3.813,0,0,0,2.556,5.809,4.869,4.869,0,0,1,.813,5.344h0A3.75,3.75,0,0,0,3.834,9.062a3.217,3.217,0,0,1-1.046.116,1.474,1.474,0,0,1-.7-.116,3.764,3.764,0,0,0,3.6,2.672A7.388,7.388,0,0,1,.929,13.361H0A11.336,11.336,0,0,0,5.809,15.1,10.754,10.754,0,0,0,16.614,4.3V3.834A6.754,6.754,0,0,0,18.589,1.743Z" fill="#2c8a82"/>
</svg>
