<svg xmlns="http://www.w3.org/2000/svg" width="15.274" height="12.409" viewBox="0 0 15.274 12.409">
  <path id="Shape" d="M15.274,1.432a5.65,5.65,0,0,1-1.814.477A2.7,2.7,0,0,0,14.8.191a6.264,6.264,0,0,1-2,.764A3.334,3.334,0,0,0,10.5,0,3.16,3.16,0,0,0,7.446,3.15a1.415,1.415,0,0,0,.1.668A8.785,8.785,0,0,1,1.05.573,2.925,2.925,0,0,0,.668,2.2,3.133,3.133,0,0,0,2.1,4.773,4,4,0,0,1,.668,4.391h0A3.081,3.081,0,0,0,3.15,7.446a2.643,2.643,0,0,1-.859.1,1.211,1.211,0,0,1-.573-.1,3.093,3.093,0,0,0,2.959,2.2A6.071,6.071,0,0,1,.764,10.978H0a9.315,9.315,0,0,0,4.773,1.432,8.836,8.836,0,0,0,8.878-8.877V3.15A5.55,5.55,0,0,0,15.274,1.432Z" fill="#edf2f4"/>
</svg>
