<svg width="14" height="17" viewBox="0 0 14 17" fill="none" xmlns="http://www.w3.org/2000/svg">
<path fill-rule="evenodd" clip-rule="evenodd" d="M9.44981 3.45033C9.50852 3.45033 9.56491 3.42865 9.60694 3.38993C9.64794 3.35024 9.67089 3.29698 9.67089 3.24153C9.67089 3.18608 9.64794 3.13283 9.60694 3.09314L7.18894 0.80876L7.15067 0.772635C7.11395 0.738088 7.06576 0.716571 7.01419 0.711719C7.0027 0.711003 6.99116 0.711003 6.97967 0.711719C6.92836 0.716729 6.88044 0.738234 6.84392 0.772635L6.80343 0.810885L4.38692 3.09243C4.36087 3.11061 4.3393 3.13389 4.32366 3.16068C4.30801 3.18747 4.29867 3.21713 4.29628 3.24763C4.29389 3.27814 4.29851 3.30878 4.30981 3.33744C4.32111 3.36611 4.33883 3.39214 4.36177 3.41374C4.3847 3.43535 4.41229 3.45202 4.44267 3.46263C4.47306 3.47323 4.5055 3.47752 4.5378 3.47519C4.57009 3.47286 4.60148 3.46397 4.62981 3.44913C4.65813 3.4343 4.68274 3.41386 4.70193 3.38922L6.77867 1.42713V9.0148C6.78685 9.06496 6.81378 9.11069 6.85456 9.14373C6.89535 9.17677 6.94731 9.19494 7.00105 9.19494C7.05478 9.19494 7.10674 9.17677 7.14753 9.14373C7.18832 9.11069 7.21524 9.06496 7.22343 9.0148V1.43564L9.29268 3.38993C9.33471 3.42865 9.3911 3.45033 9.44981 3.45033ZM2.24419 15.9763H11.7594V15.977C12.1011 15.9648 12.4237 15.8253 12.6568 15.5891C12.8898 15.3528 13.0143 15.0389 13.0029 14.7162V7.16677C13.0049 6.8936 12.916 6.62676 12.7487 6.4039C12.6385 6.25194 12.4909 6.12747 12.3186 6.04112C12.1463 5.95477 11.9545 5.90912 11.7594 5.90807H10.3419C10.2888 5.91579 10.2404 5.94121 10.2054 5.97974C10.1704 6.01826 10.1512 6.06733 10.1512 6.11808C10.1512 6.16883 10.1704 6.21791 10.2054 6.25643C10.2404 6.29495 10.2888 6.32038 10.3419 6.32811H11.7594C11.8896 6.32901 12.0175 6.3597 12.1324 6.41756C12.2472 6.47542 12.3454 6.55872 12.4187 6.66031C12.5302 6.80864 12.5894 6.9863 12.5882 7.16818V14.7162C12.5957 14.9312 12.5127 15.1403 12.3574 15.2978C12.2021 15.4552 11.9871 15.5482 11.7594 15.5563H2.24119C2.01352 15.5482 1.79853 15.4552 1.64322 15.2978C1.48792 15.1403 1.40494 14.9312 1.41244 14.7162V7.16677C1.41119 6.98072 1.47324 6.79921 1.58944 6.64897C1.66308 6.55015 1.76064 6.46936 1.87399 6.4133C1.98735 6.35724 2.11324 6.32755 2.24119 6.32668H3.61819C3.6713 6.31895 3.71972 6.29353 3.7547 6.25501C3.78969 6.21649 3.80892 6.16742 3.80892 6.11667C3.80892 6.06592 3.78969 6.01684 3.7547 5.97832C3.71972 5.9398 3.6713 5.91438 3.61819 5.90665H2.24119C2.0498 5.90822 1.86156 5.95277 1.69203 6.03665C1.52249 6.12053 1.37652 6.24132 1.26619 6.38902C1.0913 6.61503 0.998192 6.88826 1.00069 7.16818V14.7162C0.989542 15.0388 1.11409 15.3525 1.34711 15.5886C1.58013 15.8247 1.90266 15.9641 2.24419 15.9763Z" fill="#2C8A82"/>
<path d="M9.60694 3.38993L9.94585 3.75774L9.9547 3.74918L9.60694 3.38993ZM9.60694 3.09314L9.95473 2.73386L9.9503 2.72968L9.60694 3.09314ZM7.18894 0.80876L7.5323 0.445307L7.53216 0.44517L7.18894 0.80876ZM7.15067 0.772635L7.49389 0.409044L7.49331 0.408499L7.15067 0.772635ZM7.01419 0.711719L7.06103 0.213918L7.05318 0.21318L7.04531 0.212689L7.01419 0.711719ZM6.97967 0.711719L6.94854 0.212689L6.9398 0.213234L6.93107 0.214086L6.97967 0.711719ZM6.84392 0.772635L6.50108 0.40868L6.50056 0.409177L6.84392 0.772635ZM6.80343 0.810885L7.14669 1.17445L7.14679 1.17434L6.80343 0.810885ZM4.38692 3.09243L4.67315 3.50239L4.70337 3.48129L4.73017 3.45599L4.38692 3.09243ZM4.36177 3.41374L4.70464 3.04983L4.70464 3.04983L4.36177 3.41374ZM4.44267 3.46263L4.2779 3.93469L4.2779 3.9347L4.44267 3.46263ZM4.62981 3.44913L4.3978 3.00622L4.3978 3.00622L4.62981 3.44913ZM4.70193 3.38922L4.35855 3.02577L4.33086 3.05193L4.30746 3.08198L4.70193 3.38922ZM6.77867 1.42713H7.27867V0.266874L6.43529 1.06369L6.77867 1.42713ZM6.77867 9.0148H6.27867V9.05533L6.28519 9.09532L6.77867 9.0148ZM7.22343 9.0148L7.7169 9.09533L7.72343 9.05533V9.0148H7.22343ZM7.22343 1.43564L7.56674 1.07213L6.72343 0.275669V1.43564H7.22343ZM9.29268 3.38993L8.94934 3.75346L8.95387 3.75763L9.29268 3.38993ZM11.7594 15.9763H12.2594V15.4763H11.7594V15.9763ZM2.24419 15.9763L2.22636 16.476L2.23527 16.4763H2.24419V15.9763ZM11.7594 15.977H11.2594V16.4952L11.7773 16.4767L11.7594 15.977ZM12.6568 15.5891L13.0128 15.9402L13.0128 15.9402L12.6568 15.5891ZM13.0029 14.7162H12.5029V14.725L12.5032 14.7338L13.0029 14.7162ZM13.0029 7.16677L12.5029 7.16321V7.16677H13.0029ZM12.7487 6.4039L12.3439 6.69753L12.3488 6.70403L12.7487 6.4039ZM12.3186 6.04112L12.5427 5.59412L12.5427 5.59412L12.3186 6.04112ZM11.7594 5.90807L11.7621 5.40807H11.7594V5.90807ZM10.3419 5.90807V5.40807H10.3057L10.2699 5.41328L10.3419 5.90807ZM10.2054 5.97974L10.5756 6.31588L10.5756 6.31588L10.2054 5.97974ZM10.2054 6.25643L10.5756 5.92028L10.5756 5.92028L10.2054 6.25643ZM10.3419 6.32811L10.2699 6.8229L10.3057 6.82811H10.3419V6.32811ZM11.7594 6.32811L11.7629 5.82811H11.7594V6.32811ZM12.1324 6.41756L12.3574 5.97105L12.3574 5.97105L12.1324 6.41756ZM12.4187 6.66031L12.0131 6.95281L12.019 6.96069L12.4187 6.66031ZM12.5882 7.16818L12.0882 7.16473V7.16818H12.5882ZM12.5882 14.7162H12.0882V14.7249L12.0885 14.7336L12.5882 14.7162ZM12.3574 15.2978L12.7134 15.6489L12.7134 15.6489L12.3574 15.2978ZM11.7594 15.5563V16.0563H11.7684L11.7773 16.056L11.7594 15.5563ZM2.24119 15.5563L2.22336 16.056L2.23227 16.0563H2.24119V15.5563ZM1.64322 15.2978L1.28728 15.6489L1.28728 15.6489L1.64322 15.2978ZM1.41244 14.7162L1.91214 14.7336L1.91244 14.7249V14.7162H1.41244ZM1.41244 7.16677H1.91245L1.91243 7.1634L1.41244 7.16677ZM1.58944 6.64897L1.985 6.95494L1.99037 6.94774L1.58944 6.64897ZM1.87399 6.4133L2.09563 6.8615L2.09563 6.86149L1.87399 6.4133ZM2.24119 6.32668V5.82667L2.23782 5.82669L2.24119 6.32668ZM3.61819 6.32668V6.82668H3.65438L3.6902 6.82147L3.61819 6.32668ZM3.7547 5.97832L3.38456 6.31446L3.38456 6.31447L3.7547 5.97832ZM3.61819 5.90665L3.6902 5.41186L3.65438 5.40665H3.61819V5.90665ZM2.24119 5.90665V5.40663L2.23709 5.40667L2.24119 5.90665ZM1.69203 6.03665L1.91375 6.4848L1.91375 6.4848L1.69203 6.03665ZM1.26619 6.38902L1.66168 6.69507L1.66677 6.68824L1.26619 6.38902ZM1.00069 7.16818H1.50071L1.50067 7.16373L1.00069 7.16818ZM1.00069 14.7162L1.50039 14.7335L1.50069 14.7248V14.7162H1.00069ZM1.34711 15.5886L0.991219 15.9398H0.99122L1.34711 15.5886ZM9.26813 3.02222C9.32118 2.97333 9.38678 2.95033 9.44981 2.95033V3.95033C9.63026 3.95033 9.80864 3.88396 9.94575 3.75763L9.26813 3.02222ZM9.17089 3.24153C9.17089 3.1572 9.20605 3.0821 9.25917 3.03068L9.9547 3.74918C10.0898 3.61837 10.1709 3.43677 10.1709 3.24153H9.17089ZM9.25917 3.45239C9.20605 3.40096 9.17089 3.32587 9.17089 3.24153H10.1709C10.1709 3.04629 10.0898 2.86469 9.9547 2.73388L9.25917 3.45239ZM6.84557 1.17221L9.26357 3.45659L9.9503 2.72968L7.5323 0.445307L6.84557 1.17221ZM6.80744 1.13622L6.84571 1.17235L7.53216 0.44517L7.49389 0.409045L6.80744 1.13622ZM6.96735 1.20952C6.91144 1.20426 6.85464 1.18064 6.80802 1.13677L7.49331 0.408499C7.37326 0.295536 7.22007 0.228883 7.06103 0.213918L6.96735 1.20952ZM7.0108 1.21075C7.00155 1.21133 6.9923 1.21133 6.98306 1.21075L7.04531 0.212689C7.01309 0.210679 6.98076 0.210679 6.94854 0.212689L7.0108 1.21075ZM7.18676 1.13659C7.14034 1.18032 7.08386 1.20392 7.02827 1.20935L6.93107 0.214086C6.77287 0.229535 6.62054 0.296151 6.50108 0.40868L7.18676 1.13659ZM7.14679 1.17434L7.18728 1.13609L6.50056 0.409177L6.46007 0.447427L7.14679 1.17434ZM4.73017 3.45599L7.14669 1.17445L6.46018 0.447325L4.04366 2.72887L4.73017 3.45599ZM4.75543 3.41282C4.73369 3.45004 4.70505 3.48012 4.67315 3.50239L4.10069 2.68246C4.0167 2.7411 3.94491 2.81774 3.89188 2.90854L4.75543 3.41282ZM4.79476 3.28666C4.79117 3.33247 4.77721 3.37551 4.75543 3.41282L3.89188 2.90854C3.83882 2.99942 3.80617 3.10179 3.79781 3.20861L4.79476 3.28666ZM4.77497 3.15408C4.79131 3.19553 4.79834 3.24091 4.79476 3.28666L3.79781 3.20861C3.78945 3.31537 3.80571 3.42202 3.84464 3.5208L4.77497 3.15408ZM4.70464 3.04983C4.734 3.07748 4.75866 3.1127 4.77497 3.15408L3.84464 3.5208C3.88356 3.61952 3.94367 3.70679 4.01889 3.77766L4.70464 3.04983ZM4.60745 2.99056C4.64191 3.00259 4.67535 3.02222 4.70464 3.04983L4.01889 3.77766C4.09404 3.84847 4.18267 3.90146 4.2779 3.93469L4.60745 2.99056ZM4.50184 2.97648C4.53715 2.97394 4.57304 2.97855 4.60745 2.99056L4.2779 3.9347C4.37307 3.96791 4.47385 3.9811 4.57375 3.97389L4.50184 2.97648ZM4.3978 3.00622C4.43109 2.98878 4.46655 2.97903 4.50184 2.97648L4.57375 3.97389C4.67364 3.96669 4.77187 3.93916 4.86181 3.89205L4.3978 3.00622ZM4.30746 3.08198C4.3332 3.04894 4.36449 3.02367 4.3978 3.00622L4.86181 3.89205C4.95178 3.84492 5.03228 3.77878 5.0964 3.69645L4.30746 3.08198ZM6.43529 1.06369L4.35855 3.02577L5.04531 3.75266L7.12204 1.79058L6.43529 1.06369ZM7.27867 9.0148V1.42713H6.27867V9.0148H7.27867ZM7.16929 8.75521C7.22039 8.79661 7.25985 8.85898 7.27214 8.93429L6.28519 9.09532C6.31385 9.27094 6.40716 9.42478 6.53984 9.53226L7.16929 8.75521ZM7.00105 8.69494C7.05893 8.69494 7.11876 8.71429 7.16929 8.75521L6.53984 9.53226C6.67194 9.63926 6.83569 9.69494 7.00105 9.69494V8.69494ZM6.83281 8.75521C6.88333 8.71429 6.94316 8.69494 7.00105 8.69494V9.69494C7.1664 9.69494 7.33016 9.63926 7.46226 9.53226L6.83281 8.75521ZM6.72996 8.93428C6.74224 8.85898 6.7817 8.79661 6.83281 8.75521L7.46226 9.53226C7.59494 9.42478 7.68825 9.27094 7.7169 9.09533L6.72996 8.93428ZM6.72343 1.43564V9.0148H7.72343V1.43564H6.72343ZM9.63599 3.02642L7.56674 1.07213L6.88012 1.79914L8.94937 3.75343L9.63599 3.02642ZM9.44981 2.95033C9.51283 2.95033 9.57844 2.97333 9.6315 3.02222L8.95387 3.75763C9.09098 3.88397 9.26936 3.95033 9.44981 3.95033V2.95033ZM11.7594 15.4763H2.24419V16.4763H11.7594V15.4763ZM12.2594 15.977V15.9763H11.2594V15.977H12.2594ZM12.3008 15.238C12.1603 15.3804 11.96 15.4696 11.7416 15.4773L11.7773 16.4767C12.2422 16.4601 12.6872 16.2703 13.0128 15.9402L12.3008 15.238ZM12.5032 14.7338C12.5096 14.9148 12.4403 15.0965 12.3008 15.238L13.0128 15.9402C13.3394 15.609 13.519 15.163 13.5026 14.6986L12.5032 14.7338ZM12.5029 7.16677V14.7162H13.5029V7.16677H12.5029ZM12.3488 6.70403C12.4518 6.84124 12.5041 7.00184 12.5029 7.16321L13.5029 7.17033C13.5057 6.78536 13.3801 6.41228 13.1486 6.10377L12.3488 6.70403ZM12.0946 6.48811C12.1972 6.53954 12.2821 6.61218 12.344 6.6975L13.1534 6.1103C12.9948 5.8917 12.7846 5.71539 12.5427 5.59412L12.0946 6.48811ZM11.7567 6.40806C11.8759 6.4087 11.9919 6.43664 12.0946 6.48811L12.5427 5.59412C12.3008 5.47289 12.0331 5.40953 11.7621 5.40807L11.7567 6.40806ZM10.3419 6.40807H11.7594V5.40807H10.3419V6.40807ZM10.5756 6.31588C10.5299 6.36612 10.4717 6.39445 10.414 6.40285L10.2699 5.41328C10.106 5.43714 9.95087 5.5163 9.83528 5.64359L10.5756 6.31588ZM10.6512 6.11808C10.6512 6.19507 10.6218 6.26497 10.5756 6.31588L9.83528 5.64359C9.71908 5.77154 9.65121 5.9396 9.65121 6.11808H10.6512ZM10.5756 5.92028C10.6218 5.97119 10.6512 6.04109 10.6512 6.11808H9.65121C9.65121 6.29657 9.71908 6.46462 9.83528 6.59257L10.5756 5.92028ZM10.414 5.83332C10.4717 5.84173 10.53 5.87009 10.5756 5.92028L9.83528 6.59257C9.95083 6.71981 10.1059 6.79903 10.2699 6.8229L10.414 5.83332ZM11.7594 5.82811H10.3419V6.82811H11.7594V5.82811ZM12.3574 5.97105C12.1729 5.8781 11.969 5.82955 11.7629 5.82812L11.756 6.8281C11.8101 6.82847 11.8622 6.8413 11.9074 6.86407L12.3574 5.97105ZM12.8242 6.36787C12.7028 6.19942 12.5419 6.06404 12.3574 5.97105L11.9074 6.86407C11.9525 6.8868 11.9881 6.91803 12.0131 6.95275L12.8242 6.36787ZM13.0882 7.17164C13.0902 6.87787 12.9942 6.59392 12.8184 6.35994L12.019 6.96069C12.0661 7.02336 12.0887 7.09473 12.0882 7.16473L13.0882 7.17164ZM13.0882 14.7162V7.16818H12.0882V14.7162H13.0882ZM12.7134 15.6489C12.9622 15.3967 13.1003 15.0555 13.0879 14.6988L12.0885 14.7336C12.0911 14.807 12.0632 14.884 12.0015 14.9466L12.7134 15.6489ZM11.7773 16.056C12.1282 16.0434 12.4655 15.9002 12.7134 15.6489L12.0015 14.9466C11.9387 15.0102 11.846 15.0529 11.7416 15.0566L11.7773 16.056ZM2.24119 16.0563H11.7594V15.0563H2.24119V16.0563ZM1.28728 15.6489C1.53514 15.9002 1.87241 16.0434 2.22336 16.056L2.25902 15.0566C2.15464 15.0529 2.06191 15.0102 1.99917 14.9466L1.28728 15.6489ZM0.912745 14.6988C0.900307 15.0555 1.03844 15.3967 1.28728 15.6489L1.99917 14.9466C1.93739 14.884 1.90958 14.807 1.91214 14.7336L0.912745 14.6988ZM0.912441 7.16677V14.7162H1.91244V7.16677H0.912441ZM1.19395 6.34306C1.01083 6.57979 0.91043 6.86971 0.912453 7.17013L1.91243 7.1634C1.91195 7.09173 1.93564 7.01862 1.98494 6.95489L1.19395 6.34306ZM1.65236 5.9651C1.4702 6.05518 1.31056 6.18644 1.18852 6.35021L1.99037 6.94774C2.01561 6.91386 2.05107 6.88353 2.09563 6.8615L1.65236 5.9651ZM2.23782 5.82669C2.03504 5.82806 1.83442 5.87508 1.65236 5.96511L2.09563 6.86149C2.14028 6.83941 2.19143 6.82703 2.24456 6.82667L2.23782 5.82669ZM3.61819 5.82668H2.24119V6.82668H3.61819V5.82668ZM3.38456 5.91886C3.43019 5.86862 3.48846 5.84029 3.54617 5.8319L3.6902 6.82147C3.85413 6.79761 4.00925 6.71844 4.12485 6.59116L3.38456 5.91886ZM3.30892 6.11667C3.30892 6.03968 3.33833 5.96978 3.38456 5.91886L4.12485 6.59116C4.24105 6.46321 4.30892 6.29515 4.30892 6.11667H3.30892ZM3.38456 6.31447C3.33833 6.26356 3.30892 6.19365 3.30892 6.11667H4.30892C4.30892 5.93818 4.24105 5.77013 4.12485 5.64217L3.38456 6.31447ZM3.54617 6.40144C3.48846 6.39304 3.43019 6.36471 3.38456 6.31446L4.12485 5.64217C4.00925 5.51489 3.85413 5.43572 3.6902 5.41186L3.54617 6.40144ZM2.24119 6.40665H3.61819V5.40665H2.24119V6.40665ZM1.91375 6.4848C2.01475 6.43483 2.12848 6.40759 2.24528 6.40663L2.23709 5.40667C1.97112 5.40884 1.70838 5.47072 1.47031 5.5885L1.91375 6.4848ZM1.66677 6.68824C1.72878 6.60523 1.81282 6.53473 1.91375 6.4848L1.47031 5.5885C1.23215 5.70633 1.02426 5.87741 0.865608 6.0898L1.66677 6.68824ZM1.50067 7.16373C1.4992 6.99861 1.5539 6.83423 1.66162 6.69502L0.87076 6.08303C0.628701 6.39583 0.497188 6.77791 0.500709 7.17264L1.50067 7.16373ZM1.50069 14.7162V7.16818H0.500689V14.7162H1.50069ZM1.70301 15.2374C1.56351 15.096 1.49414 14.9145 1.50039 14.7335L0.500987 14.6989C0.484947 15.1631 0.664681 15.6089 0.991219 15.9398L1.70301 15.2374ZM2.26202 15.4766C2.04373 15.4688 1.84346 15.3797 1.70301 15.2374L0.99122 15.9398C1.31681 16.2697 1.76159 16.4594 2.22636 16.476L2.26202 15.4766Z" fill="#2C8A82"/>
</svg>
