<svg xmlns="http://www.w3.org/2000/svg" width="17.992" height="29.062" viewBox="0 0 17.992 29.062">
  <path id="Path_12531" data-name="Path 12531" d="M279.007,171.644c3.165,0,6.858-3.8,6.858-7.151,2.015-4.1.305-4.223.305-4.223-1.413-2.574-2.025-3.316-6.461-3.091s-4.784-1.038-4.784-1.038c-2.335.907-2.8,4.082-2.8,4.082-1.456.564,0,4.27.376,4.5.291,3.5,3.341,6.92,6.506,6.92Zm-7.968-8.915c-.3-1.331-.2-2.4.549-2.9.028-.127.065-.277.112-.443a7.626,7.626,0,0,1,.653-1.612,4.631,4.631,0,0,1,2.355-2.191.6.6,0,0,1,.8.4c-.013-.047-.022-.064-.015-.055a.966.966,0,0,0,.3.215,8.27,8.27,0,0,0,3.893.438c4.209-.213,5.28.3,6.892,3.175a1.377,1.377,0,0,1,.774.9c.273.843.015,2.122-.881,3.977-.1,3.623-3.985,7.609-7.457,7.609-3.389,0-6.674-3.491-7.087-7.279a6.844,6.844,0,0,1-.881-2.236Zm4.747-6.588a8.27,8.27,0,0,0,3.893.438c4.208-.213,5.28.3,6.892,3.175.125.051,1.249-4.171,0-5.907-1.081-1.5-3.668-3.642-8.289-4-1.663-.13-3.222,1.923-3.392,4s.742,2.214.9,2.294Zm-.863.175a3.007,3.007,0,0,1-.631-2.518c.2-2.453,2.044-4.707,4.037-4.552,4.1.319,7.135,2.032,8.73,4.251a5.926,5.926,0,0,1,.624,4.041,13.367,13.367,0,0,1-.3,1.7c-.054.217-.109.4-.158.544a1.67,1.67,0,0,1-.086.205.72.72,0,0,1-.1.152.566.566,0,0,1-.692.167.6.6,0,0,1-.3-.262c-1.5-2.67-2.363-3.07-6.338-2.869a8.789,8.789,0,0,1-4.2-.505c.529.277-.359-.142-.585-.357Zm-2.57,1.456a4.711,4.711,0,0,1,2.14-2.1,4.074,4.074,0,0,1-.2-1.874,5.746,5.746,0,0,1,.269-1.32c-2.748.017-2.92,1.952-3.139,3.369a3.414,3.414,0,0,0,.567,2.692,7.141,7.141,0,0,1,.364-.766Zm-.861,1.1a4.01,4.01,0,0,1-.664-3.121l.012-.075c.089-.585.1-.653.153-.906a3.23,3.23,0,0,1,3.565-2.9.6.6,0,0,1,.575.788,5.145,5.145,0,0,0-.241,1.182,3.516,3.516,0,0,0,.158,1.6.6.6,0,0,1-.306.776,4.107,4.107,0,0,0-1.863,1.844,6.48,6.48,0,0,0-.333.7.6.6,0,0,1-1.055.111Zm3.655,11.879a13.13,13.13,0,0,1-.425,2.079c.022.032,3.131,3.624,4.273,3.863.928-.239,3.966-3.418,4.1-3.582a8.2,8.2,0,0,1-.591-2.068,6.419,6.419,0,0,1-3.5,1.2,6.257,6.257,0,0,1-3.861-1.489Zm.376-.469a5.654,5.654,0,0,0,3.485,1.356,5.819,5.819,0,0,0,3.162-1.094.6.6,0,0,1,.922.369c-.011-.05.157.767.221,1.031a3.356,3.356,0,0,0,.293.848.6.6,0,0,1-.047.7c-.158.19-1.075,1.125-1.8,1.816a8.3,8.3,0,0,1-2.611,1.965.6.6,0,0,1-.273.006,7.59,7.59,0,0,1-2.86-2.175c-.725-.733-1.682-1.789-1.782-1.933a.6.6,0,0,1-.068-.558,5.8,5.8,0,0,0,.22-.9c.034-.179.065-.369.1-.584.019-.12.07-.461.072-.474a.6.6,0,0,1,.97-.376Z" transform="translate(-270.266 -148.738)" stroke="#000" stroke-width="1"/>
</svg>
