<svg xmlns="http://www.w3.org/2000/svg" width="18.589" height="13.942" viewBox="0 0 18.589 13.942">
  <path id="Combined_Shape" data-name="Combined Shape" d="M9.295,13.942a46.348,46.348,0,0,1-6.506-.464A2.86,2.86,0,0,1,.232,10.689,30.693,30.693,0,0,1,0,6.972,30.716,30.716,0,0,1,.232,3.253,2.777,2.777,0,0,1,2.789.464,45.816,45.816,0,0,1,15.8.464a2.863,2.863,0,0,1,2.557,2.789,30.717,30.717,0,0,1,.232,3.718,30.693,30.693,0,0,1-.232,3.717A2.954,2.954,0,0,1,15.8,13.478,46.348,46.348,0,0,1,9.295,13.942ZM6.971,3.485v6.972L12.78,6.972Z" fill="#2c8a82"/>
</svg>
