<svg id="Component_381_4" data-name="Component 381 – 4" xmlns="http://www.w3.org/2000/svg" width="46" height="46" viewBox="0 0 46 46">
  <circle id="Ellipse_25" data-name="Ellipse 25" cx="23" cy="23" r="23" fill="#2C8A82"/>
  <g id="noun-notification-4253730" transform="translate(-85.652 -4.25)">
    <path id="Path_12832" data-name="Path 12832" d="M154.979,29.066l0-4.681a6.883,6.883,0,0,0-13.767,0l0,4.681L140,31.9a2.015,2.015,0,0,0,1.852,2.81h12.493A2.015,2.015,0,0,0,156.2,31.9Z" transform="translate(-39.633 -0.024)" fill="#fff"/>
    <path id="Path_12833" data-name="Path 12833" d="M108,35.174a.688.688,0,0,0-.964.118A9.539,9.539,0,0,0,105,41.223a.688.688,0,1,0,1.377,0,8.177,8.177,0,0,1,1.748-5.083.688.688,0,0,0-.118-.966Z" transform="translate(-7.168 -16.861)" fill="#fff"/>
    <path id="Path_12837" data-name="Path 12837" d="M108,35.174a.688.688,0,0,0-.964.118A9.539,9.539,0,0,0,105,41.223a.688.688,0,1,0,1.377,0,8.177,8.177,0,0,1,1.748-5.083.688.688,0,0,0-.118-.966Z" transform="translate(-10.346 -17.767)" fill="#fff"/>
    <path id="Path_12834" data-name="Path 12834" d="M512.854,35a.688.688,0,1,0-1.084.848,8.177,8.177,0,0,1,1.748,5.083.688.688,0,1,0,1.377,0A9.54,9.54,0,0,0,512.854,35Z" transform="translate(-395.791 -16.572)" fill="#fff"/>
    <path id="Path_12836" data-name="Path 12836" d="M512.854,35a.688.688,0,1,0-1.084.848,8.177,8.177,0,0,1,1.748,5.083.688.688,0,1,0,1.377,0A9.54,9.54,0,0,0,512.854,35Z" transform="translate(-392.605 -17.478)" fill="#fff"/>
    <path id="Path_12835" data-name="Path 12835" d="M273.068,492.065a3.441,3.441,0,0,0,3.15-2.065h-6.3a3.441,3.441,0,0,0,3.15,2.065Z" transform="translate(-164.601 -453.936)" fill="#fff"/>
  </g>
</svg>
