<svg xmlns="http://www.w3.org/2000/svg" width="19" height="19.386" viewBox="0 0 19 19.386">
  <g id="Group_3943" data-name="Group 3943" transform="translate(-59 -367)">
    <path id="Path_12482" data-name="Path 12482" d="M85.213,68.764a12.122,12.122,0,0,0-.169-1.964H75.9v3.738h5.237a4.406,4.406,0,0,1-1.943,2.935L82.32,75.9a9.532,9.532,0,0,0,2.893-7.138Z" transform="translate(-7.212 308.162)" fill="#4280ef"/>
    <path id="Path_12483" data-name="Path 12483" d="M43.558,91.713a9.273,9.273,0,0,0,6.42-2.344l-3.125-2.407A5.879,5.879,0,0,1,38.11,83.9L34.9,86.371A9.683,9.683,0,0,0,43.558,91.713Z" transform="translate(25.13 294.673)" fill="#34a353"/>
    <path id="Path_12484" data-name="Path 12484" d="M34.264,60.608a5.888,5.888,0,0,1,0-3.717L31.054,54.4a9.706,9.706,0,0,0,0,8.7Z" transform="translate(28.975 317.943)" fill="#f6b704"/>
    <path id="Path_12485" data-name="Path 12485" d="M43.558,32.942A5.288,5.288,0,0,1,47.275,34.4l2.766-2.787A9.328,9.328,0,0,0,43.558,29.1,9.683,9.683,0,0,0,34.9,34.441l3.21,2.492A5.8,5.8,0,0,1,43.558,32.942Z" transform="translate(25.13 337.902)" fill="#e54335"/>
  </g>
</svg>
