<svg xmlns="http://www.w3.org/2000/svg" xmlns:xlink="http://www.w3.org/1999/xlink" width="140" height="30" viewBox="0 0 140 30">
  <defs>
    <clipPath id="clip-path">
      <rect id="Rectangle_664" data-name="Rectangle 664" width="140" height="24.513" fill="#253c3a"/>
    </clipPath>
    <clipPath id="clip-logo">
      <rect width="140" height="30"/>
    </clipPath>
  </defs>
  <g id="logo" clip-path="url(#clip-logo)">
    <rect width="140" height="30" fill="none"/>
    <g id="Group_4909" data-name="Group 4909" transform="translate(0 3)">
      <g id="Group_4873" data-name="Group 4873" clip-path="url(#clip-path)">
        <path id="Path_13223" data-name="Path 13223" d="M557.33,20.481c0,.413.008.686,0,.959a.806.806,0,0,1-.9.9q-2.292.016-4.583-.006a.735.735,0,0,1-.466-.226c-.362-.382-.693-.793-1.136-1.31,0,.292,0,.451,0,.61a.83.83,0,0,1-.846.919c-1.605.026-3.211.02-4.817,0a.664.664,0,0,1-.4-.256c-.311-.363-.6-.747-.918-1.153-.039.08-.069.115-.072.151-.068,1.087-.264,1.27-1.375,1.27H535.24a4.29,4.29,0,0,1-1.746,3.4,4,4,0,0,1-2.432.8V8.571H535.2v6.438h3.774V8.566h4.194v6.446h2.866V8.579h4.194v6.437h2.892V8.564h4.2v6.46h3.736V2.49h4.226v.523q0,9.067,0,18.134c0,.982-.216,1.194-1.215,1.194-1.528,0-3.056-.016-4.583.01a1.073,1.073,0,0,1-1.02-.475c-.316-.452-.7-.859-1.139-1.4" transform="translate(-431.664 -2.024)" fill="#253c3a"/>
        <path id="Path_13224" data-name="Path 13224" d="M423.378,34.936h4.145v6.447h4.421c-.32-.16-.579-.279-.829-.416a2.415,2.415,0,0,1-1.35-2.146c-.032-1.23-.009-2.461-.007-3.692a1.083,1.083,0,0,1,.04-.2h11.457v.518q0,6.052,0,12.1c0,.872-.277,1.156-1.136,1.156q-7.81,0-15.62,0c-.874,0-1.147-.271-1.147-1.142q0-6.076,0-12.151c0-.152.016-.3.026-.482m10.583,3.754c0,.663-.013,1.282,0,1.9a.741.741,0,0,0,.662.786c.8.056,1.6.017,2.393.017v-2.7Z" transform="translate(-344.112 -28.393)" fill="#253c3a"/>
        <rect id="Rectangle_662" data-name="Rectangle 662" width="4.13" height="19.831" transform="translate(135.87 0.456)" fill="#253c3a"/>
        <path id="Path_13225" data-name="Path 13225" d="M459.761,0a2.1,2.1,0,0,1,2.22,2.086A2.214,2.214,0,0,1,459.8,4.3a2.246,2.246,0,0,1-2.231-2.181A2.125,2.125,0,0,1,459.761,0" transform="translate(-371.925 0)" fill="#253c3a"/>
        <path id="Path_13226" data-name="Path 13226" d="M574.979,0A2.132,2.132,0,0,1,577.206,2.1,2.251,2.251,0,0,1,575,4.306a2.224,2.224,0,0,1-2.217-2.188A2.1,2.1,0,0,1,574.979,0" transform="translate(-465.578 -0.002)" fill="#253c3a"/>
        <path id="Path_13227" data-name="Path 13227" d="M614.94,2.113A2.219,2.219,0,0,1,612.729,4.3a2.25,2.25,0,0,1-2.206-2.254A2.138,2.138,0,0,1,612.792,0a2.1,2.1,0,0,1,2.149,2.113" transform="translate(-496.251 0.001)" fill="#253c3a"/>
        <path id="Path_13228" data-name="Path 13228" d="M497.615,0a2.123,2.123,0,0,1,2.232,2.082,2.241,2.241,0,0,1-2.187,2.222,2.218,2.218,0,0,1-2.224-2.177A2.1,2.1,0,0,1,497.615,0" transform="translate(-402.706 -0.001)" fill="#253c3a"/>
        <path id="Path_13229" data-name="Path 13229" d="M650.59,0A2.114,2.114,0,0,1,652.8,2.1a2.2,2.2,0,0,1-4.409.015A2.1,2.1,0,0,1,650.59,0" transform="translate(-527.035 0)" fill="#253c3a"/>
        <path id="Path_13230" data-name="Path 13230" d="M6.4,2.6v9.431c.528-.667,1-1.2,1.4-1.778A3.564,3.564,0,0,1,10.86,8.667c2.385-.033,4.77-.034,7.155-.034.67,0,.97.335.974,1.04.007,1.62,0,3.241,0,4.861v.576h2.852V8.662h4.208v6.45H28.93V8.669h4.2V15.1H36V8.67h4.183c.007.158.022.322.022.487q0,6.076,0,12.152c0,.9-.225,1.122-1.14,1.123-1.4,0-2.806-.008-4.209.007a.749.749,0,0,1-.672-.315c-.294-.38-.624-.732-1.041-1.215,0,.3.009.476,0,.648a.8.8,0,0,1-.881.87c-1.543.011-3.087.012-4.63-.006a.742.742,0,0,1-.457-.246c-.358-.379-.688-.785-1.117-1.283,0,.27,0,.4,0,.536-.011.745-.265,1-1.023,1-1.45,0-2.9.013-4.349-.012a.972.972,0,0,1-.609-.3c-.35-.369-.649-.786-1.034-1.264-.023.219-.045.346-.048.472-.022.835-.3,1.1-1.145,1.1-.935,0-1.871,0-2.806,0H0V15.166H2.163V2.6Zm8.367,9.809c-1.446,0-2.846-.015-4.244.015a1.071,1.071,0,0,0-.7.319c-.669.745-1.295,1.527-2,2.369h6.939Z" transform="translate(0 -2.115)" fill="#253c3a"/>
        <path id="Path_13231" data-name="Path 13231" d="M300.071,8.555h4.147v6.463h3.414V2.483h4.222v.528q0,9.063,0,18.126c0,.935-.259,1.2-1.184,1.2h-10.6V15.044h2.094c-.418-.274-.785-.474-1.1-.732a2.4,2.4,0,0,1-.975-1.749c-.055-1.317-.016-2.639-.016-4.008" transform="translate(-243.896 -2.018)" fill="#253c3a"/>
        <path id="Path_13232" data-name="Path 13232" d="M226.645,34.93h11.5v.478q0,6.632,0,13.264a4.19,4.19,0,0,1-3.953,4.231c-.062,0-.124-.007-.25-.014V48.71h-.549q-2.827,0-5.655,0c-.838,0-1.091-.253-1.091-1.081q0-6.118,0-12.236Zm4.208,3.764c0,.778-.022,1.524.018,2.266a.593.593,0,0,0,.384.427c.881.039,1.764.02,2.662.02V38.694Z" transform="translate(-184.224 -28.392)" fill="#253c3a"/>
        <rect id="Rectangle_663" data-name="Rectangle 663" width="4.119" height="19.825" transform="translate(70.215 0.473)" fill="#253c3a"/>
        <path id="Path_13233" data-name="Path 13233" d="M301.607,4.416h2.339V5.7H299.86c-.2-.855-.109-1.233.36-1.353,0-.3-.006-.6,0-.912a1.007,1.007,0,0,1,1.123-1.124c.573,0,1.146,0,1.737,0V3.643h-.912c-.638,0-.667.038-.561.773" transform="translate(-243.654 -1.876)" fill="#253c3a"/>
      </g>
    </g>
  </g>
</svg>
