<svg id="AAAFinalLogo" xmlns="http://www.w3.org/2000/svg" xmlns:xlink="http://www.w3.org/1999/xlink" width="130" height="32.251" viewBox="0 0 130 32.251">
  <defs>
    <clipPath id="clip-path">
      <rect id="Rectangle_704" data-name="Rectangle 704" width="84.32" height="8.872" fill="#042b27"/>
    </clipPath>
  </defs>
  <path id="Path_13245" data-name="Path 13245" d="M823.316,5.827h-10.67V9.179c0,1.387.921,2.071,2.262,2.466h-4.3V5.827h-3.9V17.376a.8.8,0,0,0,.821.79H822.5a.8.8,0,0,0,.821-.79l-.009-11.549Zm-10.67-3.949a2.06,2.06,0,0,1,4.1,0,2.053,2.053,0,0,1-4.1,0m3.9,8.986V9.188h2.873v2.466H817.37a.8.8,0,0,1-.821-.79m2.663-8.986a2.06,2.06,0,0,1,4.1,0,2.053,2.053,0,0,1-4.1,0m13.442,0a2.06,2.06,0,0,1,4.1,0,2.053,2.053,0,0,1-4.1,0m6.566,0a2.06,2.06,0,0,1,4.1,0,2.053,2.053,0,0,1-4.1,0m6.566,0a2.06,2.06,0,0,1,4.1,0,2.053,2.053,0,0,1-4.1,0m13.442,16.288h3.9V.395h-3.9V18.166Zm-29.958,0a3.83,3.83,0,0,1-3.9,3.756V5.827h3.9v5.827h3.484V5.827h3.9v5.827h2.663V5.827h3.9v5.827h2.663V5.827h3.9v5.827h3.484V.395h3.9V17.376a.743.743,0,0,1-.821.79h-5.125L849.79,16.49v.886a.743.743,0,0,1-.821.79h-4.514l-1.231-1.387v.6a.827.827,0,0,1-.921.79h-4.514l-1.131-1.387v.6a.827.827,0,0,1-.921.79Z" transform="translate(-733.133)" fill="#FFFFFF"/>
  <path id="Path_13246" data-name="Path 13246" d="M0,22.271V15.759H2.052V4.5h3.9v8.495L7.5,11.117c.62-.79,1.541-1.185,3.283-1.185h6.055a.8.8,0,0,1,.821.79v5.037h2.663V9.932h3.9v5.827h2.663V9.932h3.9v5.827h2.663V9.932h3.9V21.481a.743.743,0,0,1-.821.79H32.01l-1.231-1.387v.6a.743.743,0,0,1-.821.79H25.444l-1.231-1.387v.6a.743.743,0,0,1-.821.79H18.878l-1.231-1.483v.693a.8.8,0,0,1-.821.79Zm7.287-6.512h6.466V13.293H10.159a1.4,1.4,0,0,0-1.231.491L7.287,15.759Zm36.013-.4a.433.433,0,0,0,.41.395h2.462V13.285H43.3v2.071Zm8.819,6.915V15.759H54.38a2.79,2.79,0,0,1-2.262-2.668V9.932h3.9v5.827H59.2V4.5h3.9V21.481a.8.8,0,0,1-.821.79Zm13.032,0h3.9V4.5h-3.9Zm-15.084,0a3.83,3.83,0,0,1-3.9,3.756V22.271H40.218a.743.743,0,0,1-.821-.79V9.932h10.67Z" transform="translate(0 -4.105)" fill="#FFFFFF"/>
  <path id="Path_13247" data-name="Path 13247" d="M575.758,6.766H574.07a.212.212,0,0,0-.2.193V8.617H571.9V5.686a.884.884,0,0,1,.821-.886h3.037V6.766Z" transform="translate(-519.744 -4.379)" fill="#FFFFFF"/>
  <g id="Group_4942" data-name="Group 4942" transform="translate(22.836 23.379)">
    <g id="Group_4932" clip-path="url(#clip-path)">
      <path id="Path_13391" d="M256.921,326.634a.3.3,0,0,1,.018.088.345.345,0,0,1,.009.1,1.114,1.114,0,0,1-.173.605,1.524,1.524,0,0,1-.556.509,3.507,3.507,0,0,1-1.021.351,7.828,7.828,0,0,1-1.569.132,6.412,6.412,0,0,1-1.587-.167,2.774,2.774,0,0,1-1.031-.456,1.676,1.676,0,0,1-.556-.693,2.3,2.3,0,0,1-.164-.9v-1.237h1.249v1.2a1.111,1.111,0,0,0,.119.518.972.972,0,0,0,.383.377,2.153,2.153,0,0,0,.657.228,5.875,5.875,0,0,0,.958.079,5.308,5.308,0,0,0,1.058-.079,2.292,2.292,0,0,0,.647-.193.866.866,0,0,0,.328-.237.368.368,0,0,0,.091-.211c0-.044-.036-.1-.119-.149a1.66,1.66,0,0,0-.356-.176c-.155-.061-.347-.132-.565-.2s-.474-.149-.757-.237V324.8c.137.044.292.088.456.149s.347.114.52.167.356.114.538.167.347.105.511.149.3.079.438.105a1.247,1.247,0,0,0,.31.035h.265a.368.368,0,0,1,.137.018.305.305,0,0,1,.119.061.481.481,0,0,1,.082.149,1.372,1.372,0,0,1,.027.272.711.711,0,0,1-.091.43.361.361,0,0,1-.274.123Z" transform="translate(-250.301 -319.675)" fill="#FFFFFF"/>
      <path id="Path_13392" d="M320.528,334.742a.418.418,0,0,1-.146-.017.306.306,0,0,1-.118-.061.481.481,0,0,1-.082-.149,1.394,1.394,0,0,1-.027-.281.711.711,0,0,1,.091-.43.344.344,0,0,1,.283-.114h1.4a.726.726,0,0,1,.137.018.193.193,0,0,1,.119.061.347.347,0,0,1,.082.149.694.694,0,0,1,.027.272.711.711,0,0,1-.091.43.344.344,0,0,1-.292.123Z" transform="translate(-313.788 -327.782)" fill="#FFFFFF"/>
      <path id="Path_13393" d="M335.828,334.742a.418.418,0,0,1-.146-.017.306.306,0,0,1-.119-.061.483.483,0,0,1-.082-.149,1.4,1.4,0,0,1-.027-.281.712.712,0,0,1,.091-.43.344.344,0,0,1,.283-.114h1.4a.726.726,0,0,1,.137.018.193.193,0,0,1,.119.061.347.347,0,0,1,.082.149.693.693,0,0,1,.027.272.711.711,0,0,1-.091.43.343.343,0,0,1-.292.123Z" transform="translate(-327.693 -327.782)" fill="#FFFFFF"/>
      <path id="Path_13394" d="M351.128,334.742a.417.417,0,0,1-.146-.017.305.305,0,0,1-.119-.061.481.481,0,0,1-.082-.149,1.4,1.4,0,0,1-.027-.281.711.711,0,0,1,.091-.43.344.344,0,0,1,.283-.114h1.4a.726.726,0,0,1,.137.018.193.193,0,0,1,.119.061.347.347,0,0,1,.082.149.693.693,0,0,1,.027.272.712.712,0,0,1-.091.43.343.343,0,0,1-.292.123Z" transform="translate(-341.598 -327.782)" fill="#FFFFFF"/>
      <path id="Path_13395" d="M366.428,334.742a.418.418,0,0,1-.146-.017.306.306,0,0,1-.118-.061.485.485,0,0,1-.082-.149,1.4,1.4,0,0,1-.027-.281.711.711,0,0,1,.091-.43.344.344,0,0,1,.283-.114h1.4a.727.727,0,0,1,.137.018.193.193,0,0,1,.119.061.346.346,0,0,1,.082.149.694.694,0,0,1,.027.272.71.71,0,0,1-.091.43.343.343,0,0,1-.292.123Z" transform="translate(-355.502 -327.782)" fill="#FFFFFF"/>
      <path id="Path_13396" d="M381.728,334.742a.417.417,0,0,1-.146-.017.306.306,0,0,1-.119-.061.482.482,0,0,1-.082-.149,1.406,1.406,0,0,1-.027-.281.711.711,0,0,1,.091-.43.344.344,0,0,1,.283-.114h1.4a.94.94,0,0,1,.146.018.193.193,0,0,1,.119.061.35.35,0,0,1,.082.149.7.7,0,0,1,.027.272.711.711,0,0,1-.091.43.343.343,0,0,1-.292.123Z" transform="translate(-369.407 -327.782)" fill="#FFFFFF"/>
      <path id="Path_13397" d="M398.185,280.434V275.3h1.24v6.178h-2.3a.417.417,0,0,1-.146-.018.3.3,0,0,1-.119-.061.483.483,0,0,1-.082-.149,1.4,1.4,0,0,1-.027-.281.711.711,0,0,1,.091-.43.344.344,0,0,1,.283-.114h1.058Z" transform="translate(-383.403 -274.519)" fill="#FFFFFF"/>
      <path id="Path_13398" d="M441.291,305.365a3.451,3.451,0,0,1-.137,1.053,1.78,1.78,0,0,1-1.231,1.246,3.872,3.872,0,0,1-1.186.167h-.784v-1.106h.7a2.015,2.015,0,0,0,.648-.079,1.1,1.1,0,0,0,.392-.2.674.674,0,0,0,.2-.281,1.328,1.328,0,0,0,.091-.325,3.109,3.109,0,0,1-.693.079,2.4,2.4,0,0,1-.711-.105,1.63,1.63,0,0,1-.574-.333,1.6,1.6,0,0,1-.383-.562,1.994,1.994,0,0,1-.137-.8,2.4,2.4,0,0,1,.128-.763,2.005,2.005,0,0,1,.365-.649,1.746,1.746,0,0,1,.6-.447,1.948,1.948,0,0,1,.83-.167,2.127,2.127,0,0,1,.875.167,1.46,1.46,0,0,1,.575.465,1.878,1.878,0,0,1,.31.684,3.2,3.2,0,0,1,.091.834v1.123Zm-2.572-1.29a.938.938,0,0,0,.173.6.624.624,0,0,0,.529.219,1.287,1.287,0,0,0,.629-.132v-.6a2.19,2.19,0,0,0-.036-.421.934.934,0,0,0-.109-.316.486.486,0,0,0-.2-.2.539.539,0,0,0-.31-.07.585.585,0,0,0-.52.263.887.887,0,0,0-.119.29,1.631,1.631,0,0,0-.037.369" transform="translate(-420.426 -298.958)" fill="#FFFFFF"/>
      <path id="Path_13399" d="M492.988,267.263v6.178H488.1V272.4h1.541L489,268.624h1.24l.675,3.774h.848v-5.134Zm-2.572.9h-1.678V267.6h.346a.529.529,0,0,1-.064-.167,1.143,1.143,0,0,1-.018-.175.768.768,0,0,1,.064-.325.893.893,0,0,1,.173-.237.686.686,0,0,1,.246-.14.816.816,0,0,1,.292-.053,1.268,1.268,0,0,1,.255.026l.2.053v.544c-.073-.018-.137-.026-.191-.035a.544.544,0,0,0-.119-.009.318.318,0,0,0-.237.07.292.292,0,0,0,0,.386.41.41,0,0,0,.283.079h.456Z" transform="translate(-466.423 -266.491)" fill="#FFFFFF"/>
      <rect id="Rectangle_706" width="1.24" height="6.178" transform="translate(27.696 0.772)" fill="#FFFFFF"/>
      <path id="Path_13400" d="M611.251,307.933h-5.672a4.2,4.2,0,0,1-.939-.079,1.435,1.435,0,0,1-.611-.254.953.953,0,0,1-.328-.448,2.079,2.079,0,0,1-.1-.667v-1.5h1.24v1.334a.731.731,0,0,0,.046.281.333.333,0,0,0,.173.175.825.825,0,0,0,.328.088,5.178,5.178,0,0,0,.529.026h4.077V304.3h1.24Zm-4.3,1.308a.639.639,0,0,1,.046-.228.651.651,0,0,1,.128-.193.545.545,0,0,1,.191-.123.633.633,0,0,1,.474,0,.683.683,0,0,1,.2.123.556.556,0,0,1,.128.193.568.568,0,0,1,0,.456.622.622,0,0,1-.8.316.545.545,0,0,1-.191-.123.608.608,0,0,1-.173-.421" transform="translate(-571.389 -300.974)" fill="#FFFFFF"/>
      <path id="Path_13401" d="M696.322,304.3h1.24v1.948a.676.676,0,0,0,.064.3.546.546,0,0,0,.155.193.557.557,0,0,0,.219.105,1.192,1.192,0,0,0,.255.035h.082a.637.637,0,0,1,.128.018.221.221,0,0,1,.1.079.463.463,0,0,1,.073.149,1.152,1.152,0,0,1,.027.255.852.852,0,0,1-.082.421.271.271,0,0,1-.246.132h-.082a.812.812,0,0,1-.146-.009,1.335,1.335,0,0,1-.182-.035.753.753,0,0,1-.191-.088.7.7,0,0,1-.173-.149,3.908,3.908,0,0,1-.119,1.027,1.515,1.515,0,0,1-.374.676,1.489,1.489,0,0,1-.648.377,3.332,3.332,0,0,1-.93.114H695.2V308.74h.265a1.514,1.514,0,0,0,.4-.044.546.546,0,0,0,.274-.167.71.71,0,0,0,.146-.351,2.522,2.522,0,0,0,.046-.588Z" transform="translate(-654.636 -300.974)" fill="#FFFFFF"/>
      <path id="Path_13402" d="M726.93,304.779c.137,0,.274-.009.42-.018s.283-.026.419-.044l-.948-1.176a2.6,2.6,0,0,1,.073-.255,1.268,1.268,0,0,1,.109-.254,1.44,1.44,0,0,1,.128-.228,1.179,1.179,0,0,1,.128-.167,2.017,2.017,0,0,1,.729-.483,2.436,2.436,0,0,1,.939-.167,2.519,2.519,0,0,1,.766.105,1.734,1.734,0,0,1,.538.281,1.158,1.158,0,0,1,.319.4,1.057,1.057,0,0,1,.109.465,1.134,1.134,0,0,1-.055.351,2.273,2.273,0,0,1-.173.4,2.449,2.449,0,0,1-.274.4,2.38,2.38,0,0,1-.374.36h1.359a.417.417,0,0,1,.146.018.3.3,0,0,1,.119.061.486.486,0,0,1,.082.149,1.381,1.381,0,0,1,.027.272.711.711,0,0,1-.091.43.366.366,0,0,1-.283.123h-1.359a2.642,2.642,0,0,1-.264-.018,2.81,2.81,0,0,1-.292-.061,1.636,1.636,0,0,1-.292-.105,1.378,1.378,0,0,1-.274-.158c-.274.1-.547.175-.83.246a3.838,3.838,0,0,1-.839.1h-.866a.415.415,0,0,1-.146-.018.306.306,0,0,1-.119-.061.482.482,0,0,1-.082-.149,1.4,1.4,0,0,1-.027-.281.711.711,0,0,1,.091-.43.344.344,0,0,1,.283-.114Zm1.952-1.764a1.669,1.669,0,0,0-.556.079,1.939,1.939,0,0,0-.365.167c.064.079.128.167.2.263s.155.2.237.307.164.2.237.3a2.639,2.639,0,0,0,.219.228,1.184,1.184,0,0,0,.228-.193,1.579,1.579,0,0,0,.173-.254,1.8,1.8,0,0,0,.119-.263.619.619,0,0,0,.037-.219.763.763,0,0,0-.018-.14.24.24,0,0,0-.073-.132.518.518,0,0,0-.164-.105.688.688,0,0,0-.274-.035" transform="translate(-682.399 -298.864)" fill="#FFFFFF"/>
      <path id="Path_13403" d="M781.995,280.434V275.3h1.24v6.178h-2.307a.416.416,0,0,1-.146-.018.3.3,0,0,1-.119-.061.477.477,0,0,1-.082-.149,1.4,1.4,0,0,1-.027-.281.71.71,0,0,1,.091-.43.344.344,0,0,1,.283-.114h1.067Z" transform="translate(-732.201 -274.519)" fill="#FFFFFF"/>
      <rect id="Rectangle_707" width="1.24" height="6.178" transform="translate(52.155 0.772)" fill="#FFFFFF"/>
      <path id="Path_13404" d="M874.749,281.09a2.619,2.619,0,0,1-.447-.035,1.44,1.44,0,0,1-.392-.114,1,1,0,0,1-.319-.228.969.969,0,0,1-.21-.36,2.071,2.071,0,0,1-.337.053,2.172,2.172,0,0,1-.337.018,2.427,2.427,0,0,1-.356-.026,2.221,2.221,0,0,1-.4-.1,2.013,2.013,0,0,1-.392-.193,1.23,1.23,0,0,1-.337-.307,1.585,1.585,0,0,1-.237-.439,1.9,1.9,0,0,1-.091-.6,1.8,1.8,0,0,1,.182-.843,1.592,1.592,0,0,1,.474-.562,1.964,1.964,0,0,1,.638-.316,2.639,2.639,0,0,1,.693-.1H874.5v2.72a.456.456,0,0,0,.064.29.343.343,0,0,0,.255.079h.456a.416.416,0,0,1,.146.018.305.305,0,0,1,.119.061.487.487,0,0,1,.082.149,1.379,1.379,0,0,1,.027.272.71.71,0,0,1-.091.43.339.339,0,0,1-.283.123Zm-3.155-5.625a.579.579,0,0,1,.383-.544.542.542,0,0,1,.237-.044.59.59,0,0,1,.429.176.555.555,0,0,1,.128.193.569.569,0,0,1,0,.456.649.649,0,0,1-.128.193.608.608,0,0,1-.429.167.71.71,0,0,1-.237-.044.679.679,0,0,1-.2-.123.482.482,0,0,1-.128-.193.559.559,0,0,1-.055-.237m.52,3.247a1.039,1.039,0,0,0,.027.237.682.682,0,0,0,.1.219.565.565,0,0,0,.2.158.7.7,0,0,0,.328.061,2.413,2.413,0,0,0,.246-.009,1.278,1.278,0,0,0,.264-.053v-1.334h-.474a.753.753,0,0,0-.31.061.553.553,0,0,0-.219.158.639.639,0,0,0-.128.228.7.7,0,0,0-.036.272m1.012-3.247a.639.639,0,0,1,.046-.228.652.652,0,0,1,.128-.193.545.545,0,0,1,.191-.123.633.633,0,0,1,.474,0,.679.679,0,0,1,.2.123.556.556,0,0,1,.128.193.567.567,0,0,1,0,.456.622.622,0,0,1-.8.316.543.543,0,0,1-.191-.123.593.593,0,0,1-.173-.421" transform="translate(-814.304 -274.131)" fill="#FFFFFF"/>
      <path id="Path_13405" d="M916.367,284.813a.684.684,0,0,1-.064-.193,1.717,1.717,0,0,1-.046-.228c-.009-.079-.018-.158-.027-.246s-.009-.149-.009-.219a2.08,2.08,0,0,1,.128-.7,1.846,1.846,0,0,1,1.787-1.211,2.24,2.24,0,0,1,.638.088,1.675,1.675,0,0,1,.474.228,1.525,1.525,0,0,1,.337.342,1.993,1.993,0,0,1,.219.412,2.691,2.691,0,0,1,.119.447,2.478,2.478,0,0,1,.036.448v.816h.611a.419.419,0,0,1,.146.017.3.3,0,0,1,.119.061.481.481,0,0,1,.082.149,1.381,1.381,0,0,1,.027.272.71.71,0,0,1-.091.43.339.339,0,0,1-.283.123h-5.043a.413.413,0,0,1-.146-.018.3.3,0,0,1-.119-.061.479.479,0,0,1-.082-.149,1.4,1.4,0,0,1-.028-.281.709.709,0,0,1,.091-.43.343.343,0,0,1,.283-.114Zm1.04-.93a1.3,1.3,0,0,0,.064.412.925.925,0,0,0,.164.29.624.624,0,0,0,.246.176.908.908,0,0,0,.3.053h.547v-.79c0-.114-.009-.228-.018-.342a.873.873,0,0,0-.091-.3.5.5,0,0,0-.2-.211.538.538,0,0,0-.328-.079.677.677,0,0,0-.319.07.667.667,0,0,0-.21.176,1.275,1.275,0,0,0-.11.254,1.6,1.6,0,0,0-.045.29m.091-3.194a.579.579,0,0,1,.383-.544.545.545,0,0,1,.237-.044.59.59,0,0,1,.429.175.554.554,0,0,1,.127.193.567.567,0,0,1,0,.456.628.628,0,0,1-.328.316.543.543,0,0,1-.237.044.708.708,0,0,1-.237-.044.684.684,0,0,1-.2-.123.486.486,0,0,1-.128-.193.55.55,0,0,1-.046-.237" transform="translate(-854.526 -278.898)" fill="#FFFFFF"/>
      <path id="Path_13406" d="M970.828,334.742a.417.417,0,0,1-.146-.017.3.3,0,0,1-.119-.061.484.484,0,0,1-.082-.149,1.408,1.408,0,0,1-.027-.281.709.709,0,0,1,.091-.43.333.333,0,0,1,.283-.114h1.4a.726.726,0,0,1,.137.018.193.193,0,0,1,.119.061.349.349,0,0,1,.082.149.7.7,0,0,1,.027.272.712.712,0,0,1-.091.43.344.344,0,0,1-.292.123Z" transform="translate(-904.783 -327.782)" fill="#FFFFFF"/>
      <path id="Path_13407" d="M989.52,307.842c-.1,0-.192-.009-.292-.018a1.187,1.187,0,0,1-.292-.07.945.945,0,0,1-.264-.14.815.815,0,0,1-.219-.246.827.827,0,0,1-.273.255,1.617,1.617,0,0,1-.337.14,1.849,1.849,0,0,1-.374.061c-.128.009-.255.018-.383.018h-.957a.415.415,0,0,1-.146-.018.3.3,0,0,1-.119-.061.478.478,0,0,1-.082-.149,1.394,1.394,0,0,1-.027-.281.711.711,0,0,1,.091-.43.344.344,0,0,1,.283-.114h.757c.091,0,.182-.009.273-.017a.374.374,0,0,0,.182-.079.347.347,0,0,0,.1-.167,1.362,1.362,0,0,0,.027-.272V304.2H988.7v1.948a.77.77,0,0,0,.046.29.381.381,0,0,0,.137.193.666.666,0,0,0,.255.114c.128.018.265.026.392.035a.721.721,0,0,1,.137.018.3.3,0,0,1,.118.061.479.479,0,0,1,.082.149.693.693,0,0,1,.027.272.711.711,0,0,1-.091.43.313.313,0,0,1-.283.132m-2.882,1.308a.578.578,0,0,1,.383-.544.543.543,0,0,1,.237-.044.589.589,0,0,1,.429.175.554.554,0,0,1,.128.193.566.566,0,0,1,0,.456.647.647,0,0,1-.128.193.607.607,0,0,1-.429.167.709.709,0,0,1-.237-.044.685.685,0,0,1-.2-.123.554.554,0,0,1-.128-.193.561.561,0,0,1-.055-.237m1.532,0a.64.64,0,0,1,.046-.228.661.661,0,0,1,.128-.193.546.546,0,0,1,.192-.123.632.632,0,0,1,.474,0,.683.683,0,0,1,.2.123.556.556,0,0,1,.128.193.567.567,0,0,1,0,.456.622.622,0,0,1-.8.316.547.547,0,0,1-.192-.123.609.609,0,0,1-.173-.421" transform="translate(-918.688 -300.883)" fill="#FFFFFF"/>
      <path id="Path_13408" d="M1026.611,304.692a3.384,3.384,0,0,0-.118-.676,1.493,1.493,0,0,0-.283-.527,1.265,1.265,0,0,0-.492-.342,2.043,2.043,0,0,0-.757-.123,1.759,1.759,0,0,0-.2.009c-.082.009-.173.018-.274.035l-.319.053a2.341,2.341,0,0,0-.337.079v-1.062a2.379,2.379,0,0,1,.265-.079c.1-.026.219-.053.337-.079s.246-.044.374-.061a3.233,3.233,0,0,1,1.6.2,2.153,2.153,0,0,1,.8.605,2.574,2.574,0,0,1,.456.886,4.753,4.753,0,0,1,.173,1.071h.511a.729.729,0,0,1,.137.018.193.193,0,0,1,.118.061.342.342,0,0,1,.082.149.686.686,0,0,1,.027.272.709.709,0,0,1-.091.43.343.343,0,0,1-.292.123h-5.107a.416.416,0,0,1-.146-.018.3.3,0,0,1-.119-.061.481.481,0,0,1-.082-.149.949.949,0,0,1-.027-.281.71.71,0,0,1,.091-.43.343.343,0,0,1,.283-.114Z" transform="translate(-952.405 -298.777)" fill="#FFFFFF"/>
      <path id="Path_13409" d="M1082.374,304.781a5.83,5.83,0,0,1,.529-1.062,4.3,4.3,0,0,1,.73-.886,3.4,3.4,0,0,1,.921-.614,2.709,2.709,0,0,1,1.094-.228,2.123,2.123,0,0,1,.875.158,1.71,1.71,0,0,1,.647.439,1.9,1.9,0,0,1,.4.693,2.614,2.614,0,0,1,.137.913v1.632h-4.989a1.884,1.884,0,0,1-.447-.044,2.476,2.476,0,0,1-.365-.105,1.716,1.716,0,0,1-.283-.149,1.213,1.213,0,0,1-.191-.176,1.324,1.324,0,0,1-.292.254,1.213,1.213,0,0,1-.374.14,2.825,2.825,0,0,1-.465.061c-.173.009-.365.018-.575.018h-.4a.416.416,0,0,1-.146-.018.307.307,0,0,1-.119-.061.484.484,0,0,1-.082-.149,1.394,1.394,0,0,1-.027-.281.713.713,0,0,1,.091-.43.343.343,0,0,1,.283-.114h.419c.137,0,.246,0,.347-.009a.666.666,0,0,0,.228-.053.3.3,0,0,0,.127-.132.531.531,0,0,0,.036-.237V302.6h1.2v1.553a.584.584,0,0,0,.52.641c.055-.009.109-.009.164-.018m4.095,0v-.43a3.828,3.828,0,0,0-.037-.456,1.238,1.238,0,0,0-.146-.412.719.719,0,0,0-.292-.3.851.851,0,0,0-.465-.114,1.281,1.281,0,0,0-.574.132,2.124,2.124,0,0,0-.52.369,3.19,3.19,0,0,0-.447.544,4.867,4.867,0,0,0-.374.667Z" transform="translate(-1003.388 -298.866)" fill="#FFFFFF"/>
    </g>
  </g>
</svg>
