<svg id="Group_4917" data-name="Group 4917" xmlns="http://www.w3.org/2000/svg" xmlns:xlink="http://www.w3.org/1999/xlink" width="133.068" height="23.299" viewBox="0 0 133.068 23.299">
  <defs>
    <clipPath id="clip-path">
      <rect id="Rectangle_664" data-name="Rectangle 664" width="133.068" height="23.299" fill="#fff"/>
    </clipPath>
  </defs>
  <g id="Group_4873" data-name="Group 4873" clip-path="url(#clip-path)">
    <path id="Path_13223" data-name="Path 13223" d="M556.029,19.59c0,.392.008.652,0,.912a.766.766,0,0,1-.855.853q-2.178.015-4.356-.005a.7.7,0,0,1-.443-.215c-.344-.363-.659-.754-1.08-1.245,0,.277,0,.429,0,.58a.789.789,0,0,1-.8.873c-1.526.025-3.052.019-4.578,0a.631.631,0,0,1-.379-.244c-.3-.345-.568-.71-.872-1.1-.037.076-.066.109-.068.144-.064,1.033-.251,1.207-1.307,1.207h-6.251a4.078,4.078,0,0,1-1.659,3.228,3.8,3.8,0,0,1-2.311.76V8.27H535v6.119h3.587V8.265h3.987v6.127h2.724V8.277h3.986V14.4h2.749V8.263h4V14.4h3.551V2.49h4.017v.5q0,8.618,0,17.236c0,.933-.205,1.135-1.155,1.135-1.452,0-2.9-.015-4.356.01a1.019,1.019,0,0,1-.969-.452c-.3-.429-.662-.817-1.083-1.327" transform="translate(-436.585 -2.047)" fill="#fff"/>
    <path id="Path_13224" data-name="Path 13224" d="M423.376,34.935h3.94v6.128h4.2c-.3-.152-.551-.265-.788-.4a2.3,2.3,0,0,1-1.283-2.04c-.031-1.169-.009-2.339-.007-3.509a1.031,1.031,0,0,1,.038-.188h10.89v.493q0,5.753,0,11.505c0,.829-.263,1.1-1.079,1.1q-7.424,0-14.847,0c-.83,0-1.09-.257-1.091-1.085q0-5.775,0-11.55c0-.144.015-.288.025-.458M433.436,38.5c0,.63-.013,1.219,0,1.806a.7.7,0,0,0,.629.747c.756.054,1.519.016,2.275.016V38.5Z" transform="translate(-348.036 -28.717)" fill="#fff"/>
    <rect id="Rectangle_662" data-name="Rectangle 662" width="3.925" height="18.849" transform="translate(129.143 0.434)" fill="#fff"/>
    <path id="Path_13225" data-name="Path 13225" d="M459.653,0a2,2,0,0,1,2.11,1.983,2.1,2.1,0,0,1-2.074,2.108,2.134,2.134,0,0,1-2.121-2.073A2.02,2.02,0,0,1,459.653,0" transform="translate(-376.165 0)" fill="#fff"/>
    <path id="Path_13226" data-name="Path 13226" d="M574.87,0a2.026,2.026,0,0,1,2.117,1.989,2.14,2.14,0,0,1-2.094,2.1,2.114,2.114,0,0,1-2.107-2.08A2,2,0,0,1,574.87,0" transform="translate(-470.886 -0.002)" fill="#fff"/>
    <path id="Path_13227" data-name="Path 13227" d="M614.721,2.008a2.109,2.109,0,0,1-2.1,2.083,2.139,2.139,0,0,1-2.1-2.143A2.032,2.032,0,0,1,612.679,0a2,2,0,0,1,2.042,2.008" transform="translate(-501.909 0.001)" fill="#fff"/>
    <path id="Path_13228" data-name="Path 13228" d="M497.507,0a2.018,2.018,0,0,1,2.122,1.979,2.13,2.13,0,0,1-2.079,2.112,2.108,2.108,0,0,1-2.114-2.07A2,2,0,0,1,497.507,0" transform="translate(-407.297 -0.001)" fill="#fff"/>
    <path id="Path_13229" data-name="Path 13229" d="M650.481,0a2.009,2.009,0,0,1,2.1,1.994,2.1,2.1,0,0,1-4.191.014A2,2,0,0,1,650.481,0" transform="translate(-533.044 0)" fill="#fff"/>
    <path id="Path_13230" data-name="Path 13230" d="M6.081,2.6v8.964c.5-.634.948-1.139,1.328-1.69a3.387,3.387,0,0,1,2.913-1.509c2.267-.031,4.534-.033,6.8-.032.637,0,.922.318.925.988.007,1.54,0,3.08,0,4.62v.548h2.711V8.362h4v6.131H27.5V8.369h4v6.116h2.725V8.369h3.976c.007.15.021.307.021.463q0,5.775,0,11.551c0,.858-.214,1.066-1.083,1.067-1.334,0-2.667-.008-4,.007a.712.712,0,0,1-.639-.3c-.28-.361-.593-.7-.989-1.155,0,.287.008.452,0,.616a.761.761,0,0,1-.838.827c-1.467.011-2.934.011-4.4-.005a.706.706,0,0,1-.434-.234c-.34-.361-.654-.746-1.061-1.22,0,.257,0,.383,0,.509-.01.709-.252.951-.973.953-1.378,0-2.756.013-4.134-.012a.924.924,0,0,1-.579-.285c-.333-.351-.617-.747-.983-1.2-.022.208-.043.328-.046.449-.021.793-.282,1.048-1.088,1.05-.889,0-1.778,0-2.667,0H0V14.544H2.056V2.6Zm7.953,9.323c-1.374,0-2.7-.014-4.034.014a1.018,1.018,0,0,0-.663.3c-.636.708-1.231,1.452-1.9,2.252h6.6Z" transform="translate(0 -2.139)" fill="#fff"/>
    <path id="Path_13231" data-name="Path 13231" d="M300.07,8.255h3.941V14.4h3.245V2.483h4.013v.5q0,8.615,0,17.229c0,.889-.246,1.139-1.126,1.139H300.07V14.422h1.99c-.4-.261-.746-.45-1.049-.7a2.282,2.282,0,0,1-.926-1.662c-.053-1.252-.015-2.508-.015-3.81" transform="translate(-246.676 -2.041)" fill="#fff"/>
    <path id="Path_13232" data-name="Path 13232" d="M226.645,34.93h10.932v.455q0,6.3,0,12.607a3.983,3.983,0,0,1-3.757,4.021c-.059,0-.118-.006-.238-.014V48.028h-.522q-2.687,0-5.375,0c-.8,0-1.037-.24-1.037-1.028q0-5.815,0-11.63Zm4,3.578c0,.74-.021,1.448.017,2.154a.564.564,0,0,0,.365.405c.837.037,1.677.019,2.531.019V38.508Z" transform="translate(-186.325 -28.716)" fill="#fff"/>
    <rect id="Rectangle_663" data-name="Rectangle 663" width="3.915" height="18.844" transform="translate(66.739 0.449)" fill="#fff"/>
    <path id="Path_13233" data-name="Path 13233" d="M301.515,4.312h2.223V5.531h-3.884c-.189-.813-.1-1.172.342-1.286,0-.282-.005-.574,0-.867a.957.957,0,0,1,1.067-1.068c.545,0,1.089,0,1.651,0V3.577h-.867c-.606,0-.634.036-.533.734" transform="translate(-246.432 -1.897)" fill="#fff"/>
  </g>
</svg>
