<svg id="Menu_icon" data-name="Menu icon" xmlns="http://www.w3.org/2000/svg" width="19" height="15.463" viewBox="0 0 19 15.463">
  <path id="Path_12330" data-name="Path 12330" d="M20.444,7.709H3.556a1.106,1.106,0,0,1,0-2.209H20.444a1.106,1.106,0,0,1,0,2.209ZM21.5,13.232a1.081,1.081,0,0,0-1.056-1.1H7.347a1.106,1.106,0,0,0,0,2.209h13.1a1.081,1.081,0,0,0,1.056-1.1Zm0,6.627a1.081,1.081,0,0,0-1.056-1.1H3.556a1.106,1.106,0,0,0,0,2.209H20.444a1.081,1.081,0,0,0,1.056-1.1Z" transform="translate(-2.5 -5.5)" fill="#fff"/>
</svg>
