<svg id="Component_385_2" data-name="Component 385 – 2" xmlns="http://www.w3.org/2000/svg" width="18" height="18.708" viewBox="0 0 18 18.708">
  <path id="Path_12329" data-name="Path 12329" d="M4.033,17.889l3.444-3.4A7.976,7.976,0,0,1,5.4,9.139a8.153,8.153,0,0,1,16.3,0,8.107,8.107,0,0,1-8.152,8.039,8.212,8.212,0,0,1-4.319-1.228l-3.58,3.53a1.139,1.139,0,0,1-1.6,0A1.1,1.1,0,0,1,4.033,17.889Zm15.39-8.749a5.867,5.867,0,0,0-11.732,0,5.867,5.867,0,0,0,11.732,0Z" transform="translate(-3.7 -1.1)" fill="#253c3a"/>
</svg>
