<svg xmlns="http://www.w3.org/2000/svg" width="17.4" height="21.652" viewBox="0 0 17.4 21.652">
  <path id="Path_12332" data-name="Path 12332" d="M196.478,79.132c-.482-.4-1.728-1.275-1.842-1.36a4.158,4.158,0,0,1-1.473-4.788,1.065,1.065,0,0,0-.793-1.275,1.036,1.036,0,0,0-.708.085,8.436,8.436,0,0,0-4.618,8.443,4.609,4.609,0,0,1-.765-2.267,1.056,1.056,0,0,0-1.162-.963,1.124,1.124,0,0,0-.793.482c-1.757,2.72-2.323,4.335-2.323,6.942a8.5,8.5,0,1,0,17,0,6.556,6.556,0,0,0-2.522-5.3Zm-5.978,11.7a6.36,6.36,0,0,1-6.375-6.347v-.028a7.619,7.619,0,0,1,.765-3.683,4.216,4.216,0,0,0,3.485,2.578,1.07,1.07,0,0,0,1.077-1.048.626.626,0,0,0-.028-.227c-.907-4.278.708-6.432,1.417-7.112a6.35,6.35,0,0,0,2.38,4.392c.227.2,1.53,1.1,1.87,1.417a4.524,4.524,0,0,1,1.785,3.683,6.313,6.313,0,0,1-6.29,6.375Z" transform="translate(-181.8 -71.478)" fill="#929898" stroke="#101010" stroke-width="0.4"/>
</svg>
