<svg xmlns="http://www.w3.org/2000/svg" width="15.637" height="19.423" viewBox="0 0 15.637 19.423">
  <path id="Path_12332" data-name="Path 12332" d="M194.891,78.316c-.429-.353-1.539-1.135-1.64-1.211a3.7,3.7,0,0,1-1.312-4.264.948.948,0,0,0-.706-1.135.923.923,0,0,0-.631.076,7.511,7.511,0,0,0-4.112,7.518,4.1,4.1,0,0,1-.681-2.018.941.941,0,0,0-1.034-.858,1,1,0,0,0-.706.429C182.5,79.274,182,80.712,182,83.033a7.568,7.568,0,1,0,15.137,0,5.838,5.838,0,0,0-2.245-4.718Zm-5.323,10.419a5.663,5.663,0,0,1-5.676-5.651v-.025a6.785,6.785,0,0,1,.681-3.28,3.754,3.754,0,0,0,3.1,2.3.953.953,0,0,0,.959-.933.557.557,0,0,0-.025-.2c-.807-3.809.631-5.727,1.261-6.332,0,.014.035.355.035.355a5.536,5.536,0,0,0,2.084,3.555c.2.177,1.362.984,1.665,1.261a4.028,4.028,0,0,1,1.589,3.28,5.621,5.621,0,0,1-5.6,5.676Z" transform="translate(-181.75 -71.429)" fill="#90a3a2" stroke="#fff" stroke-width="0.5"/>
</svg>
