<svg xmlns="http://www.w3.org/2000/svg" width="26.7" height="23.547" viewBox="0 0 26.7 23.547">
  <g id="reading_1_" data-name="reading (1)" transform="translate(0.35 -3.575)">
    <path id="Path_19177" data-name="Path 19177" d="M13,14.2a5.1,5.1,0,0,0,4.726-3.133,11.282,11.282,0,0,0,.393-2.088A8.338,8.338,0,0,0,16.635,5.5,5.1,5.1,0,1,0,13,14.2Zm0-9.383A4.283,4.283,0,1,1,8.734,9.1,4.284,4.284,0,0,1,13,4.815ZM15.98,14.2h2.3a2.445,2.445,0,0,1,2.437,2.448v4.546l.813.5V16.646a3.257,3.257,0,0,0-3.25-3.264H17.056A5.926,5.926,0,0,1,15.98,14.2Zm-10.7,2.448A2.445,2.445,0,0,1,7.719,14.2h2.3a5.926,5.926,0,0,1-1.076-.816H7.719a3.257,3.257,0,0,0-3.25,3.264v5.046l.813-.5Zm20.33,8.508L19.671,21.5a.81.81,0,0,0-.375-.118c-.351-.021-.77-.087-1.212-.157a12.762,12.762,0,0,0-1.947-.207h0a3.986,3.986,0,0,0-1.006.114,7.106,7.106,0,0,0-2.13.915,6.685,6.685,0,0,0-1.131-.588,5.284,5.284,0,0,0-1.994-.325,19.586,19.586,0,0,0-2.045.144c-.4.042-.779.082-1.125.1a.81.81,0,0,0-.376.118L.388,25.154a.817.817,0,0,0-.389.7v.068a.812.812,0,0,0,1.107.76A22.391,22.391,0,0,1,8.083,25.3a6.854,6.854,0,0,1,4.405,1.248.81.81,0,0,0,1.023,0A6.853,6.853,0,0,1,17.917,25.3a22.4,22.4,0,0,1,6.977,1.375A.813.813,0,0,0,26,25.918V25.85A.817.817,0,0,0,25.611,25.154Zm-.424.764a23.062,23.062,0,0,0-7.271-1.43A7.708,7.708,0,0,0,13,25.918a7.71,7.71,0,0,0-4.917-1.43,23.051,23.051,0,0,0-7.271,1.43V25.85L6.753,22.2c.944-.056,2.08-.246,3.122-.246a4.548,4.548,0,0,1,1.689.265A5.589,5.589,0,0,1,13,23.059a6.009,6.009,0,0,1,2.333-1.132,3.226,3.226,0,0,1,.8-.088c1,0,2.2.307,3.111.362l5.941,3.649Z" fill="none" stroke="#90a3a2" stroke-width="0.7"/>
  </g>
</svg>
