<svg xmlns="http://www.w3.org/2000/svg" width="19" height="19" viewBox="0 0 19 19">
  <path id="Path_12264" data-name="Path 12264" d="M15.36,8.52v5.32a1.52,1.52,0,0,1-1.52,1.52H8.52A1.52,1.52,0,0,1,7,13.84V8.52A1.52,1.52,0,0,1,8.52,7h5.32A1.52,1.52,0,0,1,15.36,8.52ZM24.48,7H19.16a1.52,1.52,0,0,0-1.52,1.52v5.32a1.52,1.52,0,0,0,1.52,1.52h5.32A1.52,1.52,0,0,0,26,13.84V8.52A1.52,1.52,0,0,0,24.48,7ZM13.84,17.64H8.52A1.52,1.52,0,0,0,7,19.16v5.32A1.52,1.52,0,0,0,8.52,26h5.32a1.52,1.52,0,0,0,1.52-1.52V19.16A1.52,1.52,0,0,0,13.84,17.64Zm7.98,0A4.18,4.18,0,1,0,26,21.82a4.18,4.18,0,0,0-4.18-4.18Z" transform="translate(-7 -7)" fill="#2c8a82"/>
</svg>
